<?xml version="1.0" encoding="UTF-8"?>
<svg version="1.1" xmlns="http://www.w3.org/2000/svg" width="1920" height="515">
<path d="M0 0 C1.43416008 -0.00855011 1.43416008 -0.00855011 2.89729309 -0.01727295 C4.91678786 -0.0266721 6.93629762 -0.03323656 8.95581055 -0.03710938 C11.96627626 -0.04670525 14.97602527 -0.07773184 17.98632812 -0.109375 C31.50255643 -0.18324288 44.50609274 0.96532164 57.83203125 3.203125 C58.96842041 3.39132812 60.10480957 3.57953125 61.27563477 3.7734375 C63.87211013 4.23927907 66.4441166 4.75803621 69.01953125 5.328125 C70.40845581 5.63508301 70.40845581 5.63508301 71.82543945 5.94824219 C91.23478728 10.46137025 109.97830111 17.3961615 127.83203125 26.203125 C128.92451172 26.73607178 128.92451172 26.73607178 130.0390625 27.27978516 C151.79956425 37.99830257 171.40265549 52.38240908 188.83203125 69.203125 C189.55616211 69.90002441 190.28029297 70.59692383 191.02636719 71.31494141 C200.57309317 80.55175938 209.8145379 89.79019501 217.63330078 100.55566406 C218.84555375 102.22170948 220.08463488 103.86499215 221.328125 105.5078125 C247.01705025 139.90645905 262.39115346 181.81455913 267.83203125 224.203125 C267.9193602 224.86992279 268.00668915 225.53672058 268.09666443 226.22372437 C268.7946721 231.95197788 269.00763844 237.60366789 269.03515625 243.37109375 C269.04085632 244.32720047 269.0465564 245.28330719 269.0524292 246.26838684 C269.06182835 248.28788161 269.06839281 250.30739137 269.07226562 252.3269043 C269.0818615 255.33737001 269.11288809 258.34711902 269.14453125 261.35742188 C269.21839913 274.87365018 268.06983461 287.87718649 265.83203125 301.203125 C265.64382813 302.33951416 265.455625 303.47590332 265.26171875 304.64672852 C264.79587718 307.24320388 264.27712004 309.81521035 263.70703125 312.390625 C263.50239258 313.31657471 263.29775391 314.24252441 263.08691406 315.1965332 C258.573786 334.60588103 251.63899475 353.34939486 242.83203125 371.203125 C242.29908447 372.29560547 242.29908447 372.29560547 241.75537109 373.41015625 C231.03685368 395.170658 216.65274717 414.77374924 199.83203125 432.203125 C199.13513184 432.92725586 198.43823242 433.65138672 197.72021484 434.39746094 C188.48339687 443.94418692 179.24496124 453.18563165 168.47949219 461.00439453 C166.81344677 462.2166475 165.1701641 463.45572863 163.52734375 464.69921875 C129.1286972 490.388144 87.22059712 505.76224721 44.83203125 511.203125 C44.16523346 511.29045395 43.49843567 511.3777829 42.81143188 511.46775818 C37.08317837 512.16576585 31.43148836 512.37873219 25.6640625 512.40625 C24.70795578 512.41195007 23.75184906 512.41765015 22.76676941 512.42352295 C20.74727464 512.4329221 18.72776488 512.43948656 16.70825195 512.44335938 C13.69778624 512.45295525 10.68803723 512.48398184 7.67773438 512.515625 C-5.83849393 512.58949288 -18.84203024 511.44092836 -32.16796875 509.203125 C-33.30435791 509.01492188 -34.44074707 508.82671875 -35.61157227 508.6328125 C-38.20804763 508.16697093 -40.7800541 507.64821379 -43.35546875 507.078125 C-44.74439331 506.77116699 -44.74439331 506.77116699 -46.16137695 506.45800781 C-65.57072478 501.94487975 -84.31423861 495.0100885 -102.16796875 486.203125 C-102.89628906 485.84782715 -103.62460938 485.4925293 -104.375 485.12646484 C-126.13550175 474.40794743 -145.73859299 460.02384092 -163.16796875 443.203125 C-163.89209961 442.50622559 -164.61623047 441.80932617 -165.36230469 441.09130859 C-174.90903067 431.85449062 -184.1504754 422.61605499 -191.96923828 411.85058594 C-193.18149125 410.18454052 -194.42057238 408.54125785 -195.6640625 406.8984375 C-221.35298775 372.49979095 -236.72709096 330.59169087 -242.16796875 288.203125 C-242.2552977 287.53632721 -242.34262665 286.86952942 -242.43260193 286.18252563 C-243.1306096 280.45427212 -243.34357594 274.80258211 -243.37109375 269.03515625 C-243.37679382 268.07904953 -243.3824939 267.12294281 -243.3883667 266.13786316 C-243.39776585 264.11836839 -243.40433031 262.09885863 -243.40820312 260.0793457 C-243.417799 257.06887999 -243.44882559 254.05913098 -243.48046875 251.04882812 C-243.55433663 237.53259982 -242.40577211 224.52906351 -240.16796875 211.203125 C-239.97976562 210.06673584 -239.7915625 208.93034668 -239.59765625 207.75952148 C-239.13181468 205.16304612 -238.61305754 202.59103965 -238.04296875 200.015625 C-237.83833008 199.08967529 -237.63369141 198.16372559 -237.42285156 197.2097168 C-232.9097235 177.80036897 -225.97493225 159.05685514 -217.16796875 141.203125 C-216.8126709 140.47480469 -216.45737305 139.74648437 -216.09130859 138.99609375 C-205.37279118 117.235592 -190.98868467 97.63250076 -174.16796875 80.203125 C-173.47106934 79.47899414 -172.77416992 78.75486328 -172.05615234 78.00878906 C-162.81933437 68.46206308 -153.58089874 59.22061835 -142.81542969 51.40185547 C-141.14938427 50.1896025 -139.5061016 48.95052137 -137.86328125 47.70703125 C-103.4646347 22.018106 -61.55653462 6.64400279 -19.16796875 1.203125 C-18.50117096 1.11579605 -17.83437317 1.0284671 -17.14736938 0.93849182 C-11.41911587 0.24048415 -5.76742586 0.02751781 0 0 Z " fill="#FED400" transform="translate(243.16796875,-0.203125)"/>
<path d="M0 0 C0.66 0 1.32 0 2 0 C20.35953041 39.43845149 20.35953041 39.43845149 27.9375 56.375 C28.44700195 57.51171143 28.95650391 58.64842285 29.48144531 59.81958008 C31.82992394 65.07647203 34.15496306 70.34215558 36.43113708 75.63070679 C37.24089789 77.51012442 38.05543802 79.38740053 38.87133789 81.26416016 C39.88124936 83.59254529 40.88121052 85.92528391 41.86889648 88.26318359 C45.20843046 95.9415661 48.92793324 103.52778318 57 107 C60.69651888 107.99764669 64.42606223 108.72918292 68.1875 109.4375 C69.29391846 109.65140381 70.40033691 109.86530762 71.5402832 110.08569336 C90.01332222 113.59102128 108.62217416 116.11879284 127.25976562 118.56396484 C134.58180146 119.52865362 141.89167509 120.54042982 149.1875 121.6875 C149.95312256 121.80681885 150.71874512 121.9261377 151.50756836 122.04907227 C154.44459972 122.52177265 157.17172184 123.05724061 160 124 C159.44084989 127.88554197 157.71526961 129.65440523 154.97436523 132.38208008 C154.11934921 133.2400972 153.26433319 134.09811432 152.38340759 134.98213196 C150.98512474 136.36189461 150.98512474 136.36189461 149.55859375 137.76953125 C148.59211328 138.73295041 147.62622572 139.69696468 146.66090393 140.6615448 C144.63351983 142.68432587 142.60132943 144.70210183 140.56518555 146.71606445 C137.9753103 149.2778471 135.3940097 151.84804688 132.81590176 154.42166615 C130.33742828 156.89493671 127.85431723 159.36353156 125.37109375 161.83203125 C124.4530748 162.74580032 123.53505585 163.6595694 122.58921814 164.60102844 C118.09877181 169.04228644 113.56505619 173.37111608 108.76152039 177.47335815 C93.7042593 189.81815615 93.7042593 189.81815615 85.70849609 206.56542969 C85.71518897 214.2247546 86.72611157 221.46452322 88.16439819 228.97976685 C88.86971506 232.66974462 89.53808763 236.36648906 90.2109375 240.0625 C90.42719032 241.24351036 90.42719032 241.24351036 90.64781189 242.44837952 C92.63361027 253.36519732 94.36478008 264.32466656 96.12380981 275.27981567 C96.54405458 277.89629639 96.96529026 280.51261596 97.38671875 283.12890625 C97.58712517 284.37964684 97.58712517 284.37964684 97.7915802 285.65565491 C98.44686161 289.71424354 99.12983641 293.76471594 99.87353516 297.80810547 C100.01354446 298.57299789 100.15355377 299.33789032 100.29780579 300.1259613 C100.56017647 301.54536917 100.82776615 302.9638281 101.10197449 304.3809967 C101.89003158 308.6380894 102.11567711 312.67521373 102 317 C98.54935291 315.67977581 95.31759724 314.17793551 92.0703125 312.41796875 C91.12236816 311.90500244 90.17442383 311.39203613 89.19775391 310.86352539 C88.18374512 310.31043701 87.16973633 309.75734863 86.125 309.1875 C85.06071777 308.6092749 83.99643555 308.0310498 82.89990234 307.43530273 C74.81957794 303.02996858 66.80634904 298.51325873 58.80932617 293.95898438 C50.31572681 289.13905705 41.72187866 284.51550767 33.11181641 279.90771484 C26.12458496 276.16269486 19.19984872 272.3350607 12.34375 268.35546875 C6.36229623 264.89619465 -0.26593632 264.91249193 -7 266 C-11.84264045 267.73498183 -16.15383222 270.08028759 -20.60498047 272.63867188 C-23.30821849 274.17519127 -26.04231926 275.64474029 -28.78515625 277.109375 C-38.12167448 282.10055351 -47.40953831 287.17845484 -56.61962891 292.39941406 C-60.94275015 294.84921965 -65.28176165 297.26881542 -69.62890625 299.67578125 C-70.22188004 300.00421021 -70.81485382 300.33263916 -71.42579651 300.67102051 C-74.39448964 302.31509539 -77.36410864 303.95743634 -80.33520508 305.59716797 C-86.31326113 308.90759451 -92.20741049 312.28704015 -97.98095703 315.94458008 C-100 317 -100 317 -103 317 C-102.47028401 310.74935134 -101.31979329 304.88990859 -99.85449219 298.79516602 C-98.98571516 294.93655489 -98.25519536 291.06800208 -97.58203125 287.171875 C-97.45380478 286.43749207 -97.32557831 285.70310913 -97.19346619 284.94647217 C-95.62805671 275.93462093 -94.15365373 266.90747864 -92.67425537 257.88119507 C-91.29917725 249.50797814 -89.8801469 241.164116 -88.15234375 232.85498047 C-85.70033147 221.03310272 -83.22259345 208.16089903 -89 197 C-93.68959822 190.6675489 -99.63674533 185.36774703 -105.47729492 180.11523438 C-109.62336505 176.3841011 -113.56388778 172.48394519 -117.453125 168.484375 C-119.44937127 166.53711637 -121.46157978 164.73048024 -123.578125 162.921875 C-129.70783091 157.60602438 -135.31471012 151.74215891 -141.00927734 145.97021484 C-146.34077844 140.57287136 -151.67053602 135.23790083 -157.45898438 130.32226562 C-158.68730095 129.26831085 -159.85553893 128.14446107 -161 127 C-161 126.01 -161 125.02 -161 124 C-158.58799036 122.79399518 -156.5503287 122.57038848 -153.8737793 122.19970703 C-152.80052902 122.04929962 -151.72727875 121.89889221 -150.62150574 121.743927 C-149.45090103 121.58350922 -148.28029633 121.42309143 -147.07421875 121.2578125 C-145.86167923 121.08877411 -144.64913971 120.91973572 -143.39985657 120.74557495 C-139.49618894 120.20207634 -135.59187133 119.66341784 -131.6875 119.125 C-129.12820926 118.76986219 -126.56896392 118.41439711 -124.00976562 118.05859375 C-120.23687597 117.53408276 -116.46394989 117.0098533 -112.69081116 116.48713684 C-104.37127304 115.33390253 -96.05536594 114.15741926 -87.74194336 112.96095276 C-83.44956547 112.34452236 -79.15604544 111.74855987 -74.85546875 111.19140625 C-74.05689453 111.08376953 -73.25832031 110.97613281 -72.43554688 110.86523438 C-70.88745291 110.65675951 -69.33782256 110.45948785 -67.78710938 110.27148438 C-60.91482378 109.31401013 -55.50388034 107.37169963 -50.41015625 102.546875 C-46.69115582 97.57993987 -44.15160915 91.79973431 -41.4375 86.25 C-40.81732257 84.99449783 -40.19687523 83.73912896 -39.57617188 82.48388672 C-34.03629283 71.2371969 -28.78471325 59.86063876 -23.58007812 48.45556641 C-20.65784102 42.06475306 -17.71163998 35.68514315 -14.75 29.3125 C-14.45268982 28.6726416 -14.15537964 28.0327832 -13.84906006 27.37353516 C-9.52431325 18.08419646 -5.04156613 8.92451148 0 0 Z " fill="#F9F9FA" transform="translate(256,90)"/>
<path d="M0 0 C7.2321714 5.07790758 10.05063845 14.67497979 13.43359375 22.50390625 C16.76824934 30.19191238 20.27868119 37.80001732 23.76953125 45.41796875 C24.47267246 46.95376862 25.17579743 48.48957592 25.87890625 50.02539062 C27.92378089 54.49050175 29.97134615 58.95437541 32.01953125 63.41796875 C32.31380005 64.05955933 32.60806885 64.7011499 32.91125488 65.36218262 C33.73089531 67.14914749 34.5509866 68.93590553 35.37109375 70.72265625 C35.87882324 71.82988037 36.38655273 72.93710449 36.90966797 74.07788086 C37.8887017 76.19772551 38.8771145 78.31326716 39.87548828 80.42407227 C42.23392722 85.42027051 44.42572494 90.39665753 46.34765625 95.578125 C49.48850167 104.72178208 49.48850167 104.72178208 55.86865234 111.54443359 C60.33615485 113.14279957 64.84974562 113.27496739 69.55566406 113.33740234 C73.659864 113.47160627 77.65867507 114.20498791 81.70703125 114.85546875 C90.63130582 116.1411049 99.5763601 117.27317593 108.51953125 118.41796875 C168.4668435 126.09445235 168.4668435 126.09445235 173.95703125 132.35546875 C174.63765625 133.36609375 175.31828125 134.37671875 176.01953125 135.41796875 C176.45265625 136.03671875 176.88578125 136.65546875 177.33203125 137.29296875 C178.84798782 141.9786527 178.65493189 145.92813184 176.76171875 150.3671875 C172.59701395 157.66008984 166.26465311 163.3570147 159.8984375 168.7265625 C158.02414683 170.41381377 156.44802383 172.17183636 154.83203125 174.10546875 C151.97588486 177.46519884 148.91193308 180.4263127 145.6484375 183.390625 C136.67914681 191.61991195 127.78560182 199.92195671 119.03955078 208.38867188 C117.10415469 210.25649885 115.14894385 212.09949783 113.17431641 213.92578125 C101.51416045 223.65635964 101.51416045 223.65635964 94.87475586 236.62939453 C95.03309455 240.06643976 95.49548401 243.06295329 96.4564209 246.36303711 C97.27032622 249.33318281 97.67509443 252.33784229 98.1318512 255.37995911 C98.64072346 258.6777463 99.24999664 261.95399087 99.85800171 265.23471069 C100.67237087 269.62972467 101.45762993 274.02996567 102.24609375 278.4296875 C102.40194443 279.29513687 102.5577951 280.16058624 102.71836853 281.05226135 C104.00255601 288.22017427 105.14146954 295.40156197 106.20703125 302.60546875 C107.62881284 312.1725263 109.31520607 321.66354654 111.1875 331.15234375 C114.86792742 349.89147893 114.86792742 349.89147893 110.01953125 358.41796875 C106.50073715 362.49236192 102.81928812 365.78770189 97.46875 366.9921875 C87.54145973 367.39938894 80.35644061 363.16971065 72.01953125 358.41796875 C70.32559981 357.46340151 68.63158562 356.50898109 66.9375 355.5546875 C64.11978097 353.96281158 61.30475281 352.3666657 58.49487305 350.76098633 C50.41640561 346.15677678 42.23727287 341.76615586 34.01953125 337.41796875 C23.65381502 331.93208893 13.3775698 326.31952545 3.19921875 320.49023438 C1.52204886 319.53024235 -0.15865012 318.57637423 -1.84375 317.63037109 C-3.61874931 316.62321312 -5.36611052 315.56753111 -7.10546875 314.5 C-12.07440457 312.6298978 -15.86739532 313.52450833 -20.59033203 315.52148438 C-23.61801505 316.99799542 -26.58111884 318.56350866 -29.54296875 320.16796875 C-30.63923584 320.74998047 -31.73550293 321.33199219 -32.86499023 321.93164062 C-41.1076557 326.33468021 -49.25728045 330.89972578 -57.37207031 335.53344727 C-65.28945276 340.0531004 -73.28726189 344.41089707 -81.31445312 348.73193359 C-88.31320875 352.50235748 -95.27394646 356.3344943 -102.18676758 360.26049805 C-111.50268124 365.499924 -119.13688842 367.87492558 -129.98046875 366.41796875 C-134.48924483 364.36720286 -136.43196204 361.33804452 -138.91796875 357.16796875 C-141.27650456 348.8437247 -139.74322607 341.53510977 -137.8359375 333.234375 C-136.94661154 329.26692541 -136.18376622 325.29664097 -135.48046875 321.29296875 C-135.35623535 320.58624023 -135.23200195 319.87951172 -135.10400391 319.15136719 C-134.15588072 313.64906365 -133.34290434 308.13092987 -132.54296875 302.60546875 C-131.58800538 296.03742895 -130.45536694 289.54106708 -129.10546875 283.04296875 C-127.4227365 274.91488218 -125.951756 266.75674533 -124.57269287 258.57244873 C-124.34644254 257.23072412 -124.11848488 255.88928618 -123.88873291 254.54815674 C-123.56507024 252.65409343 -123.24920801 250.75870231 -122.93359375 248.86328125 C-122.74958008 247.76516113 -122.56556641 246.66704102 -122.37597656 245.53564453 C-121.67131097 239.98096572 -121.38247937 236.81221515 -124.67761803 232.08772659 C-127.15485981 228.91284721 -130.01315966 226.12618171 -132.87280273 223.29858398 C-133.90038696 222.27056168 -133.90038696 222.27056168 -134.94873047 221.22177124 C-137.20329717 218.96859213 -139.46485715 216.72257394 -141.7265625 214.4765625 C-143.30114234 212.90571682 -144.87527821 211.33442601 -146.44898987 209.76271057 C-150.58711467 205.63220713 -154.73120603 201.50774096 -158.87658691 197.38452148 C-163.08733716 193.19419901 -167.29246719 188.99824509 -171.49804688 184.80273438 C-178.29393327 178.02441144 -185.09324802 171.24955061 -191.89704895 164.47917175 C-193.0661717 163.31569504 -194.23500147 162.15192381 -195.40347099 160.98779106 C-196.86890327 159.52902659 -198.33735151 158.07329359 -199.80604553 156.61781311 C-203.58912474 152.79050599 -205.17556899 149.99477805 -205.48046875 144.60546875 C-205.30472896 139.24540525 -203.65332286 135.32998545 -199.98046875 131.41796875 C-194.94079858 127.27218503 -190.24582587 126.37188641 -183.98046875 125.41796875 C-182.9632373 125.25264648 -181.94600586 125.08732422 -180.89794922 124.91699219 C-170.83239399 123.31706831 -160.72651764 122.00972358 -150.62109375 120.69140625 C-138.67045812 119.12783147 -126.72991195 117.48991738 -114.79144287 115.83630371 C-112.17157319 115.47464819 -109.55133232 115.11567126 -106.9307251 114.75939941 C-103.21457686 114.25384828 -99.49977682 113.73929672 -95.78515625 113.22265625 C-94.6541449 113.0706778 -93.52313354 112.91869934 -92.35784912 112.76211548 C-91.31276184 112.6148703 -90.26767456 112.46762512 -89.19091797 112.31591797 C-88.27768768 112.19030487 -87.3644574 112.06469177 -86.42355347 111.93527222 C-83.94830511 111.41115836 -82.12884392 110.74653264 -79.98046875 109.41796875 C-78.33212168 106.93441745 -78.33212168 106.93441745 -76.91796875 103.79296875 C-76.47590088 102.87269897 -76.47590088 102.87269897 -76.02490234 101.93383789 C-74.99351685 99.76928887 -73.98521927 97.5950047 -72.98046875 95.41796875 C-72.61099121 94.62148926 -72.24151367 93.82500977 -71.86083984 93.00439453 C-69.11536956 87.07422412 -66.40377777 81.12878194 -63.6953125 75.18164062 C-57.83474642 62.31551797 -51.93882397 49.46597473 -46.00366211 36.63409424 C-45.01934908 34.50217932 -44.03930681 32.36835574 -43.06054688 30.23388672 C-41.34429761 26.49464007 -39.60191012 22.76820952 -37.85546875 19.04296875 C-37.35998535 17.95717529 -36.86450195 16.87138184 -36.35400391 15.75268555 C-32.83238132 8.32416987 -28.87859576 1.97985153 -21.16796875 -1.51953125 C-13.95761675 -3.746667 -6.75000939 -3.46366506 0 0 Z M-12.98046875 24.41796875 C-24.730269 45.78124194 -34.7781115 68.04603785 -44.93920898 90.19604492 C-47.27122983 95.27705518 -49.62087227 100.34971293 -51.98046875 105.41796875 C-52.4300293 106.38798828 -52.87958984 107.35800781 -53.34277344 108.35742188 C-54.64052541 111.13711076 -55.96230593 113.90391093 -57.29296875 116.66796875 C-57.66542725 117.47234375 -58.03788574 118.27671875 -58.42163086 119.10546875 C-61.38668898 125.15953682 -64.86321453 129.56614222 -71.12402344 132.38208008 C-77.8731825 134.64790921 -84.93549912 135.3400158 -91.98098755 136.12503052 C-95.53536549 136.52225265 -99.08600683 136.95031542 -102.63671875 137.37890625 C-103.34844742 137.46445267 -104.06017609 137.54999908 -104.79347229 137.63813782 C-111.23701014 138.42465753 -117.63982291 139.41455585 -124.04296875 140.48046875 C-133.04839784 141.97665491 -142.06050509 143.25841246 -151.11621094 144.40991211 C-162.89549609 145.2467053 -162.89549609 145.2467053 -173.98046875 148.41796875 C-173.40055462 151.78734323 -172.37697196 153.38349302 -169.91796875 155.73046875 C-169.09619141 156.52904297 -169.09619141 156.52904297 -168.2578125 157.34375 C-166.97221771 158.51467768 -165.67745062 159.67623007 -164.35400391 160.80419922 C-157.52179175 166.64659179 -151.27885412 173.05438371 -144.97119141 179.44775391 C-139.70655553 184.77740641 -134.43297823 190.0183504 -128.73242188 194.88867188 C-126.01076871 197.26442932 -123.50044497 199.83202681 -120.98046875 202.41796875 C-117.65195966 205.80199664 -114.31895057 209.06416544 -110.66796875 212.10546875 C-104.30169515 217.53944287 -99.4394375 223.11360135 -98.70703125 231.578125 C-98.37528906 244.32468064 -100.78864041 256.23443181 -103.26611328 268.69580078 C-104.49991519 275.12455807 -105.54848134 281.58319626 -106.60546875 288.04296875 C-107.02320814 290.57165249 -107.441169 293.10029964 -107.859375 295.62890625 C-108.05289551 296.80163086 -108.24641602 297.97435547 -108.44580078 299.18261719 C-110.2399641 310.03935342 -112.18483079 320.82018121 -114.71118164 331.53417969 C-115.50518425 334.95533407 -115.98046875 337.88294597 -115.98046875 341.41796875 C-112.62060449 340.7445372 -109.97243311 339.46858456 -106.97265625 337.828125 C-105.99562744 337.29646729 -105.01859863 336.76480957 -104.01196289 336.21704102 C-102.97031982 335.64397217 -101.92867676 335.07090332 -100.85546875 334.48046875 C-99.77450928 333.88999756 -98.6935498 333.29952637 -97.57983398 332.69116211 C-94.37691908 330.93905316 -91.17789173 329.18007663 -87.98046875 327.41796875 C-87.1611084 326.96679688 -86.34174805 326.515625 -85.49755859 326.05078125 C-78.3413333 322.10425262 -71.21195459 318.11012623 -64.0859375 314.109375 C-53.61560427 308.23234732 -43.13696387 302.3723823 -32.60546875 296.60546875 C-31.67831055 296.09580566 -30.75115234 295.58614258 -29.79589844 295.06103516 C-28.94157227 294.59487793 -28.08724609 294.1287207 -27.20703125 293.6484375 C-26.46018066 293.24004639 -25.71333008 292.83165527 -24.94384766 292.41088867 C-18.86611612 289.33725846 -11.60802713 289.27652979 -4.98046875 290.41796875 C-0.25992924 292.00956828 3.94121431 294.66923477 8.15869141 297.27685547 C10.49999165 298.71259902 12.88829689 300.05036306 15.28808594 301.38525391 C17.25472666 302.47926893 19.21330374 303.58692049 21.171875 304.6953125 C28.56145028 308.85919133 35.99832562 312.93844714 43.42822266 317.02978516 C44.69173611 317.72557805 45.95524519 318.4213789 47.21875 319.1171875 C47.85270691 319.4662616 48.48666382 319.81533569 49.13983154 320.17498779 C53.1408784 322.37927115 57.13766792 324.59107699 61.13130188 326.8087616 C63.78748165 328.28366823 66.44481721 329.75648586 69.10220337 331.22921753 C70.3704964 331.93287822 71.63822683 332.637554 72.90536499 333.34329224 C74.67110711 334.32657595 76.43902601 335.3059476 78.20703125 336.28515625 C79.21121094 336.84315918 80.21539062 337.40116211 81.25 337.97607422 C83.79748725 339.30236651 86.33361461 340.40706731 89.01953125 341.41796875 C88.83036436 331.15136584 87.1923474 321.36986215 85.24389648 311.30810547 C82.72253526 298.16576541 80.62771783 284.9588463 78.51904297 271.74511719 C78.23572286 269.97585196 77.95203772 268.20664515 77.66796875 266.4375 C77.53082962 265.58281128 77.39369049 264.72812256 77.25239563 263.84753418 C76.1643432 257.14207695 74.92754307 250.47315924 73.61206055 243.80883789 C72.04102247 234.81825371 72.16469453 228.87903104 77.0559082 221.11621094 C80.66199985 216.16102943 85.00228093 211.98352804 89.39453125 207.73046875 C90.30203125 206.83263672 91.20953125 205.93480469 92.14453125 205.00976562 C95.92920824 201.28780302 99.73958713 197.64537825 103.76025391 194.17944336 C108.47359602 190.07756576 112.90354239 185.71389853 117.33203125 181.30859375 C118.18635742 180.45996765 119.04068359 179.61134155 119.92089844 178.73699951 C121.71053091 176.95675294 123.49876079 175.17509538 125.28564453 173.39208984 C128.03232357 170.65522213 130.78948041 167.92919113 133.546875 165.203125 C135.28841563 163.46810535 137.02932411 161.73245088 138.76953125 159.99609375 C139.59751221 159.18045959 140.42549316 158.36482544 141.27856445 157.5244751 C142.03355225 156.76648621 142.78854004 156.00849731 143.56640625 155.22753906 C144.23510742 154.56248352 144.90380859 153.89742798 145.59277344 153.21221924 C147.33072799 151.40867861 147.33072799 151.40867861 147.01953125 148.41796875 C133.13777485 145.34863568 119.08604581 143.42567823 105.01953125 141.41796875 C104.08270508 141.28390625 103.14587891 141.14984375 102.18066406 141.01171875 C100.45805772 140.76535717 98.73540289 140.51933432 97.01269531 140.27368164 C95.35049478 140.03652671 93.68838517 139.79873363 92.02636719 139.56030273 C88.26371466 139.02087374 84.50089078 138.48431134 80.73535156 137.96533203 C42.30320312 132.66786964 42.30320312 132.66786964 36.67333984 126.66625977 C34.49315635 123.70238173 32.90291773 120.51086477 31.2890625 117.21875 C30.76528519 116.15975243 30.76528519 116.15975243 30.23092651 115.07936096 C26.83510957 108.15183499 23.6957453 101.11843161 20.60510254 94.0506897 C13.59182968 78.02305733 6.32149884 62.11968182 -1.04052734 46.24975586 C-1.76531112 44.68734264 -2.49008367 43.12492421 -3.21484375 41.5625 C-3.72411911 40.46502693 -3.72411911 40.46502693 -4.24368286 39.34538269 C-6.5393054 34.39106141 -8.78847194 29.41918252 -10.98046875 24.41796875 C-11.64046875 24.41796875 -12.30046875 24.41796875 -12.98046875 24.41796875 Z " fill="#020201" transform="translate(268.98046875,65.58203125)"/>
<path d="M0 0 C12.54 0 25.08 0 38 0 C43.16698107 13.0336414 47.94435231 26.16293451 52.56002808 39.40081787 C54.64300574 45.37277193 56.73751625 51.34067817 58.83203125 57.30859375 C59.26197891 58.53398865 59.69192657 59.75938354 60.13490295 61.02191162 C64.51527629 73.49229321 68.96805756 85.93631205 73.4375 98.375 C73.82534668 99.45469055 74.21319336 100.5343811 74.61279297 101.64678955 C76.19499407 106.05127541 77.77727261 110.45573339 79.35995483 114.86004639 C84.84786594 130.13632553 90.30216187 145.42463162 95.7565918 160.71289062 C96.57728613 163.01302978 97.39800529 165.31316007 98.21875 167.61328125 C98.61902908 168.73509796 99.01930817 169.85691467 99.43171692 171.01272583 C101.77348989 177.57290316 104.12194116 184.1306368 106.47735596 190.68592834 C107.90374826 194.65572606 109.32807059 198.62626509 110.75231934 202.59683228 C111.41206397 204.43397448 112.07293411 206.27071292 112.73498535 208.10702515 C113.63339185 210.5990089 114.52805412 213.09230608 115.421875 215.5859375 C115.68641479 216.31632736 115.95095459 217.04671722 116.22351074 217.79924011 C118 222.77226816 118 222.77226816 118 225 C105.46 225 92.92 225 80 225 C75.70238067 213.47456635 71.50794147 201.9143718 67.38928223 190.32391357 C66.83794401 188.77421607 66.28496398 187.2251017 65.73034668 185.67657471 C64.94187544 183.47350716 64.15962015 181.26832657 63.37890625 179.0625 C63.13860184 178.39447357 62.89829742 177.72644714 62.65071106 177.03817749 C61.65677461 174.21094067 61 172.02307013 61 169 C33.61 169 6.22 169 -22 169 C-22.99 172.3 -23.98 175.6 -25 179 C-25.54810024 180.68287144 -26.10648935 182.36252468 -26.68579102 184.03491211 C-27.12623497 185.31059303 -27.12623497 185.31059303 -27.57557678 186.61204529 C-28.03509987 187.93136803 -28.03509987 187.93136803 -28.50390625 189.27734375 C-28.82785873 190.21050919 -29.15181122 191.14367462 -29.48558044 192.1051178 C-30.16430379 194.05753297 -30.84417179 196.00955057 -31.52514648 197.96118164 C-32.56767027 200.95233426 -33.60328986 203.94582202 -34.63867188 206.93945312 C-35.30166465 208.84389581 -35.96506161 210.74819784 -36.62890625 212.65234375 C-36.93727921 213.54606186 -37.24565216 214.43977997 -37.56336975 215.36058044 C-37.85384689 216.18896927 -38.14432404 217.01735809 -38.44360352 217.87084961 C-38.69658707 218.59791611 -38.94957062 219.3249826 -39.21022034 220.07408142 C-40 222 -40 222 -42 225 C-44.83727325 225.26667539 -47.45383045 225.34791234 -50.2890625 225.29296875 C-51.10748627 225.28872391 -51.92591003 225.28447906 -52.76913452 225.28010559 C-55.38808836 225.26328679 -58.00627802 225.22562974 -60.625 225.1875 C-62.3984264 225.17245726 -64.17186484 225.15876814 -65.9453125 225.14648438 C-70.2971703 225.11337292 -74.64845551 225.06156952 -79 225 C-77.61994621 218.09575523 -75.60925106 211.66119284 -73.203125 205.05078125 C-72.82214157 203.9899231 -72.44115814 202.92906494 -72.04862976 201.83605957 C-71.22171285 199.53532946 -70.3923339 197.23548306 -69.5607605 194.93643188 C-68.22266221 191.23691772 -66.89058149 187.53526938 -65.56079102 183.83276367 C-65.09956518 182.54872074 -64.63833775 181.26467839 -64.17710876 179.9806366 C-63.94589766 179.33690786 -63.71468655 178.69317913 -63.47646904 178.02994347 C-62.76332578 176.04522988 -62.04947291 174.06077273 -61.33546448 172.07637024 C-58.0169732 162.85071934 -54.72377277 153.61633326 -51.44921875 144.375 C-51.10807541 143.41225348 -51.10807541 143.41225348 -50.76004028 142.43005753 C-49.61183732 139.18920574 -48.46409801 135.94818997 -47.31658936 132.70709229 C-39.19755794 109.77636176 -31.02371795 86.8657727 -22.80322266 63.97119141 C-15.15406125 42.66452969 -7.57099519 21.3345423 0 0 Z M19 53 C12.46735587 70.53542722 6.15492412 88.1409296 0 105.8125 C-0.32646515 106.74937653 -0.6529303 107.68625305 -0.98928833 108.65151978 C-1.9314954 111.3571301 -2.87240033 114.06318802 -3.8125 116.76953125 C-4.09024765 117.56854858 -4.3679953 118.36756592 -4.65415955 119.1907959 C-4.91910721 119.95516968 -5.18405487 120.71954346 -5.45703125 121.50708008 C-5.68366455 122.16049881 -5.91029785 122.81391754 -6.14379883 123.48713684 C-7.44909144 127.31803761 -8.7201723 131.16051689 -10 135 C9.14 135 28.28 135 48 135 C47.31115751 131.55578756 46.61985841 128.64148118 45.48461914 125.37866211 C45.02214279 124.04194458 45.02214279 124.04194458 44.55032349 122.67822266 C44.0478157 121.2422876 44.0478157 121.2422876 43.53515625 119.77734375 C43.18581024 118.7711499 42.83646423 117.76495605 42.47653198 116.72827148 C41.34187551 113.46350274 40.2023441 110.2004608 39.0625 106.9375 C38.28638374 104.70846902 37.51042368 102.47938364 36.73461914 100.25024414 C31.23729186 84.47115534 25.68160853 68.71376701 20 53 C19.67 53 19.34 53 19 53 Z " fill="#000000" transform="translate(1739,151)"/>
<path d="M0 0 C12.54 0 25.08 0 38 0 C40.0658153 8.20751206 42.12901432 16.41564932 44.1875 24.625 C44.49835541 25.8645343 44.80921082 27.1040686 45.12948608 28.38116455 C50.55637835 50.04172946 55.82955746 71.73581267 60.9987793 93.45947266 C61.26149628 94.55986877 61.52421326 95.66026489 61.79489136 96.79400635 C62.28618509 98.85236622 62.77541606 100.91121991 63.26223755 102.97064209 C63.47774261 103.87284485 63.69324768 104.77504761 63.9152832 105.70458984 C64.10177933 106.49054535 64.28827545 107.27650085 64.48042297 108.08627319 C64.9498427 110.06404905 64.9498427 110.06404905 66 112 C69.4688928 99.54284369 72.93747037 87.08559966 76.40565205 74.62824535 C78.01629378 68.84302257 79.62704168 63.05782938 81.23803711 57.27270508 C82.79443058 51.68364233 84.35053877 46.09450022 85.90645409 40.50530434 C86.49837394 38.37918618 87.09039439 36.25309603 87.68251991 34.12703514 C88.51558713 31.13579089 89.34828772 28.1444448 90.1809082 25.15307617 C90.42259232 24.28560257 90.66427643 23.41812897 90.9132843 22.52436829 C92.62989078 16.35503348 94.31501292 10.17828597 96 4 C107.22 4 118.44 4 130 4 C130.9446814 7.43877563 130.9446814 7.43877563 131.90844727 10.94702148 C134.01928979 18.63043745 136.1308126 26.31366635 138.24264622 33.99680996 C139.51958325 38.64256198 140.79631032 43.28837147 142.07250977 47.93432617 C143.30633676 52.42599763 144.54079369 56.91749557 145.77561569 61.40889359 C146.26079265 63.1740867 146.7457402 64.93934288 147.23045731 66.70466232 C149.55122665 75.15641108 151.87826539 83.60560287 154.27685547 92.03564453 C154.7757151 93.79220116 154.7757151 93.79220116 155.28465271 95.58424377 C155.88279657 97.68272683 156.48535141 99.77996028 157.09339905 101.87559509 C157.34995773 102.7752449 157.60651642 103.67489471 157.87084961 104.60180664 C158.09131454 105.3636879 158.31177948 106.12556915 158.53892517 106.91053772 C159 109 159 109 159 113 C159.66 113 160.32 113 161 113 C161.12231491 111.86199951 161.24462982 110.72399902 161.37065125 109.55151367 C161.9428615 104.99782799 162.9507781 100.62225103 164.06958008 96.17578125 C164.27787949 95.33224594 164.48617889 94.48871063 164.70079041 93.61961365 C165.38599429 90.84947003 166.07771257 88.08099833 166.76953125 85.3125 C167.25216377 83.36696088 167.73439054 81.42132106 168.2162323 79.47558594 C169.48469021 74.35812849 170.75870051 69.24206917 172.03387451 64.12628174 C173.31830043 58.96914607 174.5973764 53.81068429 175.87695312 48.65234375 C177.76259254 41.05399247 179.65040465 33.45618702 181.54223633 25.859375 C181.73200043 25.09725204 181.92176453 24.33512909 182.11727905 23.5499115 C184.07327226 15.69870775 186.03759691 7.84961234 188 0 C200.54 0 213.08 0 226 0 C225.27704046 5.06071675 224.45608719 9.27887216 223.01660156 14.10351562 C222.81569129 14.78191246 222.61478102 15.4603093 222.40778255 16.15926361 C221.74005487 18.4096739 221.06533199 20.6579233 220.390625 22.90625 C219.91046585 24.51972344 219.43076623 26.1333337 218.95149231 27.74707031 C217.65839906 32.09668701 216.35937819 36.44451247 215.05922318 40.79202271 C213.70594273 45.32062846 212.35782645 49.85077025 211.00952148 54.38085938 C209.34579686 59.97003971 207.68178993 65.55913412 206.01560974 71.14758301 C202.49730968 82.95070486 198.99890005 94.75951861 195.52045822 106.57444763 C194.77883735 109.09339149 194.03678002 111.61220636 193.29458618 114.13098145 C190.4854187 123.66461955 190.4854187 123.66461955 187.68200684 133.19995117 C186.60584613 136.86443404 185.52672799 140.52803287 184.44534874 144.190979 C184.05046718 145.53068026 183.65673935 146.8707222 183.26423073 148.21112061 C182.73256153 150.02637665 182.19661046 151.84037698 181.66040039 153.65429688 C181.36194717 154.66907104 181.06349396 155.68384521 180.7559967 156.72937012 C180 159 180 159 179 160 C176.47905924 160.08847743 173.98569107 160.11527301 171.46484375 160.09765625 C170.33496788 160.09553383 170.33496788 160.09553383 169.18226624 160.09336853 C166.7673044 160.08775376 164.35243399 160.07519883 161.9375 160.0625 C160.30403779 160.0574869 158.67057414 160.05292366 157.03710938 160.04882812 C153.02470415 160.03777954 149.01236759 160.02050506 145 160 C144.71709106 159.06801788 144.43418213 158.13603577 144.1427002 157.17581177 C141.43793146 148.26577074 138.73263623 139.35588971 136.0268631 130.44615364 C134.63679701 125.86880139 133.24689806 121.29139854 131.85742188 116.71386719 C125.60946116 96.13084157 119.35235092 75.55110661 113 55 C110.15546006 64.26031152 107.31201384 73.52095805 104.4698267 82.78199196 C103.1489234 87.085935 101.827694 91.38977726 100.50561523 95.69335938 C93.92763493 117.10672749 87.41234803 138.5363533 81 160 C69.78 160 58.56 160 47 160 C45.16999406 155.11998416 43.46213333 150.45159356 41.98901367 145.48901367 C41.61901749 144.24749542 41.2490213 143.00597717 40.86781311 141.72683716 C40.46779341 140.37390218 40.06784776 139.02094531 39.66796875 137.66796875 C39.2389869 136.22412619 38.80977631 134.78035157 38.38035583 133.3366394 C37.22041761 129.43383453 36.06427457 125.52991539 34.90912628 121.62569046 C34.18653438 119.18423742 33.46302505 116.74305819 32.73919678 114.30197144 C29.4168614 103.09722174 26.10305285 91.88996529 22.79233551 80.68177795 C21.99738744 77.99115739 21.20198885 75.30067043 20.40643311 72.61022949 C17.29801623 62.09774609 14.19467091 51.58378828 11.09902954 41.0675354 C10.11691045 37.73142132 9.13306697 34.39582316 8.14779663 31.06063843 C6.9886281 27.136111 5.83347378 23.21042448 4.68147469 19.28378677 C4.25724535 17.84013311 3.83163698 16.39688389 3.40456963 14.95406723 C2.8227463 12.98749812 2.24642563 11.01930348 1.67041016 9.05102539 C1.34593903 7.94851944 1.0214679 6.84601349 0.68716431 5.71009827 C0 3 0 3 0 0 Z " fill="#000000" transform="translate(712,216)"/>
<path d="M0 0 C12.21 0 24.42 0 37 0 C37.33 47.85 37.66 95.7 38 145 C45.55777999 135.69811693 52.91335702 126.52414133 60.0390625 116.9296875 C63.36435248 112.48208476 66.79784864 108.1198747 70.36154175 103.86044312 C73.08894594 100.5632158 75.49311625 97.27845709 77.65136719 93.58007812 C84.57358609 82.25162428 84.57358609 82.25162428 90.44558716 80.10665894 C97.05924952 78.90189762 103.65018322 79.44242805 110.3125 79.9375 C112.32454748 80.02293623 114.33694659 80.10047463 116.34960938 80.16992188 C121.24188091 80.35575057 126.11699682 80.64786801 131 81 C127.10121885 87.08719782 122.91247277 92.73071753 118.25 98.25 C113.20376328 104.29714318 108.32562113 110.42147369 103.55859375 116.69140625 C100.61926321 120.52617743 97.55906177 124.26055535 94.5 128 C89.6238561 133.96068404 84.87239301 139.99701606 80.21875 146.1328125 C78 149 78 149 76.57421875 150.52246094 C74.94857071 152.2204489 74.94857071 152.2204489 73 155 C73.30318862 158.7203071 74.43733618 161.03573507 76.66796875 163.9765625 C77.22419922 164.71970703 77.78042969 165.46285156 78.35351562 166.22851562 C79.26133789 167.41477539 79.26133789 167.41477539 80.1875 168.625 C81.47288569 170.33576513 82.75803547 172.04670754 84.04296875 173.7578125 C84.70216309 174.62954102 85.36135742 175.50126953 86.04052734 176.39941406 C89.0609336 180.40805691 92.02934663 184.45443361 95 188.5 C96.16505272 190.08226093 97.3304184 191.66429147 98.49609375 193.24609375 C99.07343262 194.02968262 99.65077148 194.81327148 100.24560547 195.62060547 C102.007296 198.00989519 103.77098098 200.39770073 105.53515625 202.78515625 C112.01554958 211.55958914 118.45515478 220.36099939 124.82641602 229.21508789 C125.33100342 229.91625732 125.83559082 230.61742676 126.35546875 231.33984375 C126.81872559 231.98550293 127.28198242 232.63116211 127.75927734 233.29638672 C128.7656807 234.67826051 129.8091602 236.03307874 130.86328125 237.37890625 C132 239 132 239 132 241 C126.16535211 241.24833166 120.33381392 241.42915883 114.49511719 241.54931641 C112.51215004 241.59942399 110.52954907 241.66753548 108.54785156 241.75439453 C92.11399594 242.45634314 92.11399594 242.45634314 87.03588867 238.95800781 C84.97729592 236.40204826 83.47609102 233.92424859 82 231 C81.1857534 229.84798281 80.35143078 228.70959677 79.48828125 227.59375 C78.77027344 226.5728125 78.05226563 225.551875 77.3125 224.5 C76.46010978 223.29523716 75.6072195 222.090828 74.75390625 220.88671875 C74.30934082 220.25813965 73.86477539 219.62956055 73.40673828 218.98193359 C70.87297436 215.41214958 68.31226831 211.8618559 65.75 208.3125 C65.20947998 207.56355469 64.66895996 206.81460938 64.11206055 206.04296875 C59.43012762 199.56904948 54.69448127 193.13529798 49.93261719 186.7199707 C45.8522633 181.20858361 41.93650786 175.62358265 38 170 C37.67 193.43 37.34 216.86 37 241 C24.79 241 12.58 241 0 241 C0 161.47 0 81.94 0 0 Z " fill="#000000" transform="translate(1210,135)"/>
<path d="M0 0 C3.61088035 3.82402259 6.52622728 7.89207953 9.25 12.3828125 C9.94222656 13.51783203 9.94222656 13.51783203 10.6484375 14.67578125 C19.88305782 31.38204892 20.80028176 52.18168548 16.25 70.3828125 C-19.06 70.3828125 -54.37 70.3828125 -90.75 70.3828125 C-83.69353353 94.48176853 -83.69353353 94.48176853 -65.71484375 110.02734375 C-47.45222731 118.37665588 -26.22421306 117.29187651 -7.625 110.62060547 C-4.32275927 109.37088339 -1.07191621 108.03919834 2.17578125 106.65234375 C4.58033493 105.6593578 6.73777499 104.96735858 9.25 104.3828125 C9.59153092 107.67368094 9.92166646 110.96560327 10.25 114.2578125 C10.39308594 115.63453125 10.39308594 115.63453125 10.5390625 117.0390625 C11.14410312 123.17590303 11.37065893 129.21747625 11.25 135.3828125 C-12.59513962 148.79570354 -45.0117472 151.3042539 -71.1796875 144.23046875 C-88.99236156 139.00896025 -106.43459278 128.23477204 -115.7109375 111.66650391 C-128.75213853 87.56356987 -132.38863742 61.85908639 -125.14794922 35.16308594 C-119.2102304 15.74429915 -106.44046343 -0.44758552 -88.65234375 -10.33984375 C-80.91421377 -14.16659819 -73.25612363 -16.26621492 -64.75 -17.6171875 C-63.41582031 -17.83181641 -63.41582031 -17.83181641 -62.0546875 -18.05078125 C-39.28042145 -20.87144723 -16.92618833 -16.00392807 0 0 Z M-77.9765625 22.54296875 C-83.14711485 28.49781837 -88.75 37.21217765 -88.75 45.3828125 C-65.65 45.3828125 -42.55 45.3828125 -18.75 45.3828125 C-19.88530561 34.02975639 -22.07649739 25.90859264 -30.75 18.3828125 C-45.70168942 9.09848147 -65.03529144 9.98766543 -77.9765625 22.54296875 Z " fill="#000000" transform="translate(1559.75,231.6171875)"/>
<path d="M0 0 C1.83482893 0.00138269 1.83482893 0.00138269 3.70672512 0.00279331 C4.38544924 0.00193889 5.06417335 0.00108446 5.76346487 0.00020415 C8.05442791 -0.00145258 10.34531891 0.00407383 12.63627529 0.00952244 C14.27186996 0.00980429 15.90746475 0.00964661 17.54305935 0.00907993 C21.99741451 0.0087919 26.45174299 0.01468959 30.90609193 0.02165389 C35.55593339 0.02788644 40.20577539 0.02849115 44.85562038 0.0296793 C53.66708568 0.03279291 62.47853863 0.04100669 71.28999847 0.05102879 C81.31884973 0.06218901 91.34770156 0.06770014 101.37655747 0.07272422 C122.01253629 0.08318929 142.64849818 0.10153513 163.28446865 0.12304783 C163.28446865 12.00304783 163.28446865 23.88304783 163.28446865 36.12304783 C142.16446865 36.12304783 121.04446865 36.12304783 99.28446865 36.12304783 C99.28970547 41.81288914 99.29494228 47.50273045 99.30033779 53.36499119 C99.31686829 72.1125603 99.32798852 90.86012968 99.33628082 109.60770416 C99.34144439 120.98025413 99.34848825 132.35279721 99.3599081 143.72534275 C99.36985308 153.63381647 99.37632163 163.54228519 99.37855715 173.45076376 C99.37986457 178.70067688 99.38295241 183.95057572 99.39019871 189.20048428 C99.39695599 194.13581779 99.39908621 199.07113107 99.39757633 204.00646877 C99.39785279 205.82340193 99.39985964 207.64033572 99.40367413 209.4572649 C99.40860683 211.92673071 99.40746852 214.39611889 99.40472317 216.86558628 C99.40763601 217.59417172 99.41054885 218.32275716 99.41354996 219.07342094 C99.39858986 224.00892662 99.39858986 224.00892662 98.28446865 225.12304783 C95.55722587 225.22404271 92.85584342 225.26275312 90.12821865 225.25586033 C88.90201809 225.25729542 88.90201809 225.25729542 87.6510458 225.2587595 C85.91931488 225.25944128 84.18758141 225.25758712 82.45585537 225.25341892 C79.79580383 225.24807062 77.13592115 225.25336395 74.4758749 225.25976658 C72.79748911 225.2591058 71.11910342 225.25782463 69.44071865 225.25586033 C68.63968716 225.25788456 67.83865566 225.25990879 67.01335049 225.26199436 C61.39941944 225.23799862 61.39941944 225.23799862 60.28446865 224.12304783 C60.18678643 221.69455312 60.15450334 219.29453419 60.16421413 216.86558628 C60.16335971 216.09702401 60.16250528 215.32846174 60.16162497 214.53660971 C60.15996784 211.94161997 60.16549531 209.3466938 60.17094326 206.75170994 C60.17122511 204.89936926 60.17106745 203.04702846 60.17050076 201.19468784 C60.17021269 196.14944372 60.17611092 191.10422315 60.18307471 186.05898452 C60.1893067 180.79254413 60.18991193 175.52610327 60.19110012 170.25965977 C60.1942139 160.27946825 60.2024279 150.29928763 60.21244961 140.31910092 C60.22360932 128.96016593 60.22912084 117.60123043 60.23414505 106.24229133 C60.24461048 82.86920411 60.26221081 59.49612658 60.28446865 36.12304783 C59.49742046 36.12526844 58.71037228 36.12748905 57.89947414 36.12977695 C50.49756535 36.14977895 43.09566957 36.16502149 35.69374084 36.17486 C31.88795288 36.18008803 28.08218717 36.18718421 24.27641201 36.19848728 C20.60654321 36.20931903 16.93669587 36.21532527 13.26681232 36.21792507 C11.86371873 36.2197788 10.46062636 36.22339843 9.05754185 36.22877789 C7.09877185 36.23599202 5.13998045 36.23645591 3.18119717 36.23657322 C2.06422955 36.23879383 0.94726192 36.24101444 -0.2035532 36.24330235 C-2.71553135 36.12304783 -2.71553135 36.12304783 -3.71553135 35.12304783 C-3.81640347 32.61380629 -3.85525167 30.13268399 -3.84834385 27.62304783 C-3.84930058 26.87216892 -3.8502573 26.12129002 -3.85124302 25.3476572 C-3.85192473 23.75716156 -3.85007107 22.16666315 -3.84590244 20.57617283 C-3.84055402 18.13340128 -3.84584769 15.69081362 -3.8522501 13.24804783 C-3.85158932 11.70638075 -3.85030815 10.16471379 -3.84834385 8.62304783 C-3.85036808 7.88763767 -3.85239231 7.15222752 -3.85447788 6.3945322 C-3.82552879 0.17334472 -3.82552879 0.17334472 0 0 Z " fill="#000000" transform="translate(565.7155313491821,150.87695217132568)"/>
<path d="M0 0 C14.76772273 12.35825218 21.76905949 29.92865735 24.3125 48.75 C24.45114963 52.15976197 24.43892641 55.56587052 24.42602539 58.97802734 C24.42617142 59.99327484 24.42631744 61.00852234 24.4264679 62.05453491 C24.42577321 65.39835778 24.41800161 68.74212441 24.41015625 72.0859375 C24.40829049 74.40906748 24.40686733 76.73219785 24.40586853 79.05532837 C24.40205578 85.16104219 24.39223609 91.26673212 24.38116455 97.37243652 C24.37092373 103.60636064 24.36636519 109.84028864 24.36132812 116.07421875 C24.35061271 128.29949134 24.33302596 140.52473994 24.3125 152.75 C12.4325 152.75 0.5525 152.75 -11.6875 152.75 C-11.717229 148.68739868 -11.717229 148.68739868 -11.74755859 144.54272461 C-11.81480043 135.54215381 -11.8924327 126.54169351 -11.97502708 117.54125118 C-12.02473604 112.09027024 -12.07106599 106.63930634 -12.109375 101.18823242 C-12.14655157 95.91669474 -12.19299417 90.64530912 -12.24556351 85.37390327 C-12.26393709 83.37395488 -12.27910612 81.3739741 -12.29084396 79.37397575 C-11.65933523 52.45188161 -11.65933523 52.45188161 -23.06640625 29.1796875 C-30.17879812 22.90707202 -39.05830098 21.28849668 -48.34375 21.56640625 C-56.86834562 22.23416624 -64.47777565 23.98351053 -71.6875 28.75 C-72.33660843 29.17650125 -72.98571686 29.60300249 -73.65449524 30.04242802 C-76.85641643 32.4354854 -79.26926136 34.33967364 -80.43132019 38.25820732 C-80.71136421 41.29208907 -80.74282582 44.23846123 -80.6875 47.28491211 C-80.69842178 48.42710205 -80.70934357 49.56929199 -80.72059631 50.74609375 C-80.74722896 54.5074228 -80.71766974 58.26607746 -80.6875 62.02734375 C-80.69501972 64.64052029 -80.70605468 67.25368889 -80.72045898 69.86683655 C-80.74853643 76.03279074 -80.73615173 82.19796531 -80.70903492 88.36389691 C-80.68013295 95.38700995 -80.69663372 102.40979033 -80.71684647 109.43290699 C-80.75739123 123.87216959 -80.73525827 138.31075146 -80.6875 152.75 C-92.8975 152.75 -105.1075 152.75 -117.6875 152.75 C-117.6875 99.95 -117.6875 47.15 -117.6875 -7.25 C-106.7975 -7.25 -95.9075 -7.25 -84.6875 -7.25 C-84.0275 -3.29 -83.3675 0.67 -82.6875 4.75 C-81.470625 3.88375 -80.25375 3.0175 -79 2.125 C-56.68777802 -12.57604345 -22.64124793 -16.71501525 0 0 Z " fill="#000000" transform="translate(1150.6875,223.25)"/>
<path d="M0 0 C12.21 0 24.42 0 37 0 C37.029729 8.91845947 37.029729 8.91845947 37.06005859 18.01708984 C37.12694541 37.6547185 37.20448611 57.29229439 37.28752708 76.92986107 C37.33761755 88.83685399 37.3840609 100.74384015 37.421875 112.65087891 C37.45484868 123.03081978 37.49470961 133.41070763 37.54279006 143.79058993 C37.56800156 149.28502644 37.58979863 154.77942802 37.60334396 160.27390671 C37.61621286 165.44981244 37.63831916 170.62559804 37.66738319 175.80143738 C37.67642129 177.69681623 37.68214036 179.59221441 37.68421364 181.48761368 C36.81277402 196.92262086 36.81277402 196.92262086 42.19921875 210.546875 C45.46289982 212.2401656 48.1673673 212.80816573 51.8125 213.25 C52.97394531 213.39953125 54.13539062 213.5490625 55.33203125 213.703125 C56.21246094 213.80109375 57.09289063 213.8990625 58 214 C58.18956939 220.63492861 57.45561368 226.93984119 56.5 233.5 C56.35691406 234.51320313 56.21382812 235.52640625 56.06640625 236.5703125 C55.71584418 239.04761782 55.36027153 241.52409137 55 244 C23.2098705 245.11288995 23.2098705 245.11288995 11 234 C5.67084664 227.98388546 2.7066861 221.81137101 1 214 C0.82700662 213.30311223 0.65401323 212.60622446 0.47577763 211.88821888 C-0.15232057 208.07533449 -0.13430375 204.31630205 -0.12025452 200.46427917 C-0.12110894 199.60654461 -0.12196337 198.74881004 -0.12284368 197.86508352 C-0.12449019 194.99230979 -0.11899066 192.11959451 -0.11352539 189.24682617 C-0.11324331 187.18700156 -0.11340165 185.12717685 -0.1139679 183.06735229 C-0.11425507 177.47484274 -0.10837118 171.88235458 -0.10139394 166.28985 C-0.09514717 160.44553851 -0.09455555 154.60122654 -0.09336853 148.75691223 C-0.09025913 137.68958423 -0.08205099 126.62226609 -0.07201904 115.55494243 C-0.06084579 102.95530936 -0.05534439 90.35567582 -0.05032361 77.75603902 C-0.03986807 51.83735369 -0.02207498 25.91867781 0 0 Z " fill="#000000" transform="translate(1361,135)"/>
<path d="M0 0 C12.54 0 25.08 0 38 0 C38 74.25 38 148.5 38 225 C25.46 225 12.92 225 0 225 C0 150.75 0 76.5 0 0 Z " fill="#000000" transform="translate(1882,151)"/>
<path d="M0 0 C11.88 0 23.76 0 36 0 C36 52.8 36 105.6 36 160 C24.12 160 12.24 160 0 160 C-1.81994042 158.18005958 -1.12619077 155.33378014 -1.12698364 152.88818359 C-1.12854363 152.24283346 -1.13010362 151.59748333 -1.13171089 150.93257713 C-1.1357225 148.75450785 -1.13253064 146.57650739 -1.12939453 144.3984375 C-1.1307485 142.84328165 -1.13252841 141.28812611 -1.13470459 139.73297119 C-1.13927943 135.4975532 -1.13748916 131.26215946 -1.1343255 127.02674103 C-1.13180216 122.60425244 -1.13413937 118.181766 -1.13571167 113.75927734 C-1.13753344 106.33105088 -1.13512686 98.90283434 -1.13037109 91.47460938 C-1.12492846 82.87394859 -1.12669111 74.2733115 -1.1321975 65.67265129 C-1.13672841 58.30197381 -1.13737929 50.93130349 -1.13475883 43.56062508 C-1.13319593 39.15245296 -1.13300263 34.74429201 -1.13629532 30.33612061 C-1.13917372 26.19281652 -1.13719892 22.04954313 -1.13140106 17.90624237 C-1.13007329 16.38118287 -1.13046786 14.85612081 -1.13266373 13.33106232 C-1.13537459 11.25794488 -1.13199493 9.18492738 -1.12698364 7.11181641 C-1.12660662 5.94889069 -1.12622959 4.78596497 -1.12584114 3.58779907 C-1 1 -1 1 0 0 Z " fill="#000000" transform="translate(960,216)"/>
<path d="M0 0 C12.21 0 24.42 0 37 0 C37 12.54 37 25.08 37 38 C28.1209375 38.0309375 28.1209375 38.0309375 19.0625 38.0625 C17.19215088 38.071604 15.32180176 38.08070801 13.39477539 38.09008789 C11.92073641 38.09300709 10.44669663 38.09555564 8.97265625 38.09765625 C8.20046753 38.10277222 7.42827881 38.10788818 6.63269043 38.11315918 C4.75474813 38.11346974 2.87690747 38.06233569 1 38 C0 37 0 37 -0.11352539 33.48999023 C-0.11327431 31.92951579 -0.1077134 30.3690358 -0.09765625 28.80859375 C-0.09614563 27.7190741 -0.09614563 27.7190741 -0.09460449 26.60754395 C-0.08935716 23.88417999 -0.075396 21.16083847 -0.0625 18.4375 C-0.041875 12.353125 -0.02125 6.26875 0 0 Z " fill="#000000" transform="translate(959,151)"/>
</svg>
