<?xml version="1.0" encoding="UTF-8"?>
<svg version="1.1" xmlns="http://www.w3.org/2000/svg" width="1024" height="1024">
<path d="M0 0 C3.70661082 0.00915513 7.41258938 0.00231961 11.11914062 -0.02050781 C81.66813166 -0.4520985 151.25872584 12.03385231 216.08105469 40.44604492 C217.03351074 40.86321777 217.9859668 41.28039063 218.96728516 41.71020508 C241.1625726 51.50982569 262.47907469 62.63278745 283.08105469 75.44604492 C284.0364917 76.03482422 284.0364917 76.03482422 285.01123047 76.63549805 C295.40430618 83.05649933 305.2470591 90.20897964 315.08105469 97.44604492 C315.78584961 97.96102539 316.49064453 98.47600586 317.21679688 99.0065918 C330.21329673 108.51085569 342.35756462 118.79910561 354.15917969 129.74291992 C356.09674367 131.53542563 358.0446159 133.31685693 360.00292969 135.08666992 C369.88907186 144.03127475 379.71049875 153.22166546 388.32714844 163.41479492 C390.13918832 165.51337118 392.022746 167.53571069 393.91845703 169.55859375 C399.92683142 175.99168731 405.40635674 182.73934774 410.7578125 189.72436523 C412.01969049 191.36620353 413.29394697 192.99744628 414.57324219 194.62573242 C465.44284882 259.79733709 499.7712862 338.40299821 512.39355469 420.13354492 C512.51070831 420.8818457 512.62786194 421.63014648 512.74856567 422.40112305 C513.62459778 428.07117314 514.37141711 433.75300575 515.08105469 439.44604492 C515.21309296 440.4649884 515.34513123 441.48393188 515.48117065 442.53375244 C518.1747285 463.82066658 518.58242683 484.93209653 518.52709961 506.36499023 C518.51794448 510.07160106 518.52478 513.77757962 518.54760742 517.48413086 C518.97919811 588.03312189 506.4932473 657.62371607 478.08105469 722.44604492 C477.66388184 723.39850098 477.24670898 724.35095703 476.81689453 725.33227539 C467.01727392 747.52756283 455.89431216 768.84406492 443.08105469 789.44604492 C442.68853516 790.08300293 442.29601562 790.71996094 441.89160156 791.3762207 C435.47060028 801.76929641 428.31811997 811.61204933 421.08105469 821.44604492 C420.56607422 822.15083984 420.05109375 822.85563477 419.52050781 823.58178711 C410.01624392 836.57828696 399.727994 848.72255485 388.78417969 860.52416992 C386.99167397 862.4617339 385.21024268 864.40960614 383.44042969 866.36791992 C374.49582486 876.2540621 365.30543415 886.07548898 355.11230469 894.69213867 C353.01372843 896.50417855 350.99138892 898.38773623 348.96850586 900.28344727 C342.5354123 906.29182165 335.78775187 911.77134697 328.80273438 917.12280273 C327.16089607 918.38468072 325.52965333 919.6589372 323.90136719 920.93823242 C258.72976252 971.80783906 180.1241014 1006.13627644 98.39355469 1018.75854492 C97.64525391 1018.87569855 96.89695312 1018.99285217 96.12597656 1019.11355591 C90.45592647 1019.98958801 84.77409386 1020.73640735 79.08105469 1021.44604492 C78.06211121 1021.57808319 77.04316772 1021.71012146 75.99334717 1021.84616089 C54.70643303 1024.53971874 33.59500308 1024.94741706 12.16210938 1024.89208984 C8.45549855 1024.88293472 4.74951999 1024.88977024 1.04296875 1024.91259766 C-69.50602229 1025.34418834 -139.09661646 1012.85823754 -203.91894531 984.44604492 C-204.87140137 984.02887207 -205.82385742 983.61169922 -206.80517578 983.18188477 C-229.00046322 973.38226415 -250.31696532 962.25930239 -270.91894531 949.44604492 C-271.55590332 949.05352539 -272.19286133 948.66100586 -272.84912109 948.2565918 C-283.2421968 941.83559052 -293.08494972 934.68311021 -302.91894531 927.44604492 C-303.62374023 926.93106445 -304.32853516 926.41608398 -305.0546875 925.88549805 C-318.05118735 916.38123415 -330.19545524 906.09298423 -341.99707031 895.14916992 C-343.93463429 893.35666421 -345.88250653 891.57523291 -347.84082031 889.80541992 C-357.72696249 880.86081509 -367.54838937 871.67042438 -376.16503906 861.47729492 C-377.97707894 859.37871867 -379.86063662 857.35637916 -381.75634766 855.33349609 C-387.76472204 848.90040253 -393.24424736 842.1527421 -398.59570312 835.16772461 C-399.85758112 833.52588631 -401.13183759 831.89464357 -402.41113281 830.26635742 C-453.28073945 765.09475275 -487.60917683 686.48909164 -500.23144531 604.75854492 C-500.40717575 603.63609375 -500.40717575 603.63609375 -500.5864563 602.4909668 C-501.4624884 596.82091671 -502.20930774 591.1390841 -502.91894531 585.44604492 C-503.05098358 584.42710144 -503.18302185 583.40815796 -503.31906128 582.3583374 C-506.01261913 561.07142326 -506.42031745 539.95999332 -506.36499023 518.52709961 C-506.35583511 514.82048879 -506.36267063 511.11451023 -506.38549805 507.40795898 C-506.81708873 436.85896795 -494.33113793 367.26837377 -465.91894531 302.44604492 C-465.50177246 301.49358887 -465.08459961 300.54113281 -464.65478516 299.55981445 C-454.85516454 277.36452701 -443.73220278 256.04802492 -430.91894531 235.44604492 C-430.33016602 234.49060791 -430.33016602 234.49060791 -429.72949219 233.51586914 C-423.30849091 223.12279343 -416.1560106 213.28004051 -408.91894531 203.44604492 C-408.40396484 202.74125 -407.88898438 202.03645508 -407.35839844 201.31030273 C-397.85413454 188.31380288 -387.56588462 176.16953499 -376.62207031 164.36791992 C-374.8295646 162.43035594 -373.0481333 160.48248371 -371.27832031 158.52416992 C-362.33371549 148.63802774 -353.14332477 138.81660086 -342.95019531 130.19995117 C-340.85161906 128.38791129 -338.82927955 126.50435361 -336.80639648 124.60864258 C-330.37330293 118.60026819 -323.62564249 113.12074287 -316.640625 107.76928711 C-314.9987867 106.50740912 -313.36754396 105.23315264 -311.73925781 103.95385742 C-246.56765314 53.08425079 -167.96199203 18.75581341 -86.23144531 6.13354492 C-85.10899414 5.95781448 -85.10899414 5.95781448 -83.96386719 5.77853394 C-78.2938171 4.90250183 -72.61198449 4.1556825 -66.91894531 3.44604492 C-65.39053009 3.24798752 -65.39053009 3.24798752 -63.83123779 3.04592896 C-42.54432365 0.35237111 -21.43289371 -0.05532722 0 0 Z " fill="#FED400" transform="translate(505.9189453125,-0.446044921875)"/>
<path d="M0 0 C1.88769531 0.29516602 1.88769531 0.29516602 4 1 C5.44839724 3.64175062 6.61137553 6.16148523 7.75 8.9375 C8.53797636 10.77242247 9.32995734 12.60562817 10.125 14.4375 C10.57230469 15.47132813 11.01960938 16.50515625 11.48046875 17.5703125 C14.11402626 23.51443459 16.92162458 29.37611133 19.71096802 35.24832153 C26.42792222 49.40054374 32.92665698 63.63529762 39.29554749 77.94787598 C42.85397427 85.93331243 46.47357897 93.89112238 50.08398438 101.85314941 C56.21835933 115.3818112 62.31470027 128.92535039 68.32189941 142.51098633 C73.36729186 153.91487891 78.44201986 165.30525569 83.67001343 176.62683105 C84.52555259 178.48236663 85.37390291 180.3412117 86.22192383 182.20019531 C92.48477431 195.66757736 99.04078758 207.90691313 113.37939453 213.74682617 C131.22955589 219.92517265 150.54317017 222.06268157 169.14570618 224.96406555 C171.40912879 225.31783427 173.67209149 225.67441684 175.93493652 226.03186035 C204.12915867 230.4840711 232.36795742 234.5881988 260.63793945 238.53063965 C269.84300841 239.815713 279.04648531 241.1119676 288.24890137 242.41589355 C291.40794314 242.86200012 294.56769127 243.30280886 297.72753906 243.74316406 C299.64131008 244.01343095 301.55504894 244.28392569 303.46875 244.5546875 C304.74748993 244.73072006 304.74748993 244.73072006 306.05206299 244.91030884 C311.14193627 245.63705925 316.03177095 246.67243105 321 248 C320.48193544 252.07376401 319.4834451 254.01597148 316.59034729 256.90412903 C315.85983154 257.64303375 315.1293158 258.38193848 314.37666321 259.14323425 C313.56988632 259.93877213 312.76310944 260.73431 311.93188477 261.55395508 C311.08639069 262.40324585 310.24089661 263.25253662 309.36978149 264.12756348 C307.05269921 266.45078251 304.72691949 268.7648338 302.39663815 271.07480073 C299.96064575 273.49321429 297.53521516 275.9221779 295.10838318 278.34977722 C291.03371448 282.42257403 286.95137993 286.48755583 282.86401367 290.54760742 C278.13406504 295.24606427 273.4146924 299.95493401 268.70119816 304.66989404 C264.16921091 309.2031004 259.63154329 313.73057312 255.09065056 318.25485802 C253.15650657 320.1819294 251.22408088 322.11070023 249.29294014 324.04078102 C246.59946334 326.72994436 243.89951874 329.41243095 241.19750977 332.09301758 C240.39275711 332.89867661 239.58800446 333.70433563 238.75886536 334.53440857 C238.02552979 335.25921417 237.29219421 335.98401978 236.53663635 336.73078918 C235.89821084 337.36586301 235.25978533 338.00093683 234.60201359 338.65525532 C233 340 233 340 231 340 C231 340.66 231 341.32 231 342 C229.56626892 343.41867065 229.56626892 343.41867065 227.56225586 345.07763672 C222.83226829 349.10295095 218.41508702 353.38821803 214.00390625 357.7578125 C213.17092514 358.58272186 212.33794403 359.40763123 211.47972107 360.25753784 C209.72777092 361.99573542 207.97731005 363.73543521 206.22827148 365.4765625 C204.45735675 367.23596199 202.68198624 368.99088836 200.90209961 370.74121094 C186.60825823 384.77202575 186.60825823 384.77202575 175 401 C174.5359375 401.74056641 174.071875 402.48113281 173.59375 403.24414062 C167.7580211 413.99883696 171.30950869 429.30774112 173.125 440.75 C173.3537431 442.24161452 173.58191856 443.73331618 173.80957031 445.22509766 C175.92949998 458.99310722 178.27626323 472.72331334 180.6796875 486.44424438 C181.83185669 493.02335436 182.96838483 499.6050945 184.1015625 506.1875 C187.94169459 528.47741699 191.83198215 550.75711987 195.82006836 573.02105713 C197.94024476 584.86719219 200.00331942 596.71508426 201.80981445 608.61401367 C202.55026659 613.45106343 203.43944163 618.19252076 204.60742188 622.94604492 C205.25288945 626.32310879 205.12464907 629.57215044 205 633 C202.51057307 633.92412954 201.37288812 634.14688887 198.86303711 633.15820312 C198.0922583 632.70380859 197.32147949 632.24941406 196.52734375 631.78125 C195.64208008 631.26900879 194.75681641 630.75676758 193.84472656 630.22900391 C192.8853418 629.65843262 191.92595703 629.08786133 190.9375 628.5 C188.84837253 627.28782718 186.75849841 626.07694048 184.66796875 624.8671875 C183.57403809 624.23006836 182.48010742 623.59294922 181.35302734 622.93652344 C175.85753545 619.76263078 170.30360422 616.69570238 164.75 613.625 C162.46082623 612.3556694 160.17176456 611.08613662 157.8828125 609.81640625 C156.17399902 608.86918701 156.17399902 608.86918701 154.43066406 607.90283203 C151.05404933 606.02997868 147.6790548 604.15424293 144.3046875 602.27734375 C113.05521453 584.87986547 113.05521453 584.87986547 81.625 567.8125 C67.75599831 560.37251703 53.92340494 552.8385362 40.47265625 544.66015625 C39.58239746 544.11891113 38.69213867 543.57766602 37.77490234 543.02001953 C36.11808359 542.00666804 34.46561219 540.9861527 32.81884766 539.95654297 C20.0652617 532.12270547 5.96848906 527.47242691 -9.02075195 530.63793945 C-18.72331971 533.14353627 -27.13521905 537.2531305 -35.9375 541.9375 C-37.40036588 542.7043632 -38.86358731 543.47054851 -40.32714844 544.23608398 C-50.39729867 549.52507406 -60.3399339 555.02584047 -70.203125 560.69140625 C-76.921646 564.54646828 -83.71125151 568.27072976 -90.5 572 C-99.262908 576.81663534 -107.99719934 581.67810827 -116.6875 586.625 C-124.7711049 591.22399835 -132.92422925 595.67604122 -141.125 600.0625 C-150.70787594 605.1897963 -160.17925967 610.47619165 -169.59765625 615.8984375 C-175.8770667 619.5119603 -182.18505761 623.0740127 -188.5 626.625 C-189.56935791 627.22957031 -190.63871582 627.83414063 -191.74047852 628.45703125 C-192.74393311 629.02035156 -193.7473877 629.58367188 -194.78125 630.1640625 C-195.66876953 630.66373535 -196.55628906 631.1634082 -197.47070312 631.67822266 C-199.93304281 632.96500905 -202.40324118 634.01717462 -205 635 C-206.26481181 630.55516554 -205.65656559 627.28446071 -204.6640625 622.80859375 C-204.34300358 621.31929265 -204.02213134 619.8299513 -203.70141602 618.34057617 C-203.52667755 617.54638275 -203.35193909 616.75218933 -203.17190552 615.93392944 C-199.51930227 599.2610929 -196.4240005 582.51222578 -193.5625 565.6875 C-192.80611481 561.24867657 -192.04959523 556.80987605 -191.29296875 552.37109375 C-191.10457428 551.26460983 -190.91617981 550.15812592 -190.72207642 549.01811218 C-188.68369611 537.0814271 -186.53378323 525.16539345 -184.375 513.25 C-181.74391425 498.70404704 -179.12386929 484.15647835 -176.56964111 469.59680176 C-176.28110625 467.95225207 -175.99203499 466.30779638 -175.70233154 464.66345215 C-174.78360681 459.44529365 -173.88087378 454.22468569 -173 449 C-172.86193939 448.18132446 -172.72387878 447.36264893 -172.58163452 446.51916504 C-172.15858869 443.98906103 -171.74395898 441.45771716 -171.33203125 438.92578125 C-171.1409227 437.78243065 -171.1409227 437.78243065 -170.94595337 436.61598206 C-168.32267103 420.23678864 -169.67706692 406.0576522 -178.90649414 391.87646484 C-182.44174308 387.01905341 -186.62670541 382.91526889 -190.9375 378.75 C-191.79279297 377.904375 -192.64808594 377.05875 -193.52929688 376.1875 C-197.95148879 371.8428904 -202.47087374 367.66808817 -207.16625977 363.62207031 C-210.07842854 361.04605522 -212.78403423 358.27968345 -215.5 355.5 C-219.50655128 351.44295803 -223.5588933 347.560008 -227.91015625 343.87109375 C-231.22817811 340.90037886 -234.32967822 337.71343417 -237.43774414 334.52514648 C-240.07158 331.84478117 -242.7659082 329.31467957 -245.625 326.875 C-251.94668003 321.40662659 -257.71358443 315.34198022 -263.58203125 309.39746094 C-268.90343594 304.01333498 -274.22145163 298.7105046 -279.984375 293.79296875 C-285.31635263 289.04998865 -290.21484856 283.81793697 -295.22265625 278.73828125 C-299.75518096 274.16617117 -304.32512742 269.7364934 -309.21337891 265.54638672 C-311.88971347 263.22992005 -314.41312454 260.79438947 -316.9375 258.3125 C-317.87464844 257.40113281 -318.81179688 256.48976563 -319.77734375 255.55078125 C-321.83252233 253.19220197 -322.66462176 252.04694698 -323 249 C-318.32479424 246.7996569 -313.59421405 246.14221467 -308.53515625 245.37109375 C-307.58043427 245.22100861 -306.62571228 245.07092346 -305.64205933 244.91629028 C-302.44985609 244.41679481 -299.25629092 243.92673445 -296.0625 243.4375 C-293.77871286 243.08399572 -291.49494041 242.73039654 -289.21118164 242.37670898 C-255.22795594 237.13607347 -221.20114064 232.16880411 -187.125 227.5703125 C-186.01076755 227.41970651 -186.01076755 227.41970651 -184.87402534 227.26605797 C-177.64715644 226.28924251 -170.41989463 225.31591107 -163.18996334 224.36200047 C-151.08899818 222.76289873 -139.00096921 221.14141547 -126.99609375 218.91796875 C-126.16444199 218.76740524 -125.33279022 218.61684174 -124.47593689 218.4617157 C-117.91213975 217.184931 -112.45771398 214.92677053 -107 211 C-106.36449219 210.58363281 -105.72898437 210.16726563 -105.07421875 209.73828125 C-94.28770237 201.77395763 -88.63312656 185.55794104 -83 173.8125 C-82.1660522 172.08559983 -81.33173579 170.35887763 -80.49707031 168.63232422 C-77.98523199 163.42765332 -75.48955724 158.21536007 -73 153 C-72.63076416 152.22674377 -72.26152832 151.45348755 -71.88110352 150.65679932 C-63.88277809 133.89275629 -56.08261755 117.04513229 -48.43991089 100.11624146 C-43.48387709 89.14638162 -38.33003296 78.28625694 -33.06030273 67.46411133 C-29.25720401 59.64307084 -25.55893328 51.78169624 -21.9375 43.875 C-17.95679944 35.19696553 -13.92584189 26.54548289 -9.80300903 17.93414307 C-8.95755516 16.16692059 -8.11629896 14.39769184 -7.27514648 12.62841797 C-6.50279663 11.02184326 -6.50279663 11.02184326 -5.71484375 9.3828125 C-5.26230225 8.43809082 -4.80976074 7.49336914 -4.34350586 6.52001953 C-3.07592923 4.14242078 -1.67992186 2.10075014 0 0 Z " fill="#FAFAFA" transform="translate(512,180)"/>
<path d="M0 0 C10.26356271 6.72764019 15.23774725 16.19868526 19.9375 27.2421875 C20.77200257 29.16000875 21.61159976 31.07554744 22.45159912 32.9909668 C23.04689507 34.34861461 23.64082345 35.7068628 24.23345947 37.06567383 C27.54083685 44.633562 31.00389255 52.12856349 34.46878052 59.62530518 C39.88289661 71.34181558 45.246253 83.07778257 50.5 94.8671875 C61.83872308 120.27946705 73.60729134 145.49793649 85.49731445 170.65625 C88.94452757 177.95540692 92.34618312 185.27145747 95.67700195 192.62475586 C97.77904778 197.259628 99.91195444 201.87964425 102.0625 206.4921875 C102.43310547 207.29317871 102.80371094 208.09416992 103.18554688 208.91943359 C104.20036693 211.08349607 105.24811711 213.22715979 106.3125 215.3671875 C106.87453125 216.51960937 107.4365625 217.67203125 108.015625 218.859375 C112.53224719 224.66892338 122.46182647 224.37727874 129.3203125 225.3046875 C130.54265594 225.4743251 131.76499939 225.64396271 133.02438354 225.81874084 C135.68086527 226.18702765 138.33751996 226.55357988 140.99462891 226.91726685 C147.47791824 227.80504364 153.95895937 228.70902467 160.44017792 229.61177254 C161.95128668 229.82218185 163.46242079 230.03240927 164.97357941 230.24246025 C181.29045884 232.51058495 197.59437508 234.86508423 213.89612579 237.23918915 C220.37332833 238.18249189 226.85069709 239.12465242 233.328125 240.06640625 C234.03010136 240.16849648 234.73207771 240.2705867 235.45532608 240.37577057 C245.62926601 241.85491863 255.80565552 243.31581078 265.984375 244.76171875 C267.25059692 244.94172928 268.51681885 245.12173981 269.82141113 245.3072052 C275.70213377 246.14279868 281.58319023 246.97591666 287.46484375 247.80493164 C292.62663736 248.5345777 297.78624536 249.27798942 302.9440918 250.03503418 C305.09553623 250.35043226 307.24742183 250.66283046 309.3996582 250.97277832 C312.75276821 251.45913943 316.10305052 251.9619445 319.453125 252.46875 C320.95767242 252.68366592 320.95767242 252.68366592 322.49261475 252.90292358 C333.70684057 254.63849488 343.6012991 257.450778 350.75 266.66796875 C357.81396211 276.77147224 358.38490188 287.36252837 356.65625 299.296875 C354.93736683 304.84587828 351.20325597 308.75510089 347.28125 312.890625 C346.67864349 313.53076538 346.07603699 314.17090576 345.45516968 314.83044434 C337.01864406 323.72801149 328.32653736 332.37871221 319.64697266 341.03808594 C317.16278238 343.51652435 314.68318777 345.99950496 312.20484352 348.48378754 C309.79785632 350.89528149 307.38704091 353.30293325 304.9765625 355.7109375 C304.09932526 356.59019897 303.22208801 357.46946045 302.31826782 358.37536621 C301.48314667 359.20733521 300.64802551 360.0393042 299.78759766 360.89648438 C299.06593414 361.61735229 298.34427063 362.33822021 297.60073853 363.08093262 C295.56280675 365.01691022 293.49654694 366.86140352 291.36997986 368.6966095 C286.54429533 372.89343643 281.98321625 377.34086653 277.41772461 381.81713867 C276.02367905 383.17964249 276.02367905 383.17964249 274.60147095 384.56967163 C266.10154538 392.88328676 257.64234142 401.23849771 249.19425106 409.60474682 C243.52642797 415.21645994 237.8468016 420.81507003 232.13598633 426.38305664 C227.1331714 431.26075814 222.15372436 436.16093205 217.20117956 441.08968717 C214.58540871 443.69141864 211.95974434 446.28087964 209.30586052 448.84377098 C206.34846857 451.70075322 203.44477374 454.60708197 200.54272461 457.52026367 C199.22370399 458.77153297 199.22370399 458.77153297 197.8780365 460.04808044 C193.40561736 464.60346845 193.40561736 464.60346845 191.74212551 470.59124947 C191.97500484 473.64236969 192.43166465 476.50046462 193.0625 479.4921875 C193.32201584 481.28458028 193.57423807 483.07806368 193.81518555 484.87304688 C194.10523466 486.69475341 194.40007909 488.51570162 194.69921875 490.3359375 C194.85892151 491.33023773 195.01862427 492.32453796 195.1831665 493.34896851 C195.70087228 496.56413306 196.22520396 499.7781733 196.75 502.9921875 C197.11623643 505.25402537 197.48220012 507.51590741 197.84790039 509.77783203 C198.91242007 516.35043658 199.98647501 522.92145834 201.0625 529.4921875 C201.335323 531.16242893 201.60811277 532.83267578 201.88085938 534.50292969 C205.10893602 554.2428504 208.51878146 573.95059437 211.94729614 593.65655518 C215.41529906 613.5971574 218.76487128 633.5563154 222.0559082 653.52685547 C222.40939859 655.66638567 222.76315036 657.8058727 223.1171875 659.9453125 C223.28471527 660.95927094 223.45224304 661.97322937 223.62484741 663.01791382 C224.80012691 670.07242773 226.09570788 677.09478916 227.50854492 684.10546875 C229.51454299 696.36955212 228.5765601 708.47643604 221.25 718.8671875 C215.1407962 726.24722818 207.73319764 732.04496422 198.0625 733.4921875 C195.20738817 733.72839384 192.36381571 733.81392973 189.5 733.8671875 C188.39688477 733.92326172 188.39688477 733.92326172 187.27148438 733.98046875 C175.10194019 734.16849604 164.08753756 726.56818994 153.6875 720.9296875 C152.35658278 720.21321637 151.02544332 719.49715793 149.6940918 718.78149414 C146.40849832 717.0132597 143.12673659 715.23806569 139.84674072 713.45947266 C138.22186524 712.57858371 136.59608864 711.69935748 134.97021484 710.8203125 C121.96343744 703.78545677 109.03992304 696.60176456 96.1171875 689.4140625 C88.95745483 685.43227628 81.7950523 681.45536675 74.625 677.4921875 C73.72402084 676.99415115 73.72402084 676.99415115 72.80484009 676.48605347 C63.80581562 671.5159838 54.76061721 666.63794697 45.6875 661.8046875 C37.16636308 657.26473266 28.70278158 652.64479591 20.3125 647.8671875 C12.20591453 643.25231765 4.06521307 638.70722236 -4.125 634.2421875 C-5.65882324 633.39986572 -5.65882324 633.39986572 -7.22363281 632.54052734 C-8.17463867 632.02441895 -9.12564453 631.50831055 -10.10546875 630.9765625 C-10.94360107 630.51991211 -11.7817334 630.06326172 -12.64526367 629.59277344 C-18.43020112 626.8152148 -25.06073733 626.46405956 -31.25 628.10546875 C-33.88233266 629.11482604 -36.39757536 630.26783156 -38.9375 631.4921875 C-39.99453125 631.99363281 -41.0515625 632.49507812 -42.140625 633.01171875 C-59.44584541 641.38888911 -76.48290703 650.64683957 -93.109375 660.296875 C-98.61482341 663.47690622 -104.18932354 666.53519153 -109.75 669.6171875 C-118.76366115 674.6139724 -127.76413212 679.63300358 -136.75 684.6796875 C-145.3921364 689.5309502 -154.07227928 694.30566314 -162.78393555 699.03076172 C-169.25296579 702.5487512 -175.66372239 706.16080092 -182.0625 709.8046875 C-190.29193293 714.46907711 -198.54333578 719.09319453 -206.85198975 723.61508179 C-208.63354035 724.58772797 -210.40892075 725.57164932 -212.18408203 726.5559082 C-222.015271 731.87405754 -231.13531749 735.08549718 -242.375 734.9921875 C-243.19194336 734.98646729 -244.00888672 734.98074707 -244.85058594 734.97485352 C-253.72435226 734.7147362 -261.1889361 732.32071941 -267.875 726.3046875 C-277.56557059 715.50053056 -277.57122048 703.34322998 -277.13079834 689.6449585 C-276.5549583 680.25278374 -274.55389889 671.02169748 -272.75 661.8046875 C-272.33045244 659.58068066 -271.91282685 657.35631045 -271.49707031 655.1315918 C-270.50156824 649.82465833 -269.48635835 644.52178178 -268.46270752 639.22021484 C-267.3459804 633.41972263 -266.2660903 627.61237729 -265.1875 621.8046875 C-264.99494629 620.77754639 -264.80239258 619.75040527 -264.60400391 618.69213867 C-262.9119295 609.58035433 -261.46594708 600.4334885 -260.01806641 591.28027344 C-258.17122919 579.68025233 -256.13079076 568.11704314 -254.0625 556.5546875 C-253.89316956 555.60761932 -253.72383911 554.66055115 -253.54937744 553.68478394 C-252.86222365 549.84257619 -252.17469186 546.00043639 -251.48657227 542.15840149 C-249.79489787 532.70864565 -248.12085283 523.25583816 -246.46063232 513.80050659 C-246.15693816 512.07260472 -245.8524719 510.34483834 -245.54718018 508.61721802 C-245.12460843 506.22560992 -244.70455779 503.83357204 -244.28515625 501.44140625 C-244.16260971 500.75068024 -244.04006317 500.05995422 -243.9138031 499.34829712 C-242.73566127 492.59429392 -241.78637639 485.85493087 -241.625 478.9921875 C-241.58761719 477.950625 -241.55023438 476.9090625 -241.51171875 475.8359375 C-242.83998544 465.40477888 -250.97921126 458.91373204 -258.0703125 451.93359375 C-259.27130047 450.73753554 -260.47147303 449.54065805 -261.67086792 448.34300232 C-264.17481942 445.84665903 -266.68505814 443.35689247 -269.20068359 440.87231445 C-272.42856966 437.68419428 -275.64541818 434.48522353 -278.85830879 431.28199863 C-281.92544964 428.22481127 -284.99753144 425.17261054 -288.0703125 422.12109375 C-288.65685734 421.53794466 -289.24340218 420.95479557 -289.8477211 420.3539753 C-291.50141372 418.71182614 -293.15853055 417.07322092 -294.81689453 415.43579102 C-295.30835968 414.94701477 -295.79982483 414.45823853 -296.30618286 413.95465088 C-298.88352541 411.40479286 -298.88352541 411.40479286 -301.9375 409.4921875 C-301.9375 408.8321875 -301.9375 408.1721875 -301.9375 407.4921875 C-302.81445086 407.10300408 -302.81445086 407.10300408 -303.70911789 406.70595837 C-306.10186791 405.40265843 -307.67286574 404.00044184 -309.59161377 402.07185364 C-310.30075424 401.36401733 -311.00989471 400.65618103 -311.74052429 399.92689514 C-312.89231926 398.76195778 -312.89231926 398.76195778 -314.06738281 397.57348633 C-314.88417007 396.75538483 -315.70095734 395.93728333 -316.54249573 395.09439087 C-319.24649192 392.3838948 -321.94344558 389.66649671 -324.640625 386.94921875 C-326.52095661 385.06261548 -328.40172594 383.17645987 -330.28314209 381.29093933 C-334.73615505 376.82654701 -339.18447421 372.35751137 -343.63076186 367.88642186 C-351.57496791 359.89796019 -359.52461878 351.91492713 -367.47967219 343.93726748 C-370.71453556 340.69271071 -373.94483345 337.44365059 -377.1741333 334.19355774 C-378.87931661 332.48154079 -380.58461267 330.76963613 -382.29003906 329.05786133 C-383.04980545 328.29135757 -383.80957184 327.52485382 -384.59236145 326.73512268 C-388.68994417 322.62891926 -392.87703063 318.70839303 -397.29734421 314.95041943 C-403.86826947 309.10833233 -407.43550589 300.77242181 -408.25390625 292.1640625 C-408.62621876 281.06674774 -406.03312132 273.05072478 -398.8984375 264.53125 C-387.78785294 252.97801267 -370.32565804 252.82279217 -355.25390625 250.63671875 C-353.45172432 250.3718486 -351.64960167 250.10657481 -349.84753418 249.84092712 C-345.05660384 249.13586353 -340.26486474 248.43645484 -335.47291946 247.73832703 C-330.4657916 247.00797137 -325.45938228 246.2727212 -320.45288086 245.53808594 C-312.52501074 244.37543631 -304.59668459 243.21594961 -296.66796875 242.05908203 C-289.02117516 240.94334278 -281.37509219 239.82293036 -273.72975159 238.69728088 C-254.3921423 235.85034697 -235.05012214 233.04448969 -215.68496513 230.39091492 C-213.4137932 230.07969393 -211.14268968 229.76797765 -208.87159729 229.45617676 C-202.23405848 228.54547173 -195.5962324 227.63729135 -188.95645237 226.74305534 C-186.90049327 226.46547937 -184.84485275 226.18566608 -182.7893219 225.90493774 C-180.27249392 225.56145656 -177.75513452 225.22183836 -175.23716736 224.8868103 C-165.32702924 224.12626433 -165.32702924 224.12626433 -157.11499023 219.48071289 C-156.68387939 218.67110107 -156.25276855 217.86148926 -155.80859375 217.02734375 C-155.32116699 216.1264502 -154.83374023 215.22555664 -154.33154297 214.29736328 C-152.13410751 209.87555357 -150.01211047 205.43924161 -148 200.9296875 C-147.53674316 199.90649414 -147.07348633 198.88330078 -146.59619141 197.82910156 C-145.03790726 194.38587036 -143.4876859 190.93907145 -141.9375 187.4921875 C-139.56866181 182.23939623 -137.19167137 176.99030498 -134.8125 171.7421875 C-134.34336182 170.70620422 -134.34336182 170.70620422 -133.86474609 169.64929199 C-128.51404218 157.84189938 -122.99348461 146.12062504 -117.42251587 134.41586304 C-111.74598598 122.47594125 -106.33451188 110.43717389 -101.0244751 98.33053589 C-95.07355561 84.7895827 -88.70214239 71.47697597 -82.13891602 58.22290039 C-78.33557917 50.52728925 -74.70903624 42.7974543 -71.30952454 34.91459656 C-64.62851971 19.47561265 -56.76970529 5.93332398 -40.9375 -1.5078125 C-26.9289441 -7.04567758 -13.54560388 -6.95292965 0 0 Z M-23.9375 49.4921875 C-29.65949318 56.57714914 -33.14946538 65.80277313 -37.0625 73.9921875 C-37.72713365 75.37467064 -38.39193135 76.75707493 -39.05688477 78.1394043 C-43.56589571 87.53322824 -47.9737303 96.97191435 -52.3137207 106.44506836 C-56.72819559 116.07684915 -61.25198116 125.65511596 -65.78012085 135.23376465 C-70.37679035 144.96507678 -74.87387136 154.7349012 -79.28640747 164.55093384 C-86.15510445 179.82481113 -93.40546559 194.89510937 -100.79785156 209.92211914 C-101.19850327 210.73669083 -101.59915497 211.55126251 -102.01194763 212.39051819 C-102.80641386 214.00570806 -103.60121965 215.62073097 -104.39637756 217.23558044 C-107.64452314 223.85037041 -110.80382474 230.5055083 -113.91427612 237.18612671 C-119.53225255 249.17205095 -126.08460975 259.60352041 -138.57041931 265.29425049 C-142.82675428 266.80856561 -147.06963407 267.63946235 -151.50610352 268.45214844 C-152.430412 268.62437298 -153.35472048 268.79659752 -154.30703831 268.97404099 C-164.05019522 270.75334702 -173.83788748 272.12888024 -183.65234375 273.4453125 C-185.58365284 273.70877833 -187.51488466 273.97281119 -189.44604492 274.23736572 C-193.50204933 274.79219684 -197.55844413 275.34402965 -201.61520386 275.89331055 C-212.17251264 277.32339094 -222.72675097 278.77591903 -233.28125 280.2265625 C-234.31849653 280.36896362 -235.35574306 280.51136475 -236.42442131 280.65808105 C-261.29196473 284.073067 -286.12745113 287.68056495 -310.9375 291.4921875 C-312.63964498 291.75230124 -314.34179336 292.01239283 -316.04394531 292.27246094 C-319.85815502 292.85672349 -323.67104751 293.4488202 -327.48269653 294.04956055 C-329.40007562 294.35145428 -331.31806461 294.64946689 -333.23608398 294.94726562 C-334.33509033 295.12451172 -335.43409668 295.30175781 -336.56640625 295.484375 C-337.49525635 295.63245605 -338.42410645 295.78053711 -339.38110352 295.93310547 C-342.05617791 296.51814227 -344.42826385 297.40584251 -346.9375 298.4921875 C-345.66379745 302.16149447 -344.28619708 304.51401819 -341.5234375 307.234375 C-340.84410156 307.90855469 -340.16476562 308.58273437 -339.46484375 309.27734375 C-338.39943359 310.31181641 -338.39943359 310.31181641 -337.3125 311.3671875 C-336.62542969 312.04910156 -335.93835938 312.73101562 -335.23046875 313.43359375 C-331.93203906 316.68251605 -328.58551314 319.83046662 -325.0703125 322.84375 C-318.95147552 328.13072546 -313.38807612 333.99927887 -307.71484375 339.75390625 C-303.91368526 343.58826263 -300.14002028 347.39240005 -296.03125 350.8984375 C-289.78572808 356.2472313 -284.12841402 362.24694681 -278.35546875 368.09472656 C-272.94273695 373.57125607 -267.53422351 378.97809285 -261.671875 383.98046875 C-258.95475282 386.34877119 -256.45209174 388.91269205 -253.9375 391.4921875 C-250.7158726 394.75805007 -247.50203421 397.96073249 -244 400.9296875 C-240.27792282 404.09228753 -236.86884196 407.52189728 -233.4375 410.9921875 C-230.04744146 414.42063855 -226.68555992 417.81479492 -223 420.9296875 C-209.54023124 432.47072326 -197.44444935 444.46234199 -193.9375 462.4921875 C-193.76779696 465.15655934 -193.66633789 467.72940927 -193.6796875 470.390625 C-193.68262314 471.12970093 -193.68555878 471.86877686 -193.68858337 472.63024902 C-193.81719028 480.56815584 -195.0728896 488.20124045 -196.5 495.9921875 C-196.77077712 497.53108419 -197.04010592 499.07023631 -197.30810547 500.60961914 C-197.87710559 503.8687046 -198.45345729 507.12637174 -199.03466797 510.38330078 C-199.9711392 515.65287304 -200.86585979 520.92911192 -201.75390625 526.20703125 C-202.05847186 528.01302767 -202.3630778 529.81901728 -202.66772461 531.625 C-202.81692352 532.50961914 -202.96612244 533.39423828 -203.11984253 534.30566406 C-203.26591949 535.1715918 -203.41199646 536.03751953 -203.5625 536.9296875 C-203.77206833 538.17274658 -203.77206833 538.17274658 -203.98587036 539.44091797 C-205.66321585 549.36355627 -207.44683531 559.25841736 -209.35115051 569.13999939 C-211.37879198 579.70794296 -213.2387902 590.30549838 -215.11401367 600.90133667 C-218.30644828 618.92618398 -221.52959708 636.94419942 -224.9375 654.9296875 C-225.07902496 655.67887451 -225.22054993 656.42806152 -225.36636353 657.19995117 C-227.7396132 669.74209743 -227.7396132 669.74209743 -229.1484375 675.7734375 C-229.88095563 679.22570114 -230.00798261 681.1736914 -228.9375 684.4921875 C-225.06829644 683.03890076 -221.52857217 681.25504497 -217.9140625 679.25390625 C-217.34024841 678.937099 -216.76643433 678.62029175 -216.17523193 678.29388428 C-214.30264684 677.25881131 -212.4325215 676.21938381 -210.5625 675.1796875 C-209.24958777 674.45241803 -207.93659858 673.72528748 -206.62353516 672.99829102 C-197.90456893 668.16540892 -189.21678143 663.2785555 -180.5456543 658.36035156 C-165.00651583 649.55208436 -149.38402453 640.8916819 -133.6875 632.3671875 C-126.37571772 628.39583687 -119.11084211 624.35021793 -111.875 620.2421875 C-98.2936008 612.54039849 -84.65746402 604.94418448 -70.9375 597.4921875 C-70.32682678 597.1599115 -69.71615356 596.8276355 -69.0869751 596.48529053 C-64.9044563 594.21227567 -60.70629391 591.9709087 -56.5 589.7421875 C-55.44200195 589.16992432 -54.38400391 588.59766113 -53.29394531 588.00805664 C-38.77267453 580.40118699 -24.11859677 576.6520387 -8.0625 581.4296875 C0.62089723 584.26120727 8.30226462 588.75342779 16.0625 593.4921875 C18.43655014 594.93125874 20.81184157 596.36827302 23.1875 597.8046875 C24.09266357 598.35382813 24.09266357 598.35382813 25.01611328 598.9140625 C35.14020816 605.00671421 45.62383095 610.48458002 56.0234375 616.08740234 C67.88994562 622.48200194 79.70177485 628.95002197 91.41772461 635.61694336 C98.25324295 639.49656187 105.14157138 643.26734136 112.0625 646.9921875 C121.82822947 652.25102138 131.50137019 657.65693313 141.14453125 663.13671875 C148.70908078 667.43426364 156.30659037 671.67285606 163.90405273 675.91186523 C165.39400757 676.74439819 165.39400757 676.74439819 166.9140625 677.59375 C167.78885254 678.08182129 168.66364258 678.56989258 169.56494141 679.07275391 C171.31610777 680.06799157 173.03955868 681.11285053 174.73974609 682.19287109 C176.96234138 683.74145946 176.96234138 683.74145946 179.375 683.1796875 C179.931875 682.9528125 180.48875 682.7259375 181.0625 682.4921875 C181.31697777 675.92974572 180.34564664 670.08906653 179 663.6796875 C176.5753397 651.63941627 174.56272194 639.5559482 172.625 627.4296875 C170.62486414 614.94536734 168.56862326 602.48440362 166.25 590.0546875 C162.14821312 567.99941069 158.57693991 545.84957653 154.92118835 523.7169342 C153.84787466 517.22051371 152.76763469 510.72534095 151.67626953 504.23193359 C151.44646896 502.86228406 151.21669672 501.49262977 150.98695374 500.12297058 C150.5520367 497.53015024 150.11508951 494.93770013 149.67698669 492.34541321 C144.17834022 459.56010447 144.17834022 459.56010447 154.0625 445.4921875 C159.91329542 437.91551874 166.26748694 431.00038178 173.05859375 424.265625 C173.97334976 423.35132721 174.88810577 422.43702942 175.83058167 421.49502563 C177.74261119 419.58454082 179.65789157 417.67740321 181.57592773 415.77294922 C184.03461448 413.33145609 186.48645982 410.88322455 188.93618679 408.43274498 C191.28669963 406.08256831 193.64143742 403.73665058 195.99609375 401.390625 C196.87623642 400.51159515 197.75637909 399.63256531 198.66319275 398.72689819 C199.47486404 397.92160675 200.28653534 397.11631531 201.12280273 396.28662109 C201.83734116 395.57589447 202.55187958 394.86516785 203.28807068 394.13290405 C205.0625 392.4921875 205.0625 392.4921875 207.0625 391.4921875 C207.0625 390.8321875 207.0625 390.1721875 207.0625 389.4921875 C207.64616239 389.23300946 208.22982477 388.97383142 208.8311739 388.70679951 C211.2321363 387.39984677 212.82815553 385.98352481 214.76371765 384.05839539 C215.48297424 383.34766876 216.20223083 382.63694214 216.94328308 381.90467834 C217.72214371 381.12491135 218.50100433 380.34514435 219.3034668 379.54174805 C220.13149811 378.72043396 220.95952942 377.89911987 221.81265259 377.05291748 C224.55102138 374.33356327 227.2817671 371.60670868 230.01171875 368.87890625 C231.42972133 367.46570475 232.84772559 366.05250491 234.26598483 364.639561 C238.72392121 360.19789779 243.17614909 355.75056653 247.62524414 351.30004883 C252.21386769 346.7102229 256.81353679 342.13167731 261.41851491 337.55826539 C265.3739207 333.62900939 269.3215786 329.69208227 273.26329166 325.74909049 C275.61672088 323.39515142 277.9740442 321.04536252 280.33737755 318.7013607 C282.97106077 316.08721414 285.59183738 313.46077017 288.2097168 310.83081055 C288.99465012 310.05711624 289.77958344 309.28342194 290.58830261 308.48628235 C291.29909973 307.76709625 292.00989685 307.04791016 292.74223328 306.30693054 C293.36293544 305.68731791 293.9836376 305.06770529 294.62314892 304.42931652 C296.32693045 302.13630775 296.69952782 300.29880934 297.0625 297.4921875 C290.87840052 295.81825165 284.75995111 294.78183935 278.4140625 293.93359375 C276.22712765 293.63284532 274.04019756 293.33206227 271.85327148 293.03125 C270.10975906 292.79390137 270.10975906 292.79390137 268.33102417 292.55175781 C261.9519692 291.68149081 255.57551346 290.79257559 249.19921875 289.90234375 C248.18132987 289.76034735 248.18132987 289.76034735 247.14287758 289.61548233 C208.20614509 284.17875389 169.28811195 278.47003909 130.5 272.0546875 C129.07577225 271.82144775 129.07577225 271.82144775 127.62277222 271.58349609 C118.61723729 270.10218062 109.65603112 268.5062066 100.7578125 266.46875 C99.75390724 266.24325218 99.75390724 266.24325218 98.72972107 266.01319885 C87.49289705 263.33298031 77.54373518 258.28298957 71.0625 248.4921875 C63.46508634 235.96672174 57.86094051 222.35219028 51.94659424 208.98045349 C48.33980951 200.83885138 44.65240109 192.73383265 40.97283936 184.62493896 C34.93338414 171.31341899 28.93534323 157.98558916 23.02816772 144.61483765 C14.32731694 124.92621715 5.28482079 105.4012694 -3.81671143 85.89520264 C-5.26583846 82.78821683 -6.71257687 79.68012212 -8.15917969 76.57196045 C-9.77178962 73.10740484 -11.38564515 69.64343034 -13 66.1796875 C-13.29408752 65.54863098 -13.58817505 64.91757446 -13.89117432 64.26739502 C-14.70933317 62.51258695 -15.52846889 60.75823443 -16.34765625 59.00390625 C-16.80277588 58.02897217 -17.25789551 57.05403809 -17.72680664 56.04956055 C-18.76893924 53.84824193 -19.83746643 51.66501816 -20.9375 49.4921875 C-21.9275 49.4921875 -22.9175 49.4921875 -23.9375 49.4921875 Z " fill="#010000" transform="translate(535.9375,130.5078125)"/>
<path d="M0 0 C-1.56583596 4.03721561 -4.44173865 6.47070582 -7.625 9.25 C-8.140625 9.70890625 -8.65625 10.1678125 -9.1875 10.640625 C-10.4534602 11.76592296 -11.72607942 12.88372177 -13 14 C-13.66 13.67 -14.32 13.34 -15 13 C-12.88094537 10.82722286 -10.75527122 8.66173092 -8.625 6.5 C-8.02171875 5.87996094 -7.4184375 5.25992187 -6.796875 4.62109375 C-6.21679688 4.03457031 -5.63671875 3.44804687 -5.0390625 2.84375 C-4.50490723 2.29912109 -3.97075195 1.75449219 -3.42041016 1.19335938 C-2 0 -2 0 0 0 Z " fill="#F4DF00" transform="translate(821,506)"/>
<path d="M0 0 C4.82675589 2.41337795 7.69984002 5.86062408 11 10 C8 10 8 10 6.39453125 8.7578125 C5.87246094 8.21898437 5.35039062 7.68015625 4.8125 7.125 C4.28269531 6.59132813 3.75289062 6.05765625 3.20703125 5.5078125 C2 4 2 4 2 2 C1.34 2 0.68 2 0 2 C0 1.34 0 0.68 0 0 Z " fill="#DDCA00" transform="translate(142,449)"/>
<path d="M0 0 C1.4835001 0.42257276 2.96176424 0.86356322 4.4375 1.3125 C5.67306641 1.67794922 5.67306641 1.67794922 6.93359375 2.05078125 C7.61550781 2.36402344 8.29742188 2.67726563 9 3 C9.33 3.99 9.66 4.98 10 6 C7.23723823 5.47731534 4.6739124 4.89130413 2 4 C2 3.34 2 2.68 2 2 C1.34 2 0.68 2 0 2 C0 1.34 0 0.68 0 0 Z " fill="#EFEFEF" transform="translate(620,392)"/>
<path d="M0 0 C0 4.35251187 -2.06165511 5.92809398 -5 9 C-7.171875 9.6796875 -7.171875 9.6796875 -9 10 C-8.06409496 8.8944811 -7.12620142 7.79064547 -6.1875 6.6875 C-5.66542969 6.07261719 -5.14335938 5.45773437 -4.60546875 4.82421875 C-3.12827531 3.14575321 -1.59960869 1.56117966 0 0 Z " fill="#DCCA00" transform="translate(829,496)"/>
</svg>
