<?xml version="1.0" encoding="UTF-8"?>
<svg version="1.1" xmlns="http://www.w3.org/2000/svg" width="1024" height="1024">
<path d="M0 0 C1.18672411 -0.00235223 2.37344823 -0.00470446 3.59613368 -0.00712797 C6.8919335 -0.01264007 10.18768 -0.01369105 13.48348071 -0.01285056 C17.06866331 -0.01302042 20.65383726 -0.01893063 24.23901552 -0.02409142 C31.35087214 -0.03340963 38.46272254 -0.03733816 45.5745845 -0.03961039 C54.09332648 -0.04257457 62.61206021 -0.05127336 71.13079786 -0.06002467 C91.72323747 -0.08086323 112.31567851 -0.09133867 132.9081262 -0.10015428 C142.65369934 -0.10436237 152.39927187 -0.1095842 162.14484449 -0.11483881 C195.51658772 -0.13273014 228.88833112 -0.14772459 262.26007843 -0.155159 C264.35501064 -0.15563375 266.44994284 -0.15610964 268.54487505 -0.15658666 C269.58375784 -0.15682303 270.62264062 -0.15705941 271.6930047 -0.15730295 C276.95635707 -0.15850413 282.21970943 -0.15971958 287.48306179 -0.16094494 C289.04984579 -0.16130516 289.04984579 -0.16130516 290.64828199 -0.16167267 C324.49601252 -0.16956139 358.34370795 -0.19298384 392.19142316 -0.22550088 C427.99106165 -0.25983018 463.79067962 -0.27951309 499.59033483 -0.28280324 C503.5236317 -0.28322076 507.45692856 -0.28370032 511.39022541 -0.28422642 C512.35868824 -0.28434961 513.32715107 -0.2844728 514.32496125 -0.28459973 C529.88472693 -0.28692809 545.44445174 -0.30256792 561.00420286 -0.32306826 C576.6586411 -0.34336536 592.31303046 -0.34878526 607.96747942 -0.33929763 C617.25667811 -0.33409748 626.54571362 -0.33988952 635.83488869 -0.3618323 C642.05463504 -0.37540836 648.27426992 -0.3742038 654.49401755 -0.36143034 C658.02837744 -0.35457853 661.56242696 -0.35370743 665.09675825 -0.37099043 C681.25983921 -0.43539244 696.46314873 0.47875976 712.2367239 4.13422108 C713.40386034 4.40328839 714.57099677 4.67235569 715.77350098 4.94957656 C718.24495012 5.54962301 720.67543361 6.21806959 723.1117239 6.94672108 C723.96991726 7.19897449 724.82811062 7.45122791 725.71230984 7.71112537 C733.87526746 10.19203914 741.59214066 13.36188789 749.2367239 17.13422108 C749.93781277 17.4785619 750.63890163 17.82290272 751.36123562 18.17767811 C761.19995022 23.0673411 770.49124731 28.46140761 779.2367239 35.13422108 C779.96923367 35.69230457 780.70174343 36.25038807 781.45645046 36.82538319 C797.61569604 49.42851279 812.56695977 64.57356762 823.2367239 82.13422108 C823.85160671 83.14259022 823.85160671 83.14259022 824.4789114 84.17133045 C827.22662368 88.74355869 829.79009003 93.39461828 832.2367239 98.13422108 C832.55480007 98.74974842 832.87287624 99.36527576 833.20059109 99.99945545 C844.55418403 122.32700186 851.40470006 147.83475208 851.37094498 172.89749718 C851.37329721 174.08422129 851.37564944 175.27094541 851.37807295 176.49363086 C851.38358505 179.78943068 851.38463602 183.08517718 851.38379554 186.38097789 C851.3839654 189.96616049 851.38987561 193.55133444 851.3950364 197.1365127 C851.4043546 204.24836932 851.40828314 211.36021972 851.41055537 218.47208168 C851.41351955 226.99082366 851.42221833 235.50955739 851.43096965 244.02829504 C851.45180821 264.62073465 851.46228365 285.21317569 851.47109925 305.80562338 C851.47530735 315.55119652 851.48052918 325.29676904 851.48578378 335.04234167 C851.50367511 368.41408489 851.51866956 401.7858283 851.52610397 435.15757561 C851.52657873 437.25250781 851.52705462 439.34744002 851.52753164 441.44237223 C851.5278862 443.00069641 851.5278862 443.00069641 851.52824793 444.59050188 C851.5294491 449.85385425 851.53066456 455.11720661 851.53188992 460.38055897 C851.53213007 461.42508163 851.53237022 462.4696043 851.53261764 463.54577917 C851.54050637 497.3935097 851.56392882 531.24120513 851.59644586 565.08892034 C851.63077516 600.88855882 851.65045807 636.68817679 851.65374821 672.48783201 C851.65416574 676.42112888 851.6546453 680.35442573 851.65517139 684.28772259 C851.65529459 685.25618542 851.65541778 686.22464824 851.6555447 687.22245843 C851.65787307 702.7822241 851.67351289 718.34194891 851.69401324 733.90170004 C851.71431034 749.55613827 851.71973024 765.21052764 851.71024261 780.86497659 C851.70504245 790.15417528 851.7108345 799.44321079 851.73277728 808.73238587 C851.74635334 814.95213222 851.74514877 821.1717671 851.73237532 827.39151473 C851.72552351 830.92587462 851.7246524 834.45992414 851.74193541 837.99425543 C851.80633741 854.15733639 850.89218522 869.36064591 847.2367239 885.13422108 C846.83312294 886.88492573 846.83312294 886.88492573 846.42136842 888.67099816 C845.82132196 891.1424473 845.15287538 893.57293078 844.4242239 896.00922108 C844.17197048 896.86741444 843.91971706 897.7256078 843.6598196 898.60980701 C841.17890584 906.77276463 838.00905708 914.48963784 834.2367239 922.13422108 C833.89238308 922.83530994 833.54804226 923.53639881 833.19326687 924.2587328 C828.30360388 934.0974474 822.90953737 943.38874448 816.2367239 952.13422108 C815.6786404 952.86673084 815.12055691 953.59924061 814.54556179 954.35394764 C801.94243219 970.51319322 786.79737736 985.46445695 769.2367239 996.13422108 C768.56447781 996.54414295 767.89223171 996.95406483 767.19961452 997.37640858 C762.62738629 1000.12412086 757.9763267 1002.68758721 753.2367239 1005.13422108 C752.62119656 1005.45229725 752.00566921 1005.77037342 751.37148952 1006.09808826 C729.04394312 1017.4516812 703.5361929 1024.30219724 678.4734478 1024.26844215 C677.28672369 1024.27079438 676.09999957 1024.27314661 674.87731412 1024.27557012 C671.5815143 1024.28108223 668.2857678 1024.2821332 664.98996709 1024.28129272 C661.40478448 1024.28146258 657.81961054 1024.28737279 654.23443228 1024.29253358 C647.12257566 1024.30185178 640.01072526 1024.30578032 632.8988633 1024.30805254 C624.38012132 1024.31101672 615.86138758 1024.31971551 607.34264994 1024.32846682 C586.75021033 1024.34930538 566.15776929 1024.35978082 545.5653216 1024.36859643 C535.81974846 1024.37280452 526.07417593 1024.37802635 516.32860331 1024.38328096 C482.95686008 1024.40117229 449.58511668 1024.41616674 416.21336937 1024.42360115 C414.11843716 1024.42407591 412.02350495 1024.42455179 409.92857275 1024.42502881 C408.88968996 1024.42526519 407.85080718 1024.42550156 406.7804431 1024.4257451 C401.51709073 1024.42694628 396.25373837 1024.42816174 390.99038601 1024.42938709 C389.42360201 1024.42974732 389.42360201 1024.42974732 387.82516581 1024.43011482 C353.97743528 1024.43800355 320.12973985 1024.46142599 286.28202464 1024.49394304 C250.48238615 1024.52827234 214.68276818 1024.54795525 178.88311297 1024.55124539 C174.9498161 1024.55166292 171.01651924 1024.55214248 167.08322239 1024.55266857 C166.11475956 1024.55279176 165.14629673 1024.55291495 164.14848654 1024.55304188 C148.58872087 1024.55537024 133.02899606 1024.57101007 117.46924494 1024.59151042 C101.8148067 1024.61180751 86.16041734 1024.61722742 70.50596838 1024.60773978 C61.21676969 1024.60253963 51.92773418 1024.60833168 42.63855911 1024.63027446 C36.41881276 1024.64385052 30.19917788 1024.64264595 23.97943025 1024.6298725 C20.44507036 1024.62302069 16.91102084 1024.62214958 13.37668955 1024.63943259 C-2.78639141 1024.70383459 -17.98970093 1023.7896824 -33.7632761 1020.13422108 C-35.51398075 1019.73062011 -35.51398075 1019.73062011 -37.30005318 1019.3188656 C-39.77150232 1018.71881914 -42.20198581 1018.05037256 -44.6382761 1017.32172108 C-45.92556614 1016.94334095 -45.92556614 1016.94334095 -47.23886204 1016.55731678 C-55.40181966 1014.07640301 -63.11869286 1010.90655426 -70.7632761 1007.13422108 C-71.8149094 1006.61770985 -71.8149094 1006.61770985 -72.88778782 1006.09076405 C-82.72650242 1001.20110106 -92.01779951 995.80703455 -100.7632761 989.13422108 C-101.49578587 988.57613758 -102.22829563 988.01805408 -102.98300266 987.44305897 C-119.14224824 974.83992937 -134.09351197 959.69487453 -144.7632761 942.13422108 C-145.17319798 941.46197498 -145.58311985 940.78972889 -146.0054636 940.0971117 C-148.75317588 935.52488347 -151.31664223 930.87382388 -153.7632761 926.13422108 C-154.08135227 925.51869373 -154.39942844 924.90316639 -154.72714329 924.2689867 C-166.08073623 901.94144029 -172.93125226 876.43369007 -172.89749718 851.37094498 C-172.89984941 850.18422086 -172.90220164 848.99749675 -172.90462515 847.7748113 C-172.91013725 844.47901147 -172.91118822 841.18326497 -172.91034774 837.88746427 C-172.9105176 834.30228166 -172.91642781 830.71710772 -172.9215886 827.13192946 C-172.9309068 820.02007284 -172.93483534 812.90822244 -172.93710757 805.79636047 C-172.94007175 797.2776185 -172.94877053 788.75888476 -172.95752185 780.24014711 C-172.97836041 759.6477075 -172.98883585 739.05526647 -172.99765145 718.46281877 C-173.00185955 708.71724563 -173.00708138 698.97167311 -173.01233598 689.22610049 C-173.03022731 655.85435726 -173.04522176 622.48261385 -173.05265617 589.11086655 C-173.05313093 587.01593434 -173.05360682 584.92100213 -173.05408384 582.82606992 C-173.05432021 581.78718714 -173.05455659 580.74830435 -173.05480013 579.67794027 C-173.0560013 574.41458791 -173.05721676 569.15123555 -173.05844212 563.88788319 C-173.05868227 562.84336052 -173.05892242 561.79883785 -173.05916984 560.72266298 C-173.06705857 526.87493246 -173.09048102 493.02723702 -173.12299806 459.17952182 C-173.15732736 423.37988333 -173.17701027 387.58026536 -173.18030041 351.78061014 C-173.18071794 347.84731328 -173.1811975 343.91401642 -173.18172359 339.98071957 C-173.18184679 339.01225674 -173.18196998 338.04379391 -173.1820969 337.04598372 C-173.18442527 321.48621805 -173.20006509 305.92649324 -173.22056544 290.36674211 C-173.24086254 274.71230388 -173.24628244 259.05791452 -173.23679481 243.40346556 C-173.23159466 234.11426687 -173.2373867 224.82523136 -173.25932948 215.53605629 C-173.27290554 209.31630994 -173.27170097 203.09667506 -173.25892752 196.87692742 C-173.25207571 193.34256754 -173.2512046 189.80851802 -173.26848761 186.27418672 C-173.33288962 170.11110577 -172.41873742 154.90779624 -168.7632761 139.13422108 C-168.49420879 137.96708464 -168.22514148 136.7999482 -167.94792062 135.597444 C-167.34787416 133.12599485 -166.67942758 130.69551137 -165.9507761 128.25922108 C-165.69852268 127.40102772 -165.44626926 126.54283436 -165.1863718 125.65863514 C-162.70545804 117.49567752 -159.53560928 109.77880432 -155.7632761 102.13422108 C-155.41893528 101.43313221 -155.07459446 100.73204334 -154.71981907 100.00970936 C-149.83015608 90.17099476 -144.43608957 80.87969767 -137.7632761 72.13422108 C-136.92615086 71.03545643 -136.92615086 71.03545643 -136.07211399 69.91449451 C-123.46898439 53.75524894 -108.32392956 38.8039852 -90.7632761 28.13422108 C-90.09103001 27.7242992 -89.41878391 27.31437733 -88.72616673 26.89203358 C-84.15393849 24.1443213 -79.5028789 21.58085494 -74.7632761 19.13422108 C-73.83998508 18.65710682 -73.83998508 18.65710682 -72.89804173 18.17035389 C-50.57049532 6.81676095 -25.0627451 -0.03375509 0 0 Z " fill="#FED300" transform="translate(172.7632761001587,-0.13422107696533203)"/>
<path d="M0 0 C1.88769531 0.29516602 1.88769531 0.29516602 4 1 C5.44839724 3.64175062 6.61137553 6.16148523 7.75 8.9375 C8.53797636 10.77242247 9.32995734 12.60562817 10.125 14.4375 C10.57230469 15.47132813 11.01960938 16.50515625 11.48046875 17.5703125 C14.11402626 23.51443459 16.92162458 29.37611133 19.71096802 35.24832153 C26.42792222 49.40054374 32.92665698 63.63529762 39.29554749 77.94787598 C42.85397427 85.93331243 46.47357897 93.89112238 50.08398438 101.85314941 C56.21835933 115.3818112 62.31470027 128.92535039 68.32189941 142.51098633 C73.36729186 153.91487891 78.44201986 165.30525569 83.67001343 176.62683105 C84.52555259 178.48236663 85.37390291 180.3412117 86.22192383 182.20019531 C92.48477431 195.66757736 99.04078758 207.90691313 113.37939453 213.74682617 C131.22955589 219.92517265 150.54317017 222.06268157 169.14570618 224.96406555 C171.40912879 225.31783427 173.67209149 225.67441684 175.93493652 226.03186035 C204.12915867 230.4840711 232.36795742 234.5881988 260.63793945 238.53063965 C269.84300841 239.815713 279.04648531 241.1119676 288.24890137 242.41589355 C291.40794314 242.86200012 294.56769127 243.30280886 297.72753906 243.74316406 C299.64131008 244.01343095 301.55504894 244.28392569 303.46875 244.5546875 C304.74748993 244.73072006 304.74748993 244.73072006 306.05206299 244.91030884 C311.14193627 245.63705925 316.03177095 246.67243105 321 248 C320.48193544 252.07376401 319.4834451 254.01597148 316.59034729 256.90412903 C315.85983154 257.64303375 315.1293158 258.38193848 314.37666321 259.14323425 C313.56988632 259.93877213 312.76310944 260.73431 311.93188477 261.55395508 C311.08639069 262.40324585 310.24089661 263.25253662 309.36978149 264.12756348 C307.05269921 266.45078251 304.72691949 268.7648338 302.39663815 271.07480073 C299.96064575 273.49321429 297.53521516 275.9221779 295.10838318 278.34977722 C291.03371448 282.42257403 286.95137993 286.48755583 282.86401367 290.54760742 C278.13406504 295.24606427 273.4146924 299.95493401 268.70119816 304.66989404 C264.16921091 309.2031004 259.63154329 313.73057312 255.09065056 318.25485802 C253.15650657 320.1819294 251.22408088 322.11070023 249.29294014 324.04078102 C246.59946334 326.72994436 243.89951874 329.41243095 241.19750977 332.09301758 C240.39275711 332.89867661 239.58800446 333.70433563 238.75886536 334.53440857 C238.02552979 335.25921417 237.29219421 335.98401978 236.53663635 336.73078918 C235.89821084 337.36586301 235.25978533 338.00093683 234.60201359 338.65525532 C233 340 233 340 231 340 C231 340.66 231 341.32 231 342 C229.56626892 343.41867065 229.56626892 343.41867065 227.56225586 345.07763672 C222.83226829 349.10295095 218.41508702 353.38821803 214.00390625 357.7578125 C213.17092514 358.58272186 212.33794403 359.40763123 211.47972107 360.25753784 C209.72777092 361.99573542 207.97731005 363.73543521 206.22827148 365.4765625 C204.45735675 367.23596199 202.68198624 368.99088836 200.90209961 370.74121094 C186.60825823 384.77202575 186.60825823 384.77202575 175 401 C174.5359375 401.74056641 174.071875 402.48113281 173.59375 403.24414062 C167.7580211 413.99883696 171.30950869 429.30774112 173.125 440.75 C173.3537431 442.24161452 173.58191856 443.73331618 173.80957031 445.22509766 C175.92949998 458.99310722 178.27626323 472.72331334 180.6796875 486.44424438 C181.83185669 493.02335436 182.96838483 499.6050945 184.1015625 506.1875 C187.94169459 528.47741699 191.83198215 550.75711987 195.82006836 573.02105713 C197.94024476 584.86719219 200.00331942 596.71508426 201.80981445 608.61401367 C202.55026659 613.45106343 203.43944163 618.19252076 204.60742188 622.94604492 C205.25288945 626.32310879 205.12464907 629.57215044 205 633 C202.51057307 633.92412954 201.37288812 634.14688887 198.86303711 633.15820312 C198.0922583 632.70380859 197.32147949 632.24941406 196.52734375 631.78125 C195.64208008 631.26900879 194.75681641 630.75676758 193.84472656 630.22900391 C192.8853418 629.65843262 191.92595703 629.08786133 190.9375 628.5 C188.84837253 627.28782718 186.75849841 626.07694048 184.66796875 624.8671875 C183.57403809 624.23006836 182.48010742 623.59294922 181.35302734 622.93652344 C175.85753545 619.76263078 170.30360422 616.69570238 164.75 613.625 C162.46082623 612.3556694 160.17176456 611.08613662 157.8828125 609.81640625 C156.17399902 608.86918701 156.17399902 608.86918701 154.43066406 607.90283203 C151.05404933 606.02997868 147.6790548 604.15424293 144.3046875 602.27734375 C113.05521453 584.87986547 113.05521453 584.87986547 81.625 567.8125 C67.75599831 560.37251703 53.92340494 552.8385362 40.47265625 544.66015625 C39.58239746 544.11891113 38.69213867 543.57766602 37.77490234 543.02001953 C36.11808359 542.00666804 34.46561219 540.9861527 32.81884766 539.95654297 C20.0652617 532.12270547 5.96848906 527.47242691 -9.02075195 530.63793945 C-18.72331971 533.14353627 -27.13521905 537.2531305 -35.9375 541.9375 C-37.40036588 542.7043632 -38.86358731 543.47054851 -40.32714844 544.23608398 C-50.39729867 549.52507406 -60.3399339 555.02584047 -70.203125 560.69140625 C-76.921646 564.54646828 -83.71125151 568.27072976 -90.5 572 C-99.262908 576.81663534 -107.99719934 581.67810827 -116.6875 586.625 C-124.7711049 591.22399835 -132.92422925 595.67604122 -141.125 600.0625 C-150.70787594 605.1897963 -160.17925967 610.47619165 -169.59765625 615.8984375 C-175.8770667 619.5119603 -182.18505761 623.0740127 -188.5 626.625 C-189.56935791 627.22957031 -190.63871582 627.83414063 -191.74047852 628.45703125 C-192.74393311 629.02035156 -193.7473877 629.58367188 -194.78125 630.1640625 C-195.66876953 630.66373535 -196.55628906 631.1634082 -197.47070312 631.67822266 C-199.93304281 632.96500905 -202.40324118 634.01717462 -205 635 C-206.26481181 630.55516554 -205.65656559 627.28446071 -204.6640625 622.80859375 C-204.34300358 621.31929265 -204.02213134 619.8299513 -203.70141602 618.34057617 C-203.52667755 617.54638275 -203.35193909 616.75218933 -203.17190552 615.93392944 C-199.51930227 599.2610929 -196.4240005 582.51222578 -193.5625 565.6875 C-192.80611481 561.24867657 -192.04959523 556.80987605 -191.29296875 552.37109375 C-191.10457428 551.26460983 -190.91617981 550.15812592 -190.72207642 549.01811218 C-188.68369611 537.0814271 -186.53378323 525.16539345 -184.375 513.25 C-181.74391425 498.70404704 -179.12386929 484.15647835 -176.56964111 469.59680176 C-176.28110625 467.95225207 -175.99203499 466.30779638 -175.70233154 464.66345215 C-174.78360681 459.44529365 -173.88087378 454.22468569 -173 449 C-172.86193939 448.18132446 -172.72387878 447.36264893 -172.58163452 446.51916504 C-172.15858869 443.98906103 -171.74395898 441.45771716 -171.33203125 438.92578125 C-171.1409227 437.78243065 -171.1409227 437.78243065 -170.94595337 436.61598206 C-168.32267103 420.23678864 -169.67706692 406.0576522 -178.90649414 391.87646484 C-182.44174308 387.01905341 -186.62670541 382.91526889 -190.9375 378.75 C-191.79279297 377.904375 -192.64808594 377.05875 -193.52929688 376.1875 C-197.95148879 371.8428904 -202.47087374 367.66808817 -207.16625977 363.62207031 C-210.07842854 361.04605522 -212.78403423 358.27968345 -215.5 355.5 C-219.50655128 351.44295803 -223.5588933 347.560008 -227.91015625 343.87109375 C-231.22817811 340.90037886 -234.32967822 337.71343417 -237.43774414 334.52514648 C-240.07158 331.84478117 -242.7659082 329.31467957 -245.625 326.875 C-251.94668003 321.40662659 -257.71358443 315.34198022 -263.58203125 309.39746094 C-268.90343594 304.01333498 -274.22145163 298.7105046 -279.984375 293.79296875 C-285.31635263 289.04998865 -290.21484856 283.81793697 -295.22265625 278.73828125 C-299.75518096 274.16617117 -304.32512742 269.7364934 -309.21337891 265.54638672 C-311.88971347 263.22992005 -314.41312454 260.79438947 -316.9375 258.3125 C-317.87464844 257.40113281 -318.81179688 256.48976563 -319.77734375 255.55078125 C-321.83252233 253.19220197 -322.66462176 252.04694698 -323 249 C-318.32479424 246.7996569 -313.59421405 246.14221467 -308.53515625 245.37109375 C-307.58043427 245.22100861 -306.62571228 245.07092346 -305.64205933 244.91629028 C-302.44985609 244.41679481 -299.25629092 243.92673445 -296.0625 243.4375 C-293.77871286 243.08399572 -291.49494041 242.73039654 -289.21118164 242.37670898 C-255.22795594 237.13607347 -221.20114064 232.16880411 -187.125 227.5703125 C-186.01076755 227.41970651 -186.01076755 227.41970651 -184.87402534 227.26605797 C-177.64715644 226.28924251 -170.41989463 225.31591107 -163.18996334 224.36200047 C-151.08899818 222.76289873 -139.00096921 221.14141547 -126.99609375 218.91796875 C-126.16444199 218.76740524 -125.33279022 218.61684174 -124.47593689 218.4617157 C-117.91213975 217.184931 -112.45771398 214.92677053 -107 211 C-106.36449219 210.58363281 -105.72898437 210.16726563 -105.07421875 209.73828125 C-94.28770237 201.77395763 -88.63312656 185.55794104 -83 173.8125 C-82.1660522 172.08559983 -81.33173579 170.35887763 -80.49707031 168.63232422 C-77.98523199 163.42765332 -75.48955724 158.21536007 -73 153 C-72.63076416 152.22674377 -72.26152832 151.45348755 -71.88110352 150.65679932 C-63.88277809 133.89275629 -56.08261755 117.04513229 -48.43991089 100.11624146 C-43.48387709 89.14638162 -38.33003296 78.28625694 -33.06030273 67.46411133 C-29.25720401 59.64307084 -25.55893328 51.78169624 -21.9375 43.875 C-17.95679944 35.19696553 -13.92584189 26.54548289 -9.80300903 17.93414307 C-8.95755516 16.16692059 -8.11629896 14.39769184 -7.27514648 12.62841797 C-6.50279663 11.02184326 -6.50279663 11.02184326 -5.71484375 9.3828125 C-5.26230225 8.43809082 -4.80976074 7.49336914 -4.34350586 6.52001953 C-3.07592923 4.14242078 -1.67992186 2.10075014 0 0 Z " fill="#FAFAFA" transform="translate(512,180)"/>
<path d="M0 0 C10.26356271 6.72764019 15.23774725 16.19868526 19.9375 27.2421875 C20.77200257 29.16000875 21.61159976 31.07554744 22.45159912 32.9909668 C23.04689507 34.34861461 23.64082345 35.7068628 24.23345947 37.06567383 C27.54083685 44.633562 31.00389255 52.12856349 34.46878052 59.62530518 C39.88289661 71.34181558 45.246253 83.07778257 50.5 94.8671875 C61.83872308 120.27946705 73.60729134 145.49793649 85.49731445 170.65625 C88.94452757 177.95540692 92.34618312 185.27145747 95.67700195 192.62475586 C97.77904778 197.259628 99.91195444 201.87964425 102.0625 206.4921875 C102.43310547 207.29317871 102.80371094 208.09416992 103.18554688 208.91943359 C104.20036693 211.08349607 105.24811711 213.22715979 106.3125 215.3671875 C106.87453125 216.51960937 107.4365625 217.67203125 108.015625 218.859375 C112.53224719 224.66892338 122.46182647 224.37727874 129.3203125 225.3046875 C130.54265594 225.4743251 131.76499939 225.64396271 133.02438354 225.81874084 C135.68086527 226.18702765 138.33751996 226.55357988 140.99462891 226.91726685 C147.47791824 227.80504364 153.95895937 228.70902467 160.44017792 229.61177254 C161.95128668 229.82218185 163.46242079 230.03240927 164.97357941 230.24246025 C181.29045884 232.51058495 197.59437508 234.86508423 213.89612579 237.23918915 C220.37332833 238.18249189 226.85069709 239.12465242 233.328125 240.06640625 C234.03010136 240.16849648 234.73207771 240.2705867 235.45532608 240.37577057 C245.62926601 241.85491863 255.80565552 243.31581078 265.984375 244.76171875 C267.25059692 244.94172928 268.51681885 245.12173981 269.82141113 245.3072052 C275.70213377 246.14279868 281.58319023 246.97591666 287.46484375 247.80493164 C292.62663736 248.5345777 297.78624536 249.27798942 302.9440918 250.03503418 C305.09553623 250.35043226 307.24742183 250.66283046 309.3996582 250.97277832 C312.75276821 251.45913943 316.10305052 251.9619445 319.453125 252.46875 C320.95767242 252.68366592 320.95767242 252.68366592 322.49261475 252.90292358 C333.70684057 254.63849488 343.6012991 257.450778 350.75 266.66796875 C357.81396211 276.77147224 358.38490188 287.36252837 356.65625 299.296875 C354.93736683 304.84587828 351.20325597 308.75510089 347.28125 312.890625 C346.67864349 313.53076538 346.07603699 314.17090576 345.45516968 314.83044434 C337.01864406 323.72801149 328.32653736 332.37871221 319.64697266 341.03808594 C317.16278238 343.51652435 314.68318777 345.99950496 312.20484352 348.48378754 C309.79785632 350.89528149 307.38704091 353.30293325 304.9765625 355.7109375 C304.09932526 356.59019897 303.22208801 357.46946045 302.31826782 358.37536621 C301.48314667 359.20733521 300.64802551 360.0393042 299.78759766 360.89648438 C299.06593414 361.61735229 298.34427063 362.33822021 297.60073853 363.08093262 C295.56280675 365.01691022 293.49654694 366.86140352 291.36997986 368.6966095 C286.54429533 372.89343643 281.98321625 377.34086653 277.41772461 381.81713867 C276.02367905 383.17964249 276.02367905 383.17964249 274.60147095 384.56967163 C266.10154538 392.88328676 257.64234142 401.23849771 249.19425106 409.60474682 C243.52642797 415.21645994 237.8468016 420.81507003 232.13598633 426.38305664 C227.1331714 431.26075814 222.15372436 436.16093205 217.20117956 441.08968717 C214.58540871 443.69141864 211.95974434 446.28087964 209.30586052 448.84377098 C206.34846857 451.70075322 203.44477374 454.60708197 200.54272461 457.52026367 C199.22370399 458.77153297 199.22370399 458.77153297 197.8780365 460.04808044 C193.40561736 464.60346845 193.40561736 464.60346845 191.74212551 470.59124947 C191.97500484 473.64236969 192.43166465 476.50046462 193.0625 479.4921875 C193.32201584 481.28458028 193.57423807 483.07806368 193.81518555 484.87304688 C194.10523466 486.69475341 194.40007909 488.51570162 194.69921875 490.3359375 C194.85892151 491.33023773 195.01862427 492.32453796 195.1831665 493.34896851 C195.70087228 496.56413306 196.22520396 499.7781733 196.75 502.9921875 C197.11623643 505.25402537 197.48220012 507.51590741 197.84790039 509.77783203 C198.91242007 516.35043658 199.98647501 522.92145834 201.0625 529.4921875 C201.335323 531.16242893 201.60811277 532.83267578 201.88085938 534.50292969 C205.10893602 554.2428504 208.51878146 573.95059437 211.94729614 593.65655518 C215.41529906 613.5971574 218.76487128 633.5563154 222.0559082 653.52685547 C222.40939859 655.66638567 222.76315036 657.8058727 223.1171875 659.9453125 C223.28471527 660.95927094 223.45224304 661.97322937 223.62484741 663.01791382 C224.80012691 670.07242773 226.09570788 677.09478916 227.50854492 684.10546875 C229.51454299 696.36955212 228.5765601 708.47643604 221.25 718.8671875 C215.1407962 726.24722818 207.73319764 732.04496422 198.0625 733.4921875 C195.20738817 733.72839384 192.36381571 733.81392973 189.5 733.8671875 C188.39688477 733.92326172 188.39688477 733.92326172 187.27148438 733.98046875 C175.10194019 734.16849604 164.08753756 726.56818994 153.6875 720.9296875 C152.35658278 720.21321637 151.02544332 719.49715793 149.6940918 718.78149414 C146.40849832 717.0132597 143.12673659 715.23806569 139.84674072 713.45947266 C138.22186524 712.57858371 136.59608864 711.69935748 134.97021484 710.8203125 C121.96343744 703.78545677 109.03992304 696.60176456 96.1171875 689.4140625 C88.95745483 685.43227628 81.7950523 681.45536675 74.625 677.4921875 C73.72402084 676.99415115 73.72402084 676.99415115 72.80484009 676.48605347 C63.80581562 671.5159838 54.76061721 666.63794697 45.6875 661.8046875 C37.16636308 657.26473266 28.70278158 652.64479591 20.3125 647.8671875 C12.20591453 643.25231765 4.06521307 638.70722236 -4.125 634.2421875 C-5.65882324 633.39986572 -5.65882324 633.39986572 -7.22363281 632.54052734 C-8.17463867 632.02441895 -9.12564453 631.50831055 -10.10546875 630.9765625 C-10.94360107 630.51991211 -11.7817334 630.06326172 -12.64526367 629.59277344 C-18.43020112 626.8152148 -25.06073733 626.46405956 -31.25 628.10546875 C-33.88233266 629.11482604 -36.39757536 630.26783156 -38.9375 631.4921875 C-39.99453125 631.99363281 -41.0515625 632.49507812 -42.140625 633.01171875 C-59.44584541 641.38888911 -76.48290703 650.64683957 -93.109375 660.296875 C-98.61482341 663.47690622 -104.18932354 666.53519153 -109.75 669.6171875 C-118.76366115 674.6139724 -127.76413212 679.63300358 -136.75 684.6796875 C-145.3921364 689.5309502 -154.07227928 694.30566314 -162.78393555 699.03076172 C-169.25296579 702.5487512 -175.66372239 706.16080092 -182.0625 709.8046875 C-190.29193293 714.46907711 -198.54333578 719.09319453 -206.85198975 723.61508179 C-208.63354035 724.58772797 -210.40892075 725.57164932 -212.18408203 726.5559082 C-222.015271 731.87405754 -231.13531749 735.08549718 -242.375 734.9921875 C-243.19194336 734.98646729 -244.00888672 734.98074707 -244.85058594 734.97485352 C-253.72435226 734.7147362 -261.1889361 732.32071941 -267.875 726.3046875 C-277.56557059 715.50053056 -277.57122048 703.34322998 -277.13079834 689.6449585 C-276.55495984 680.25280892 -274.55402792 671.02165253 -272.75 661.8046875 C-272.33119225 659.58507388 -271.91429843 657.36509832 -271.49926758 655.14477539 C-270.50396745 649.83994642 -269.48887821 644.53918417 -268.46594238 639.23962402 C-267.32506711 633.30807409 -266.2255279 627.36883665 -265.125 621.4296875 C-264.92986816 620.38707764 -264.73473633 619.34446777 -264.53369141 618.27026367 C-263.28807039 611.56791825 -262.17439414 604.85280756 -261.125 598.1171875 C-259.31224149 586.48255656 -257.26097194 574.89520137 -255.1875 563.3046875 C-254.49332822 559.42190383 -253.79928177 555.5390978 -253.10546875 551.65625 C-252.92937073 550.6707869 -252.75327271 549.68532379 -252.57183838 548.66999817 C-250.70175994 538.1923825 -248.85980379 527.70990345 -247.03137207 517.22494507 C-246.67998398 515.21116356 -246.32786398 513.19750962 -245.97497559 511.18399048 C-245.48269313 508.37429453 -244.99294485 505.56416838 -244.50390625 502.75390625 C-244.35947586 501.93187714 -244.21504547 501.10984802 -244.0662384 500.26290894 C-242.8433028 493.20351602 -241.79373802 486.16799403 -241.625 478.9921875 C-241.58761719 477.950625 -241.55023438 476.9090625 -241.51171875 475.8359375 C-242.83998544 465.40477888 -250.97921126 458.91373204 -258.0703125 451.93359375 C-259.27130047 450.73753554 -260.47147303 449.54065805 -261.67086792 448.34300232 C-264.17481942 445.84665903 -266.68505814 443.35689247 -269.20068359 440.87231445 C-272.42856966 437.68419428 -275.64541818 434.48522353 -278.85830879 431.28199863 C-281.92544964 428.22481127 -284.99753144 425.17261054 -288.0703125 422.12109375 C-288.65685734 421.53794466 -289.24340218 420.95479557 -289.8477211 420.3539753 C-291.50141372 418.71182614 -293.15853055 417.07322092 -294.81689453 415.43579102 C-295.30835968 414.94701477 -295.79982483 414.45823853 -296.30618286 413.95465088 C-298.88352541 411.40479286 -298.88352541 411.40479286 -301.9375 409.4921875 C-301.9375 408.8321875 -301.9375 408.1721875 -301.9375 407.4921875 C-302.81445086 407.10300408 -302.81445086 407.10300408 -303.70911789 406.70595837 C-306.10186791 405.40265843 -307.67286574 404.00044184 -309.59161377 402.07185364 C-310.30075424 401.36401733 -311.00989471 400.65618103 -311.74052429 399.92689514 C-312.89231926 398.76195778 -312.89231926 398.76195778 -314.06738281 397.57348633 C-314.88417007 396.75538483 -315.70095734 395.93728333 -316.54249573 395.09439087 C-319.24649192 392.3838948 -321.94344558 389.66649671 -324.640625 386.94921875 C-326.52095661 385.06261548 -328.40172594 383.17645987 -330.28314209 381.29093933 C-334.73615505 376.82654701 -339.18447421 372.35751137 -343.63076186 367.88642186 C-351.57496791 359.89796019 -359.52461878 351.91492713 -367.47967219 343.93726748 C-370.71453556 340.69271071 -373.94483345 337.44365059 -377.1741333 334.19355774 C-378.87931661 332.48154079 -380.58461267 330.76963613 -382.29003906 329.05786133 C-383.04980545 328.29135757 -383.80957184 327.52485382 -384.59236145 326.73512268 C-388.68994417 322.62891926 -392.87703063 318.70839303 -397.29734421 314.95041943 C-403.86826947 309.10833233 -407.43550589 300.77242181 -408.25390625 292.1640625 C-408.62621876 281.06674774 -406.03312132 273.05072478 -398.8984375 264.53125 C-387.78785294 252.97801267 -370.32565804 252.82279217 -355.25390625 250.63671875 C-353.45172432 250.3718486 -351.64960167 250.10657481 -349.84753418 249.84092712 C-345.05660384 249.13586353 -340.26486474 248.43645484 -335.47291946 247.73832703 C-330.4657916 247.00797137 -325.45938228 246.2727212 -320.45288086 245.53808594 C-312.52501074 244.37543631 -304.59668459 243.21594961 -296.66796875 242.05908203 C-289.02117516 240.94334278 -281.37509219 239.82293036 -273.72975159 238.69728088 C-254.3921423 235.85034697 -235.05012214 233.04448969 -215.68496513 230.39091492 C-213.4137932 230.07969393 -211.14268968 229.76797765 -208.87159729 229.45617676 C-202.23405848 228.54547173 -195.5962324 227.63729135 -188.95645237 226.74305534 C-186.90049327 226.46547937 -184.84485275 226.18566608 -182.7893219 225.90493774 C-180.27249392 225.56145656 -177.75513452 225.22183836 -175.23716736 224.8868103 C-165.32702924 224.12626433 -165.32702924 224.12626433 -157.11499023 219.48071289 C-156.68387939 218.67110107 -156.25276855 217.86148926 -155.80859375 217.02734375 C-155.32116699 216.1264502 -154.83374023 215.22555664 -154.33154297 214.29736328 C-152.13410751 209.87555357 -150.01211047 205.43924161 -148 200.9296875 C-147.53674316 199.90649414 -147.07348633 198.88330078 -146.59619141 197.82910156 C-145.03790726 194.38587036 -143.4876859 190.93907145 -141.9375 187.4921875 C-139.56866181 182.23939623 -137.19167137 176.99030498 -134.8125 171.7421875 C-134.34336182 170.70620422 -134.34336182 170.70620422 -133.86474609 169.64929199 C-128.51404218 157.84189938 -122.99348461 146.12062504 -117.42251587 134.41586304 C-112.09384503 123.20762239 -106.98582024 111.9191286 -102 100.5546875 C-95.78146467 86.38387416 -89.15902706 72.44522906 -82.32128906 58.56347656 C-77.51829742 48.80497814 -72.86108871 39.00851607 -68.54760742 29.02050781 C-62.1542988 14.59055441 -52.64100687 3.13620804 -37.7578125 -2.76953125 C-24.76714983 -7.12522403 -12.28116297 -6.30389482 0 0 Z M-23.9375 49.4921875 C-29.65949318 56.57714914 -33.14946538 65.80277313 -37.0625 73.9921875 C-37.72713365 75.37467064 -38.39193135 76.75707493 -39.05688477 78.1394043 C-43.56589571 87.53322824 -47.9737303 96.97191435 -52.3137207 106.44506836 C-56.72819559 116.07684915 -61.25198116 125.65511596 -65.78012085 135.23376465 C-70.37679035 144.96507678 -74.87387136 154.7349012 -79.28640747 164.55093384 C-86.15510445 179.82481113 -93.40546559 194.89510937 -100.79785156 209.92211914 C-101.19850327 210.73669083 -101.59915497 211.55126251 -102.01194763 212.39051819 C-102.80641386 214.00570806 -103.60121965 215.62073097 -104.39637756 217.23558044 C-107.64452314 223.85037041 -110.80382474 230.5055083 -113.91427612 237.18612671 C-119.53225255 249.17205095 -126.08460975 259.60352041 -138.57041931 265.29425049 C-142.82675428 266.80856561 -147.06963407 267.63946235 -151.50610352 268.45214844 C-152.430412 268.62437298 -153.35472048 268.79659752 -154.30703831 268.97404099 C-164.05019522 270.75334702 -173.83788748 272.12888024 -183.65234375 273.4453125 C-185.58365284 273.70877833 -187.51488466 273.97281119 -189.44604492 274.23736572 C-193.50204933 274.79219684 -197.55844413 275.34402965 -201.61520386 275.89331055 C-212.17251264 277.32339094 -222.72675097 278.77591903 -233.28125 280.2265625 C-234.31849653 280.36896362 -235.35574306 280.51136475 -236.42442131 280.65808105 C-261.29196473 284.073067 -286.12745113 287.68056495 -310.9375 291.4921875 C-312.63964498 291.75230124 -314.34179336 292.01239283 -316.04394531 292.27246094 C-319.85815502 292.85672349 -323.67104751 293.4488202 -327.48269653 294.04956055 C-329.40007562 294.35145428 -331.31806461 294.64946689 -333.23608398 294.94726562 C-334.33509033 295.12451172 -335.43409668 295.30175781 -336.56640625 295.484375 C-337.49525635 295.63245605 -338.42410645 295.78053711 -339.38110352 295.93310547 C-342.05617791 296.51814227 -344.42826385 297.40584251 -346.9375 298.4921875 C-345.66379745 302.16149447 -344.28619708 304.51401819 -341.5234375 307.234375 C-340.84410156 307.90855469 -340.16476562 308.58273437 -339.46484375 309.27734375 C-338.39943359 310.31181641 -338.39943359 310.31181641 -337.3125 311.3671875 C-336.62542969 312.04910156 -335.93835938 312.73101562 -335.23046875 313.43359375 C-331.93203906 316.68251605 -328.58551314 319.83046662 -325.0703125 322.84375 C-318.95147552 328.13072546 -313.38807612 333.99927887 -307.71484375 339.75390625 C-303.91368526 343.58826263 -300.14002028 347.39240005 -296.03125 350.8984375 C-289.78572808 356.2472313 -284.12841402 362.24694681 -278.35546875 368.09472656 C-272.94273695 373.57125607 -267.53422351 378.97809285 -261.671875 383.98046875 C-258.95475282 386.34877119 -256.45209174 388.91269205 -253.9375 391.4921875 C-250.7158726 394.75805007 -247.50203421 397.96073249 -244 400.9296875 C-240.27792282 404.09228753 -236.86884196 407.52189728 -233.4375 410.9921875 C-230.04744146 414.42063855 -226.68555992 417.81479492 -223 420.9296875 C-209.54023124 432.47072326 -197.44444935 444.46234199 -193.9375 462.4921875 C-193.76779696 465.15655934 -193.66633789 467.72940927 -193.6796875 470.390625 C-193.68262314 471.12970093 -193.68555878 471.86877686 -193.68858337 472.63024902 C-193.81719028 480.56815584 -195.0728896 488.20124045 -196.5 495.9921875 C-196.77077712 497.53108419 -197.04010592 499.07023631 -197.30810547 500.60961914 C-197.87710559 503.8687046 -198.45345729 507.12637174 -199.03466797 510.38330078 C-199.9711392 515.65287304 -200.86585979 520.92911192 -201.75390625 526.20703125 C-202.05847186 528.01302767 -202.3630778 529.81901728 -202.66772461 531.625 C-202.81692352 532.50961914 -202.96612244 533.39423828 -203.11984253 534.30566406 C-203.26591949 535.1715918 -203.41199646 536.03751953 -203.5625 536.9296875 C-203.77206833 538.17274658 -203.77206833 538.17274658 -203.98587036 539.44091797 C-205.66321585 549.36355627 -207.44683531 559.25841736 -209.35115051 569.13999939 C-211.37879198 579.70794296 -213.2387902 590.30549838 -215.11401367 600.90133667 C-218.30644828 618.92618398 -221.52959708 636.94419942 -224.9375 654.9296875 C-225.07902496 655.67887451 -225.22054993 656.42806152 -225.36636353 657.19995117 C-227.7396132 669.74209743 -227.7396132 669.74209743 -229.1484375 675.7734375 C-229.88095563 679.22570114 -230.00798261 681.1736914 -228.9375 684.4921875 C-225.06829644 683.03890076 -221.52857217 681.25504497 -217.9140625 679.25390625 C-217.34024841 678.937099 -216.76643433 678.62029175 -216.17523193 678.29388428 C-214.30264684 677.25881131 -212.4325215 676.21938381 -210.5625 675.1796875 C-209.24958777 674.45241803 -207.93659858 673.72528748 -206.62353516 672.99829102 C-197.90456893 668.16540892 -189.21678143 663.2785555 -180.5456543 658.36035156 C-165.00651583 649.55208436 -149.38402453 640.8916819 -133.6875 632.3671875 C-126.37571772 628.39583687 -119.11084211 624.35021793 -111.875 620.2421875 C-98.2936008 612.54039849 -84.65746402 604.94418448 -70.9375 597.4921875 C-70.32682678 597.1599115 -69.71615356 596.8276355 -69.0869751 596.48529053 C-64.9044563 594.21227567 -60.70629391 591.9709087 -56.5 589.7421875 C-55.44200195 589.16992432 -54.38400391 588.59766113 -53.29394531 588.00805664 C-38.77267453 580.40118699 -24.11859677 576.6520387 -8.0625 581.4296875 C0.62089723 584.26120727 8.30226462 588.75342779 16.0625 593.4921875 C18.43655014 594.93125874 20.81184157 596.36827302 23.1875 597.8046875 C24.09266357 598.35382813 24.09266357 598.35382813 25.01611328 598.9140625 C35.14020816 605.00671421 45.62383095 610.48458002 56.0234375 616.08740234 C67.88994562 622.48200194 79.70177485 628.95002197 91.41772461 635.61694336 C98.25324295 639.49656187 105.14157138 643.26734136 112.0625 646.9921875 C121.82822947 652.25102138 131.50137019 657.65693313 141.14453125 663.13671875 C148.70908078 667.43426364 156.30659037 671.67285606 163.90405273 675.91186523 C165.39400757 676.74439819 165.39400757 676.74439819 166.9140625 677.59375 C167.78885254 678.08182129 168.66364258 678.56989258 169.56494141 679.07275391 C171.31610777 680.06799157 173.03955868 681.11285053 174.73974609 682.19287109 C176.96234138 683.74145946 176.96234138 683.74145946 179.375 683.1796875 C179.931875 682.9528125 180.48875 682.7259375 181.0625 682.4921875 C181.31697777 675.92974572 180.34564664 670.08906653 179 663.6796875 C176.5753397 651.63941627 174.56272194 639.5559482 172.625 627.4296875 C170.62486414 614.94536734 168.56862326 602.48440362 166.25 590.0546875 C162.14821312 567.99941069 158.57693991 545.84957653 154.92118835 523.7169342 C153.84787466 517.22051371 152.76763469 510.72534095 151.67626953 504.23193359 C151.44646896 502.86228406 151.21669672 501.49262977 150.98695374 500.12297058 C150.5520367 497.53015024 150.11508951 494.93770013 149.67698669 492.34541321 C144.17834022 459.56010447 144.17834022 459.56010447 154.0625 445.4921875 C159.91329542 437.91551874 166.26748694 431.00038178 173.05859375 424.265625 C173.97334976 423.35132721 174.88810577 422.43702942 175.83058167 421.49502563 C177.74261119 419.58454082 179.65789157 417.67740321 181.57592773 415.77294922 C184.03461448 413.33145609 186.48645982 410.88322455 188.93618679 408.43274498 C191.28669963 406.08256831 193.64143742 403.73665058 195.99609375 401.390625 C196.87623642 400.51159515 197.75637909 399.63256531 198.66319275 398.72689819 C199.47486404 397.92160675 200.28653534 397.11631531 201.12280273 396.28662109 C201.83734116 395.57589447 202.55187958 394.86516785 203.28807068 394.13290405 C205.0625 392.4921875 205.0625 392.4921875 207.0625 391.4921875 C207.0625 390.8321875 207.0625 390.1721875 207.0625 389.4921875 C207.64616239 389.23300946 208.22982477 388.97383142 208.8311739 388.70679951 C211.2321363 387.39984677 212.82815553 385.98352481 214.76371765 384.05839539 C215.48297424 383.34766876 216.20223083 382.63694214 216.94328308 381.90467834 C217.72214371 381.12491135 218.50100433 380.34514435 219.3034668 379.54174805 C220.13149811 378.72043396 220.95952942 377.89911987 221.81265259 377.05291748 C224.55102138 374.33356327 227.2817671 371.60670868 230.01171875 368.87890625 C231.42972133 367.46570475 232.84772559 366.05250491 234.26598483 364.639561 C238.72392121 360.19789779 243.17614909 355.75056653 247.62524414 351.30004883 C252.21386769 346.7102229 256.81353679 342.13167731 261.41851491 337.55826539 C265.3739207 333.62900939 269.3215786 329.69208227 273.26329166 325.74909049 C275.61672088 323.39515142 277.9740442 321.04536252 280.33737755 318.7013607 C282.97106077 316.08721414 285.59183738 313.46077017 288.2097168 310.83081055 C288.99465012 310.05711624 289.77958344 309.28342194 290.58830261 308.48628235 C291.29909973 307.76709625 292.00989685 307.04791016 292.74223328 306.30693054 C293.36293544 305.68731791 293.9836376 305.06770529 294.62314892 304.42931652 C296.32693045 302.13630775 296.69952782 300.29880934 297.0625 297.4921875 C290.87840052 295.81825165 284.75995111 294.78183935 278.4140625 293.93359375 C276.22712765 293.63284532 274.04019756 293.33206227 271.85327148 293.03125 C270.10975906 292.79390137 270.10975906 292.79390137 268.33102417 292.55175781 C261.9519692 291.68149081 255.57551346 290.79257559 249.19921875 289.90234375 C248.18132987 289.76034735 248.18132987 289.76034735 247.14287758 289.61548233 C208.20614509 284.17875389 169.28811195 278.47003909 130.5 272.0546875 C129.07577225 271.82144775 129.07577225 271.82144775 127.62277222 271.58349609 C118.61723729 270.10218062 109.65603112 268.5062066 100.7578125 266.46875 C99.75390724 266.24325218 99.75390724 266.24325218 98.72972107 266.01319885 C87.49289705 263.33298031 77.54373518 258.28298957 71.0625 248.4921875 C63.46508634 235.96672174 57.86094051 222.35219028 51.94659424 208.98045349 C48.33980951 200.83885138 44.65240109 192.73383265 40.97283936 184.62493896 C34.93338414 171.31341899 28.93534323 157.98558916 23.02816772 144.61483765 C14.32731694 124.92621715 5.28482079 105.4012694 -3.81671143 85.89520264 C-5.26583846 82.78821683 -6.71257687 79.68012212 -8.15917969 76.57196045 C-9.77178962 73.10740484 -11.38564515 69.64343034 -13 66.1796875 C-13.29408752 65.54863098 -13.58817505 64.91757446 -13.89117432 64.26739502 C-14.70933317 62.51258695 -15.52846889 60.75823443 -16.34765625 59.00390625 C-16.80277588 58.02897217 -17.25789551 57.05403809 -17.72680664 56.04956055 C-18.76893924 53.84824193 -19.83746643 51.66501816 -20.9375 49.4921875 C-21.9275 49.4921875 -22.9175 49.4921875 -23.9375 49.4921875 Z " fill="#010000" transform="translate(535.9375,130.5078125)"/>
<path d="M0 0 C-1.56583596 4.03721561 -4.44173865 6.47070582 -7.625 9.25 C-8.140625 9.70890625 -8.65625 10.1678125 -9.1875 10.640625 C-10.4534602 11.76592296 -11.72607942 12.88372177 -13 14 C-13.66 13.67 -14.32 13.34 -15 13 C-12.88094537 10.82722286 -10.75527122 8.66173092 -8.625 6.5 C-8.02171875 5.87996094 -7.4184375 5.25992187 -6.796875 4.62109375 C-6.21679688 4.03457031 -5.63671875 3.44804687 -5.0390625 2.84375 C-4.50490723 2.29912109 -3.97075195 1.75449219 -3.42041016 1.19335938 C-2 0 -2 0 0 0 Z " fill="#F4DF00" transform="translate(821,506)"/>
<path d="M0 0 C4.82675589 2.41337795 7.69984002 5.86062408 11 10 C8 10 8 10 6.39453125 8.7578125 C5.87246094 8.21898437 5.35039062 7.68015625 4.8125 7.125 C4.28269531 6.59132813 3.75289062 6.05765625 3.20703125 5.5078125 C2 4 2 4 2 2 C1.34 2 0.68 2 0 2 C0 1.34 0 0.68 0 0 Z " fill="#DDCA00" transform="translate(142,449)"/>
<path d="M0 0 C1.4835001 0.42257276 2.96176424 0.86356322 4.4375 1.3125 C5.67306641 1.67794922 5.67306641 1.67794922 6.93359375 2.05078125 C7.61550781 2.36402344 8.29742188 2.67726563 9 3 C9.33 3.99 9.66 4.98 10 6 C7.23723823 5.47731534 4.6739124 4.89130413 2 4 C2 3.34 2 2.68 2 2 C1.34 2 0.68 2 0 2 C0 1.34 0 0.68 0 0 Z " fill="#EFEFEF" transform="translate(620,392)"/>
<path d="M0 0 C0 4.35251187 -2.06165511 5.92809398 -5 9 C-7.171875 9.6796875 -7.171875 9.6796875 -9 10 C-8.06409496 8.8944811 -7.12620142 7.79064547 -6.1875 6.6875 C-5.66542969 6.07261719 -5.14335938 5.45773437 -4.60546875 4.82421875 C-3.12827531 3.14575321 -1.59960869 1.56117966 0 0 Z " fill="#DCCA00" transform="translate(829,496)"/>
</svg>
