<?xml version="1.0" encoding="UTF-8"?>
<svg version="1.1" xmlns="http://www.w3.org/2000/svg" width="1920" height="515">
<path d="M0 0 C1.43416008 -0.00855011 1.43416008 -0.00855011 2.89729309 -0.01727295 C4.91678786 -0.0266721 6.93629762 -0.03323656 8.95581055 -0.03710938 C11.96627626 -0.04670525 14.97602527 -0.07773184 17.98632812 -0.109375 C31.50255643 -0.18324288 44.50609274 0.96532164 57.83203125 3.203125 C58.96842041 3.39132812 60.10480957 3.57953125 61.27563477 3.7734375 C63.87211013 4.23927907 66.4441166 4.75803621 69.01953125 5.328125 C70.40845581 5.63508301 70.40845581 5.63508301 71.82543945 5.94824219 C91.23478728 10.46137025 109.97830111 17.3961615 127.83203125 26.203125 C128.92451172 26.73607178 128.92451172 26.73607178 130.0390625 27.27978516 C151.79956425 37.99830257 171.40265549 52.38240908 188.83203125 69.203125 C189.55616211 69.90002441 190.28029297 70.59692383 191.02636719 71.31494141 C200.57309317 80.55175938 209.8145379 89.79019501 217.63330078 100.55566406 C218.84555375 102.22170948 220.08463488 103.86499215 221.328125 105.5078125 C247.01705025 139.90645905 262.39115346 181.81455913 267.83203125 224.203125 C267.9193602 224.86992279 268.00668915 225.53672058 268.09666443 226.22372437 C268.7946721 231.95197788 269.00763844 237.60366789 269.03515625 243.37109375 C269.04085632 244.32720047 269.0465564 245.28330719 269.0524292 246.26838684 C269.06182835 248.28788161 269.06839281 250.30739137 269.07226562 252.3269043 C269.0818615 255.33737001 269.11288809 258.34711902 269.14453125 261.35742188 C269.21839913 274.87365018 268.06983461 287.87718649 265.83203125 301.203125 C265.64382813 302.33951416 265.455625 303.47590332 265.26171875 304.64672852 C264.79587718 307.24320388 264.27712004 309.81521035 263.70703125 312.390625 C263.50239258 313.31657471 263.29775391 314.24252441 263.08691406 315.1965332 C258.573786 334.60588103 251.63899475 353.34939486 242.83203125 371.203125 C242.29908447 372.29560547 242.29908447 372.29560547 241.75537109 373.41015625 C231.03685368 395.170658 216.65274717 414.77374924 199.83203125 432.203125 C199.13513184 432.92725586 198.43823242 433.65138672 197.72021484 434.39746094 C188.48339687 443.94418692 179.24496124 453.18563165 168.47949219 461.00439453 C166.81344677 462.2166475 165.1701641 463.45572863 163.52734375 464.69921875 C129.1286972 490.388144 87.22059712 505.76224721 44.83203125 511.203125 C44.16523346 511.29045395 43.49843567 511.3777829 42.81143188 511.46775818 C37.08317837 512.16576585 31.43148836 512.37873219 25.6640625 512.40625 C24.70795578 512.41195007 23.75184906 512.41765015 22.76676941 512.42352295 C20.74727464 512.4329221 18.72776488 512.43948656 16.70825195 512.44335938 C13.69778624 512.45295525 10.68803723 512.48398184 7.67773438 512.515625 C-5.83849393 512.58949288 -18.84203024 511.44092836 -32.16796875 509.203125 C-33.30435791 509.01492188 -34.44074707 508.82671875 -35.61157227 508.6328125 C-38.20804763 508.16697093 -40.7800541 507.64821379 -43.35546875 507.078125 C-44.74439331 506.77116699 -44.74439331 506.77116699 -46.16137695 506.45800781 C-65.57072478 501.94487975 -84.31423861 495.0100885 -102.16796875 486.203125 C-102.89628906 485.84782715 -103.62460938 485.4925293 -104.375 485.12646484 C-126.13550175 474.40794743 -145.73859299 460.02384092 -163.16796875 443.203125 C-163.89209961 442.50622559 -164.61623047 441.80932617 -165.36230469 441.09130859 C-174.90903067 431.85449062 -184.1504754 422.61605499 -191.96923828 411.85058594 C-193.18149125 410.18454052 -194.42057238 408.54125785 -195.6640625 406.8984375 C-221.35298775 372.49979095 -236.72709096 330.59169087 -242.16796875 288.203125 C-242.2552977 287.53632721 -242.34262665 286.86952942 -242.43260193 286.18252563 C-243.1306096 280.45427212 -243.34357594 274.80258211 -243.37109375 269.03515625 C-243.37679382 268.07904953 -243.3824939 267.12294281 -243.3883667 266.13786316 C-243.39776585 264.11836839 -243.40433031 262.09885863 -243.40820312 260.0793457 C-243.417799 257.06887999 -243.44882559 254.05913098 -243.48046875 251.04882812 C-243.55433663 237.53259982 -242.40577211 224.52906351 -240.16796875 211.203125 C-239.97976562 210.06673584 -239.7915625 208.93034668 -239.59765625 207.75952148 C-239.13181468 205.16304612 -238.61305754 202.59103965 -238.04296875 200.015625 C-237.83833008 199.08967529 -237.63369141 198.16372559 -237.42285156 197.2097168 C-232.9097235 177.80036897 -225.97493225 159.05685514 -217.16796875 141.203125 C-216.8126709 140.47480469 -216.45737305 139.74648437 -216.09130859 138.99609375 C-205.37279118 117.235592 -190.98868467 97.63250076 -174.16796875 80.203125 C-173.47106934 79.47899414 -172.77416992 78.75486328 -172.05615234 78.00878906 C-162.81933437 68.46206308 -153.58089874 59.22061835 -142.81542969 51.40185547 C-141.14938427 50.1896025 -139.5061016 48.95052137 -137.86328125 47.70703125 C-103.4646347 22.018106 -61.55653462 6.64400279 -19.16796875 1.203125 C-18.50117096 1.11579605 -17.83437317 1.0284671 -17.14736938 0.93849182 C-11.41911587 0.24048415 -5.76742586 0.02751781 0 0 Z " fill="#FED400" transform="translate(243.16796875,-0.203125)"/>
<path d="M0 0 C0.66 0 1.32 0 2 0 C20.35953041 39.43845149 20.35953041 39.43845149 27.9375 56.375 C28.44700195 57.51171143 28.95650391 58.64842285 29.48144531 59.81958008 C31.82992394 65.07647203 34.15496306 70.34215558 36.43113708 75.63070679 C37.24089789 77.51012442 38.05543802 79.38740053 38.87133789 81.26416016 C39.88124936 83.59254529 40.88121052 85.92528391 41.86889648 88.26318359 C45.20843046 95.9415661 48.92793324 103.52778318 57 107 C60.69651888 107.99764669 64.42606223 108.72918292 68.1875 109.4375 C69.29391846 109.65140381 70.40033691 109.86530762 71.5402832 110.08569336 C90.01332222 113.59102128 108.62217416 116.11879284 127.25976562 118.56396484 C134.58180146 119.52865362 141.89167509 120.54042982 149.1875 121.6875 C149.95312256 121.80681885 150.71874512 121.9261377 151.50756836 122.04907227 C154.44459972 122.52177265 157.17172184 123.05724061 160 124 C159.44084989 127.88554197 157.71526961 129.65440523 154.97436523 132.38208008 C154.11934921 133.2400972 153.26433319 134.09811432 152.38340759 134.98213196 C150.98512474 136.36189461 150.98512474 136.36189461 149.55859375 137.76953125 C148.59211328 138.73295041 147.62622572 139.69696468 146.66090393 140.6615448 C144.63351983 142.68432587 142.60132943 144.70210183 140.56518555 146.71606445 C137.9753103 149.2778471 135.3940097 151.84804688 132.81590176 154.42166615 C130.33742828 156.89493671 127.85431723 159.36353156 125.37109375 161.83203125 C124.4530748 162.74580032 123.53505585 163.6595694 122.58921814 164.60102844 C118.09877181 169.04228644 113.56505619 173.37111608 108.76152039 177.47335815 C93.7042593 189.81815615 93.7042593 189.81815615 85.70849609 206.56542969 C85.71518897 214.2247546 86.72611157 221.46452322 88.16439819 228.97976685 C88.86971506 232.66974462 89.53808763 236.36648906 90.2109375 240.0625 C90.42719032 241.24351036 90.42719032 241.24351036 90.64781189 242.44837952 C92.63361027 253.36519732 94.36478008 264.32466656 96.12380981 275.27981567 C96.54405458 277.89629639 96.96529026 280.51261596 97.38671875 283.12890625 C97.58712517 284.37964684 97.58712517 284.37964684 97.7915802 285.65565491 C98.44686161 289.71424354 99.12983641 293.76471594 99.87353516 297.80810547 C100.01354446 298.57299789 100.15355377 299.33789032 100.29780579 300.1259613 C100.56017647 301.54536917 100.82776615 302.9638281 101.10197449 304.3809967 C101.89003158 308.6380894 102.11567711 312.67521373 102 317 C98.54935291 315.67977581 95.31759724 314.17793551 92.0703125 312.41796875 C91.12236816 311.90500244 90.17442383 311.39203613 89.19775391 310.86352539 C88.18374512 310.31043701 87.16973633 309.75734863 86.125 309.1875 C85.06071777 308.6092749 83.99643555 308.0310498 82.89990234 307.43530273 C74.81957794 303.02996858 66.80634904 298.51325873 58.80932617 293.95898438 C50.31572681 289.13905705 41.72187866 284.51550767 33.11181641 279.90771484 C26.12458496 276.16269486 19.19984872 272.3350607 12.34375 268.35546875 C6.36229623 264.89619465 -0.26593632 264.91249193 -7 266 C-11.84264045 267.73498183 -16.15383222 270.08028759 -20.60498047 272.63867188 C-23.30821849 274.17519127 -26.04231926 275.64474029 -28.78515625 277.109375 C-38.12167448 282.10055351 -47.40953831 287.17845484 -56.61962891 292.39941406 C-60.94275015 294.84921965 -65.28176165 297.26881542 -69.62890625 299.67578125 C-70.22188004 300.00421021 -70.81485382 300.33263916 -71.42579651 300.67102051 C-74.39448964 302.31509539 -77.36410864 303.95743634 -80.33520508 305.59716797 C-86.31326113 308.90759451 -92.20741049 312.28704015 -97.98095703 315.94458008 C-100 317 -100 317 -103 317 C-102.47028401 310.74935134 -101.31979329 304.88990859 -99.85449219 298.79516602 C-98.98571516 294.93655489 -98.25519536 291.06800208 -97.58203125 287.171875 C-97.45380478 286.43749207 -97.32557831 285.70310913 -97.19346619 284.94647217 C-95.62805671 275.93462093 -94.15365373 266.90747864 -92.67425537 257.88119507 C-91.29917725 249.50797814 -89.8801469 241.164116 -88.15234375 232.85498047 C-85.70033147 221.03310272 -83.22259345 208.16089903 -89 197 C-93.68959822 190.6675489 -99.63674533 185.36774703 -105.47729492 180.11523438 C-109.62336505 176.3841011 -113.56388778 172.48394519 -117.453125 168.484375 C-119.44937127 166.53711637 -121.46157978 164.73048024 -123.578125 162.921875 C-129.70783091 157.60602438 -135.31471012 151.74215891 -141.00927734 145.97021484 C-146.34077844 140.57287136 -151.67053602 135.23790083 -157.45898438 130.32226562 C-158.68730095 129.26831085 -159.85553893 128.14446107 -161 127 C-161 126.01 -161 125.02 -161 124 C-158.58799036 122.79399518 -156.5503287 122.57038848 -153.8737793 122.19970703 C-152.80052902 122.04929962 -151.72727875 121.89889221 -150.62150574 121.743927 C-149.45090103 121.58350922 -148.28029633 121.42309143 -147.07421875 121.2578125 C-145.86167923 121.08877411 -144.64913971 120.91973572 -143.39985657 120.74557495 C-139.49618894 120.20207634 -135.59187133 119.66341784 -131.6875 119.125 C-129.12820926 118.76986219 -126.56896392 118.41439711 -124.00976562 118.05859375 C-120.23687597 117.53408276 -116.46394989 117.0098533 -112.69081116 116.48713684 C-104.37127304 115.33390253 -96.05536594 114.15741926 -87.74194336 112.96095276 C-83.44956547 112.34452236 -79.15604544 111.74855987 -74.85546875 111.19140625 C-74.05689453 111.08376953 -73.25832031 110.97613281 -72.43554688 110.86523438 C-70.88745291 110.65675951 -69.33782256 110.45948785 -67.78710938 110.27148438 C-60.91482378 109.31401013 -55.50388034 107.37169963 -50.41015625 102.546875 C-46.69115582 97.57993987 -44.15160915 91.79973431 -41.4375 86.25 C-40.81732257 84.99449783 -40.19687523 83.73912896 -39.57617188 82.48388672 C-34.03629283 71.2371969 -28.78471325 59.86063876 -23.58007812 48.45556641 C-20.65784102 42.06475306 -17.71163998 35.68514315 -14.75 29.3125 C-14.45268982 28.6726416 -14.15537964 28.0327832 -13.84906006 27.37353516 C-9.52431325 18.08419646 -5.04156613 8.92451148 0 0 Z " fill="#F9F9FA" transform="translate(256,90)"/>
<path d="M0 0 C7.2321714 5.07790758 10.05063845 14.67497979 13.43359375 22.50390625 C16.76824934 30.19191238 20.27868119 37.80001732 23.76953125 45.41796875 C24.47267246 46.95376862 25.17579743 48.48957592 25.87890625 50.02539062 C27.92378089 54.49050175 29.97134615 58.95437541 32.01953125 63.41796875 C32.31380005 64.05955933 32.60806885 64.7011499 32.91125488 65.36218262 C33.73089531 67.14914749 34.5509866 68.93590553 35.37109375 70.72265625 C35.87882324 71.82988037 36.38655273 72.93710449 36.90966797 74.07788086 C37.8887017 76.19772551 38.8771145 78.31326716 39.87548828 80.42407227 C42.23392722 85.42027051 44.42572494 90.39665753 46.34765625 95.578125 C49.48850167 104.72178208 49.48850167 104.72178208 55.86865234 111.54443359 C60.33615485 113.14279957 64.84974562 113.27496739 69.55566406 113.33740234 C73.659864 113.47160627 77.65867507 114.20498791 81.70703125 114.85546875 C90.63130582 116.1411049 99.5763601 117.27317593 108.51953125 118.41796875 C168.4668435 126.09445235 168.4668435 126.09445235 173.95703125 132.35546875 C174.63765625 133.36609375 175.31828125 134.37671875 176.01953125 135.41796875 C176.45265625 136.03671875 176.88578125 136.65546875 177.33203125 137.29296875 C178.84798782 141.9786527 178.65493189 145.92813184 176.76171875 150.3671875 C172.59701395 157.66008984 166.26465311 163.3570147 159.8984375 168.7265625 C158.02414683 170.41381377 156.44802383 172.17183636 154.83203125 174.10546875 C151.97588486 177.46519884 148.91193308 180.4263127 145.6484375 183.390625 C136.67914681 191.61991195 127.78560182 199.92195671 119.03955078 208.38867188 C117.10415469 210.25649885 115.14894385 212.09949783 113.17431641 213.92578125 C101.51416045 223.65635964 101.51416045 223.65635964 94.87475586 236.62939453 C95.03309455 240.06643976 95.49548401 243.06295329 96.4564209 246.36303711 C97.27032622 249.33318281 97.67509443 252.33784229 98.1318512 255.37995911 C98.64072346 258.6777463 99.24999664 261.95399087 99.85800171 265.23471069 C100.67237087 269.62972467 101.45762993 274.02996567 102.24609375 278.4296875 C102.40194443 279.29513687 102.5577951 280.16058624 102.71836853 281.05226135 C104.00255601 288.22017427 105.14146954 295.40156197 106.20703125 302.60546875 C107.62881284 312.1725263 109.31520607 321.66354654 111.1875 331.15234375 C114.86792742 349.89147893 114.86792742 349.89147893 110.01953125 358.41796875 C106.50073715 362.49236192 102.81928812 365.78770189 97.46875 366.9921875 C87.54145973 367.39938894 80.35644061 363.16971065 72.01953125 358.41796875 C70.32559981 357.46340151 68.63158562 356.50898109 66.9375 355.5546875 C64.11978097 353.96281158 61.30475281 352.3666657 58.49487305 350.76098633 C50.41640561 346.15677678 42.23727287 341.76615586 34.01953125 337.41796875 C23.65381502 331.93208893 13.3775698 326.31952545 3.19921875 320.49023438 C1.52204886 319.53024235 -0.15865012 318.57637423 -1.84375 317.63037109 C-3.61874931 316.62321312 -5.36611052 315.56753111 -7.10546875 314.5 C-12.07440457 312.6298978 -15.86739532 313.52450833 -20.59033203 315.52148438 C-23.61801505 316.99799542 -26.58111884 318.56350866 -29.54296875 320.16796875 C-30.63923584 320.74998047 -31.73550293 321.33199219 -32.86499023 321.93164062 C-41.1076557 326.33468021 -49.25728045 330.89972578 -57.37207031 335.53344727 C-65.28945276 340.0531004 -73.28726189 344.41089707 -81.31445312 348.73193359 C-88.31320875 352.50235748 -95.27394646 356.3344943 -102.18676758 360.26049805 C-111.50268124 365.499924 -119.13688842 367.87492558 -129.98046875 366.41796875 C-134.48924483 364.36720286 -136.43196204 361.33804452 -138.91796875 357.16796875 C-141.27650456 348.8437247 -139.74322607 341.53510977 -137.8359375 333.234375 C-136.94661154 329.26692541 -136.18376622 325.29664097 -135.48046875 321.29296875 C-135.35623535 320.58624023 -135.23200195 319.87951172 -135.10400391 319.15136719 C-134.15588072 313.64906365 -133.34290434 308.13092987 -132.54296875 302.60546875 C-131.58800538 296.03742895 -130.45536694 289.54106708 -129.10546875 283.04296875 C-127.4227365 274.91488218 -125.951756 266.75674533 -124.57269287 258.57244873 C-124.34644254 257.23072412 -124.11848488 255.88928618 -123.88873291 254.54815674 C-123.56507024 252.65409343 -123.24920801 250.75870231 -122.93359375 248.86328125 C-122.74958008 247.76516113 -122.56556641 246.66704102 -122.37597656 245.53564453 C-121.67131097 239.98096572 -121.38247937 236.81221515 -124.67761803 232.08772659 C-127.15485981 228.91284721 -130.01315966 226.12618171 -132.87280273 223.29858398 C-133.90038696 222.27056168 -133.90038696 222.27056168 -134.94873047 221.22177124 C-137.20329717 218.96859213 -139.46485715 216.72257394 -141.7265625 214.4765625 C-143.30114234 212.90571682 -144.87527821 211.33442601 -146.44898987 209.76271057 C-150.58711467 205.63220713 -154.73120603 201.50774096 -158.87658691 197.38452148 C-163.08733716 193.19419901 -167.29246719 188.99824509 -171.49804688 184.80273438 C-178.29393327 178.02441144 -185.09324802 171.24955061 -191.89704895 164.47917175 C-193.0661717 163.31569504 -194.23500147 162.15192381 -195.40347099 160.98779106 C-196.86890327 159.52902659 -198.33735151 158.07329359 -199.80604553 156.61781311 C-203.58912474 152.79050599 -205.17556899 149.99477805 -205.48046875 144.60546875 C-205.30472896 139.24540525 -203.65332286 135.32998545 -199.98046875 131.41796875 C-194.94079858 127.27218503 -190.24582587 126.37188641 -183.98046875 125.41796875 C-182.9632373 125.25264648 -181.94600586 125.08732422 -180.89794922 124.91699219 C-170.83239399 123.31706831 -160.72651764 122.00972358 -150.62109375 120.69140625 C-138.67045812 119.12783147 -126.72991195 117.48991738 -114.79144287 115.83630371 C-112.17157319 115.47464819 -109.55133232 115.11567126 -106.9307251 114.75939941 C-103.21457686 114.25384828 -99.49977682 113.73929672 -95.78515625 113.22265625 C-94.6541449 113.0706778 -93.52313354 112.91869934 -92.35784912 112.76211548 C-91.31276184 112.6148703 -90.26767456 112.46762512 -89.19091797 112.31591797 C-88.27768768 112.19030487 -87.3644574 112.06469177 -86.42355347 111.93527222 C-83.94830511 111.41115836 -82.12884392 110.74653264 -79.98046875 109.41796875 C-78.33212168 106.93441745 -78.33212168 106.93441745 -76.91796875 103.79296875 C-76.47590088 102.87269897 -76.47590088 102.87269897 -76.02490234 101.93383789 C-74.99351685 99.76928887 -73.98521927 97.5950047 -72.98046875 95.41796875 C-72.61099121 94.62148926 -72.24151367 93.82500977 -71.86083984 93.00439453 C-69.11536956 87.07422412 -66.40377777 81.12878194 -63.6953125 75.18164062 C-57.83474642 62.31551797 -51.93882397 49.46597473 -46.00366211 36.63409424 C-45.01934908 34.50217932 -44.03930681 32.36835574 -43.06054688 30.23388672 C-41.34429761 26.49464007 -39.60191012 22.76820952 -37.85546875 19.04296875 C-37.35998535 17.95717529 -36.86450195 16.87138184 -36.35400391 15.75268555 C-32.83238132 8.32416987 -28.87859576 1.97985153 -21.16796875 -1.51953125 C-13.95761675 -3.746667 -6.75000939 -3.46366506 0 0 Z M-12.98046875 24.41796875 C-24.730269 45.78124194 -34.7781115 68.04603785 -44.93920898 90.19604492 C-47.27122983 95.27705518 -49.62087227 100.34971293 -51.98046875 105.41796875 C-52.4300293 106.38798828 -52.87958984 107.35800781 -53.34277344 108.35742188 C-54.64052541 111.13711076 -55.96230593 113.90391093 -57.29296875 116.66796875 C-57.66542725 117.47234375 -58.03788574 118.27671875 -58.42163086 119.10546875 C-61.38668898 125.15953682 -64.86321453 129.56614222 -71.12402344 132.38208008 C-77.8731825 134.64790921 -84.93549912 135.3400158 -91.98098755 136.12503052 C-95.53536549 136.52225265 -99.08600683 136.95031542 -102.63671875 137.37890625 C-103.34844742 137.46445267 -104.06017609 137.54999908 -104.79347229 137.63813782 C-111.23701014 138.42465753 -117.63982291 139.41455585 -124.04296875 140.48046875 C-133.04839784 141.97665491 -142.06050509 143.25841246 -151.11621094 144.40991211 C-162.89549609 145.2467053 -162.89549609 145.2467053 -173.98046875 148.41796875 C-173.40055462 151.78734323 -172.37697196 153.38349302 -169.91796875 155.73046875 C-169.09619141 156.52904297 -169.09619141 156.52904297 -168.2578125 157.34375 C-166.97221771 158.51467768 -165.67745062 159.67623007 -164.35400391 160.80419922 C-157.52179175 166.64659179 -151.27885412 173.05438371 -144.97119141 179.44775391 C-139.70655553 184.77740641 -134.43297823 190.0183504 -128.73242188 194.88867188 C-126.01076871 197.26442932 -123.50044497 199.83202681 -120.98046875 202.41796875 C-117.65195966 205.80199664 -114.31895057 209.06416544 -110.66796875 212.10546875 C-104.30169515 217.53944287 -99.4394375 223.11360135 -98.70703125 231.578125 C-98.37528906 244.32468064 -100.78864041 256.23443181 -103.26611328 268.69580078 C-104.49991519 275.12455807 -105.54848134 281.58319626 -106.60546875 288.04296875 C-107.02320814 290.57165249 -107.441169 293.10029964 -107.859375 295.62890625 C-108.05289551 296.80163086 -108.24641602 297.97435547 -108.44580078 299.18261719 C-110.2399641 310.03935342 -112.18483079 320.82018121 -114.71118164 331.53417969 C-115.50518425 334.95533407 -115.98046875 337.88294597 -115.98046875 341.41796875 C-112.62060449 340.7445372 -109.97243311 339.46858456 -106.97265625 337.828125 C-105.99562744 337.29646729 -105.01859863 336.76480957 -104.01196289 336.21704102 C-102.97031982 335.64397217 -101.92867676 335.07090332 -100.85546875 334.48046875 C-99.77450928 333.88999756 -98.6935498 333.29952637 -97.57983398 332.69116211 C-94.37691908 330.93905316 -91.17789173 329.18007663 -87.98046875 327.41796875 C-87.1611084 326.96679688 -86.34174805 326.515625 -85.49755859 326.05078125 C-78.3413333 322.10425262 -71.21195459 318.11012623 -64.0859375 314.109375 C-53.61560427 308.23234732 -43.13696387 302.3723823 -32.60546875 296.60546875 C-31.67831055 296.09580566 -30.75115234 295.58614258 -29.79589844 295.06103516 C-28.94157227 294.59487793 -28.08724609 294.1287207 -27.20703125 293.6484375 C-26.46018066 293.24004639 -25.71333008 292.83165527 -24.94384766 292.41088867 C-18.86611612 289.33725846 -11.60802713 289.27652979 -4.98046875 290.41796875 C-0.25992924 292.00956828 3.94121431 294.66923477 8.15869141 297.27685547 C10.49999165 298.71259902 12.88829689 300.05036306 15.28808594 301.38525391 C17.25472666 302.47926893 19.21330374 303.58692049 21.171875 304.6953125 C28.56145028 308.85919133 35.99832562 312.93844714 43.42822266 317.02978516 C44.69173611 317.72557805 45.95524519 318.4213789 47.21875 319.1171875 C47.85270691 319.4662616 48.48666382 319.81533569 49.13983154 320.17498779 C53.1408784 322.37927115 57.13766792 324.59107699 61.13130188 326.8087616 C63.78748165 328.28366823 66.44481721 329.75648586 69.10220337 331.22921753 C70.3704964 331.93287822 71.63822683 332.637554 72.90536499 333.34329224 C74.67110711 334.32657595 76.43902601 335.3059476 78.20703125 336.28515625 C79.21121094 336.84315918 80.21539062 337.40116211 81.25 337.97607422 C83.79748725 339.30236651 86.33361461 340.40706731 89.01953125 341.41796875 C88.83036436 331.15136584 87.1923474 321.36986215 85.24389648 311.30810547 C82.72253526 298.16576541 80.62771783 284.9588463 78.51904297 271.74511719 C78.23572286 269.97585196 77.95203772 268.20664515 77.66796875 266.4375 C77.53082962 265.58281128 77.39369049 264.72812256 77.25239563 263.84753418 C76.1643432 257.14207695 74.92754307 250.47315924 73.61206055 243.80883789 C72.04102247 234.81825371 72.16469453 228.87903104 77.0559082 221.11621094 C80.66199985 216.16102943 85.00228093 211.98352804 89.39453125 207.73046875 C90.30203125 206.83263672 91.20953125 205.93480469 92.14453125 205.00976562 C95.92920824 201.28780302 99.73958713 197.64537825 103.76025391 194.17944336 C108.47359602 190.07756576 112.90354239 185.71389853 117.33203125 181.30859375 C118.18635742 180.45996765 119.04068359 179.61134155 119.92089844 178.73699951 C121.71053091 176.95675294 123.49876079 175.17509538 125.28564453 173.39208984 C128.03232357 170.65522213 130.78948041 167.92919113 133.546875 165.203125 C135.28841563 163.46810535 137.02932411 161.73245088 138.76953125 159.99609375 C139.59751221 159.18045959 140.42549316 158.36482544 141.27856445 157.5244751 C142.03355225 156.76648621 142.78854004 156.00849731 143.56640625 155.22753906 C144.23510742 154.56248352 144.90380859 153.89742798 145.59277344 153.21221924 C147.33072799 151.40867861 147.33072799 151.40867861 147.01953125 148.41796875 C133.13777485 145.34863568 119.08604581 143.42567823 105.01953125 141.41796875 C104.08270508 141.28390625 103.14587891 141.14984375 102.18066406 141.01171875 C100.45805772 140.76535717 98.73540289 140.51933432 97.01269531 140.27368164 C95.35049478 140.03652671 93.68838517 139.79873363 92.02636719 139.56030273 C88.26371466 139.02087374 84.50089078 138.48431134 80.73535156 137.96533203 C42.30320312 132.66786964 42.30320312 132.66786964 36.67333984 126.66625977 C34.49315635 123.70238173 32.90291773 120.51086477 31.2890625 117.21875 C30.76528519 116.15975243 30.76528519 116.15975243 30.23092651 115.07936096 C26.83510957 108.15183499 23.6957453 101.11843161 20.60510254 94.0506897 C13.59182968 78.02305733 6.32149884 62.11968182 -1.04052734 46.24975586 C-1.76531112 44.68734264 -2.49008367 43.12492421 -3.21484375 41.5625 C-3.72411911 40.46502693 -3.72411911 40.46502693 -4.24368286 39.34538269 C-6.5393054 34.39106141 -8.78847194 29.41918252 -10.98046875 24.41796875 C-11.64046875 24.41796875 -12.30046875 24.41796875 -12.98046875 24.41796875 Z " fill="#020201" transform="translate(268.98046875,65.58203125)"/>
<path d="M0 0 C12.54 0 25.08 0 38 0 C43.16698107 13.0336414 47.94435231 26.16293451 52.56002808 39.40081787 C54.64300574 45.37277193 56.73751625 51.34067817 58.83203125 57.30859375 C59.26197891 58.53398865 59.69192657 59.75938354 60.13490295 61.02191162 C64.51527629 73.49229321 68.96805756 85.93631205 73.4375 98.375 C73.82534668 99.45469055 74.21319336 100.5343811 74.61279297 101.64678955 C76.19499407 106.05127541 77.77727261 110.45573339 79.35995483 114.86004639 C84.84786594 130.13632553 90.30216187 145.42463162 95.7565918 160.71289062 C96.57728613 163.01302978 97.39800529 165.31316007 98.21875 167.61328125 C98.61902908 168.73509796 99.01930817 169.85691467 99.43171692 171.01272583 C101.77348989 177.57290316 104.12194116 184.1306368 106.47735596 190.68592834 C107.90374826 194.65572606 109.32807059 198.62626509 110.75231934 202.59683228 C111.41206397 204.43397448 112.07293411 206.27071292 112.73498535 208.10702515 C113.63339185 210.5990089 114.52805412 213.09230608 115.421875 215.5859375 C115.68641479 216.31632736 115.95095459 217.04671722 116.22351074 217.79924011 C118 222.77226816 118 222.77226816 118 225 C105.46 225 92.92 225 80 225 C75.70238067 213.47456635 71.50794147 201.9143718 67.38928223 190.32391357 C66.83794401 188.77421607 66.28496398 187.2251017 65.73034668 185.67657471 C64.94187544 183.47350716 64.15962015 181.26832657 63.37890625 179.0625 C63.13860184 178.39447357 62.89829742 177.72644714 62.65071106 177.03817749 C61.65677461 174.21094067 61 172.02307013 61 169 C33.61 169 6.22 169 -22 169 C-22.99 172.3 -23.98 175.6 -25 179 C-25.54810024 180.68287144 -26.10648935 182.36252468 -26.68579102 184.03491211 C-27.12623497 185.31059303 -27.12623497 185.31059303 -27.57557678 186.61204529 C-28.03509987 187.93136803 -28.03509987 187.93136803 -28.50390625 189.27734375 C-28.82785873 190.21050919 -29.15181122 191.14367462 -29.48558044 192.1051178 C-30.16430379 194.05753297 -30.84417179 196.00955057 -31.52514648 197.96118164 C-32.56767027 200.95233426 -33.60328986 203.94582202 -34.63867188 206.93945312 C-35.30166465 208.84389581 -35.96506161 210.74819784 -36.62890625 212.65234375 C-36.93727921 213.54606186 -37.24565216 214.43977997 -37.56336975 215.36058044 C-37.85384689 216.18896927 -38.14432404 217.01735809 -38.44360352 217.87084961 C-38.69658707 218.59791611 -38.94957062 219.3249826 -39.21022034 220.07408142 C-40 222 -40 222 -42 225 C-44.83727325 225.26667539 -47.45383045 225.34791234 -50.2890625 225.29296875 C-51.10748627 225.28872391 -51.92591003 225.28447906 -52.76913452 225.28010559 C-55.38808836 225.26328679 -58.00627802 225.22562974 -60.625 225.1875 C-62.3984264 225.17245726 -64.17186484 225.15876814 -65.9453125 225.14648438 C-70.2971703 225.11337292 -74.64845551 225.06156952 -79 225 C-77.65571301 218.32210643 -75.76210628 212.09782364 -73.421875 205.70703125 C-73.06317825 204.71303314 -72.70448151 203.71903503 -72.33491516 202.69491577 C-71.55515394 200.53569669 -70.77294439 198.37736054 -69.98855591 196.21981812 C-67.82878893 190.27821056 -65.68759496 184.32989793 -63.54296875 178.3828125 C-63.08629026 177.11802523 -62.62957919 175.85324973 -62.1728363 174.58848572 C-57.31247922 161.12363145 -52.53090956 147.63103941 -47.75283051 134.13681793 C-45.668824 128.25211312 -43.5825479 122.36821234 -41.49609375 116.484375 C-41.2671064 115.83858112 -41.03811905 115.19278725 -40.80219269 114.52742386 C-35.76495954 100.32298579 -30.69811105 86.12916154 -25.625 71.9375 C-17.05654362 47.96782448 -8.51926375 23.98720073 0 0 Z M19 53 C13.67216941 67.27832332 8.56684261 81.63078275 3.51904297 96.01025391 C2.23962245 99.65455944 0.95786147 103.29803566 -0.32421875 106.94140625 C-1.14857325 109.28641062 -1.97279678 111.63146103 -2.796875 113.9765625 C-3.17503357 115.05169098 -3.55319214 116.12681946 -3.94281006 117.23452759 C-4.30038391 118.25364227 -4.65795776 119.27275696 -5.02636719 120.32275391 C-5.33612488 121.20476471 -5.64588257 122.08677551 -5.96502686 122.99551392 C-7.33993834 126.98682754 -8.66504809 130.99514427 -10 135 C9.14 135 28.28 135 48 135 C47.29023441 131.45117207 46.5465255 128.42769582 45.37695312 125.05566406 C45.04570435 124.09565491 44.71445557 123.13564575 44.37316895 122.14654541 C44.01283569 121.11334167 43.65250244 120.08013794 43.28125 119.015625 C42.9044812 117.92779724 42.5277124 116.83996948 42.13952637 115.71917725 C41.33739705 113.40534902 40.53368404 111.0920693 39.72851562 108.77929688 C38.5289815 105.33325845 37.33433668 101.88555902 36.140625 98.4375 C30.87379807 83.25039192 25.48002676 68.11142387 20 53 C19.67 53 19.34 53 19 53 Z " fill="#FFFFFF" transform="translate(1739,151)"/>
<path d="M0 0 C12.54 0 25.08 0 38 0 C40.0658153 8.20751206 42.12901432 16.41564932 44.1875 24.625 C44.49835541 25.8645343 44.80921082 27.1040686 45.12948608 28.38116455 C50.55637835 50.04172946 55.82955746 71.73581267 60.9987793 93.45947266 C61.26149628 94.55986877 61.52421326 95.66026489 61.79489136 96.79400635 C62.28618509 98.85236622 62.77541606 100.91121991 63.26223755 102.97064209 C63.47774261 103.87284485 63.69324768 104.77504761 63.9152832 105.70458984 C64.10177933 106.49054535 64.28827545 107.27650085 64.48042297 108.08627319 C64.9498427 110.06404905 64.9498427 110.06404905 66 112 C69.0263789 101.16716938 72.05201632 90.33413194 75.07676125 79.50084496 C76.48197654 74.46807615 77.88742728 69.43537337 79.29345703 64.40283203 C80.65568386 59.52703654 82.01723884 54.65105385 83.37836838 49.77495193 C83.89231845 47.93420643 84.4064924 46.09352342 84.92091751 44.25291061 C88.66677359 30.84940704 92.34778447 17.42935282 96 4 C107.22 4 118.44 4 130 4 C130.73637695 6.68334473 131.47275391 9.36668945 132.23144531 12.13134766 C134.67747524 21.04421819 137.12431278 29.95686688 139.57153702 38.86940956 C141.05377136 44.26765227 142.53574222 49.66596701 144.01708984 55.06445312 C145.44940112 60.28419634 146.88243204 65.50374152 148.31594086 70.72315598 C148.85994308 72.70435065 149.40369553 74.68561393 149.9471817 76.66695023 C150.71443124 79.46386425 151.48258069 82.26052962 152.25097656 85.05712891 C152.60848936 86.36103293 152.60848936 86.36103293 152.97322464 87.69127846 C154.0390849 91.56634288 155.11886733 95.43545458 156.25280762 99.29119873 C156.62023071 100.5413678 156.98765381 101.79153687 157.36621094 103.07958984 C157.68458923 104.14059906 158.00296753 105.20160828 158.33099365 106.29476929 C159 109 159 109 159 113 C159.66 113 160.32 113 161 113 C161.12231491 111.86199951 161.24462982 110.72399902 161.37065125 109.55151367 C161.9428615 104.99782799 162.9507781 100.62225103 164.06958008 96.17578125 C164.27787949 95.33224594 164.48617889 94.48871063 164.70079041 93.61961365 C165.38599429 90.84947003 166.07771257 88.08099833 166.76953125 85.3125 C167.25216377 83.36696088 167.73439054 81.42132106 168.2162323 79.47558594 C169.48469021 74.35812849 170.75870051 69.24206917 172.03387451 64.12628174 C173.31830043 58.96914607 174.5973764 53.81068429 175.87695312 48.65234375 C177.76259254 41.05399247 179.65040465 33.45618702 181.54223633 25.859375 C181.73200043 25.09725204 181.92176453 24.33512909 182.11727905 23.5499115 C184.07327226 15.69870775 186.03759691 7.84961234 188 0 C200.54 0 213.08 0 226 0 C225.30646667 4.8547333 224.58137347 8.85410238 223.20019531 13.4609375 C222.82684555 14.71530609 222.45349579 15.96967468 222.0688324 17.26205444 C221.65532823 18.63305589 221.24175689 20.00403708 220.828125 21.375 C220.39297693 22.83088653 219.95830186 24.2869145 219.52406311 25.74307251 C218.34936706 29.67808962 217.16878099 33.61131705 215.98715591 37.54425812 C214.75118073 41.66175342 213.52051034 45.7808324 212.28979492 49.89990234 C212.04124221 50.73173979 211.7926895 51.56357723 211.53660488 52.42062187 C211.02932302 54.11836749 210.52205835 55.81611825 210.01481056 57.51387405 C209.2404795 60.10472231 208.46547195 62.69536747 207.69035339 65.28598022 C204.09080683 77.32076999 200.52242757 89.36450426 196.97265625 101.4140625 C196.48823115 103.05752168 196.00378512 104.7009747 195.51931763 106.34442139 C193.65993809 112.65302117 191.80079228 118.9616862 189.94714355 125.27197266 C188.87188095 128.93228983 187.79389741 132.59179527 186.71398735 136.25074387 C186.32042474 137.58618229 185.92790557 138.92192877 185.53654671 140.25801468 C185.00014548 142.08898659 184.45974599 143.91878571 183.91918945 145.74853516 C183.61914505 146.76887848 183.31910065 147.7892218 183.00996399 148.84048462 C181.80644522 152.60550606 180.38788592 156.29897088 179 160 C167.78 160 156.56 160 145 160 C144.31486328 157.7430127 143.62972656 155.48602539 142.92382812 153.16064453 C140.62528553 145.5890122 138.32619813 138.01754536 136.0268631 130.44615364 C134.63679701 125.86880139 133.24689806 121.29139854 131.85742188 116.71386719 C125.60946116 96.13084157 119.35235092 75.55110661 113 55 C109.9139202 64.99915395 106.83071671 74.99919246 103.75 85 C103.5227272 85.73778057 103.29545441 86.47556114 103.06129456 87.2356987 C95.60026227 111.45921938 88.2396497 135.7090701 81 160 C69.78 160 58.56 160 47 160 C45.07782876 154.87421004 43.31624895 149.95529784 41.77368164 144.73535156 C41.57089851 144.05205214 41.36811539 143.36875271 41.15918732 142.66474724 C40.49007667 140.40751511 39.8251022 138.14908715 39.16015625 135.890625 C38.68073996 134.27018137 38.20107369 132.64981167 37.72117615 131.0295105 C36.43196282 126.67381581 35.14642227 122.31704556 33.86178589 117.95999908 C32.52408957 113.42450577 31.18370484 108.88980693 29.84375 104.35498047 C27.64533756 96.91333802 25.44930714 89.47099569 23.25439453 82.02832031 C20.89567883 74.03074311 18.53143537 66.03481919 16.16318035 58.04006195 C14.26932721 51.64666229 12.37817396 45.25246937 10.48945332 38.85755157 C9.38763489 35.12718519 8.2845895 31.39719245 7.17849731 27.66809082 C6.14810447 24.19377364 5.12157525 20.71833893 4.09810066 17.24197769 C3.54693074 15.37347137 2.99171715 13.50615934 2.43638611 11.6388855 C2.11255447 10.53618317 1.78872284 9.43348083 1.45507812 8.29736328 C1.17216919 7.34032501 0.88926025 6.38328674 0.59777832 5.39724731 C0 3 0 3 0 0 Z " fill="#FFD500" transform="translate(712,216)"/>
<path d="M0 0 C12.21 0 24.42 0 37 0 C37.33 47.85 37.66 95.7 38 145 C45.54067829 135.71916519 52.86398838 126.57273145 59.96875 117 C63.48389219 112.31314375 67.18141077 107.77978 70.93359375 103.28125 C71.66255859 102.39953125 71.66255859 102.39953125 72.40625 101.5 C72.95571289 100.85933594 73.50517578 100.21867187 74.07128906 99.55859375 C75.70155508 97.39591174 76.9742973 95.32294785 78.29589844 92.97265625 C84.75036917 82.13833379 84.75036917 82.13833379 90.38916016 80.16308594 C96.99862015 79.01673644 103.5959888 79.53665614 110.25 80 C112.2666429 80.08039342 114.28359568 80.15337371 116.30078125 80.21875 C121.20826746 80.39380039 126.1006711 80.66887821 131 81 C128.1812087 85.26846601 125.24097476 89.36922711 122.0625 93.375 C121.59013916 93.97368896 121.11777832 94.57237793 120.63110352 95.18920898 C116.39732396 100.53783093 112.08420875 105.82095993 107.77001953 111.10473633 C104.42750894 115.20970444 101.14790641 119.35351733 97.9375 123.5625 C94.30797171 128.31924764 90.61614887 133.01808295 86.875 137.6875 C86.37129883 138.31970459 85.86759766 138.95190918 85.34863281 139.60327148 C83.08172148 142.44135848 80.79345027 145.24040006 78.42578125 147.99609375 C77.68714844 148.86363281 76.94851563 149.73117187 76.1875 150.625 C75.54167969 151.35976563 74.89585938 152.09453125 74.23046875 152.8515625 C72.75769775 154.93636129 72.75769775 154.93636129 73.25415039 157.38354492 C74.03855973 160.1352683 74.97956695 161.74641532 76.703125 164.01171875 C77.26467285 164.76026123 77.8262207 165.50880371 78.40478516 166.2800293 C79.01370605 167.07449463 79.62262695 167.86895996 80.25 168.6875 C81.53474364 170.39516451 82.81857689 172.10351427 84.1015625 173.8125 C85.08044434 175.10994141 85.08044434 175.10994141 86.07910156 176.43359375 C88.98240593 180.31253828 91.80344146 184.24892233 94.625 188.1875 C99.14395887 194.47060268 103.73698294 200.69122699 108.39526367 206.87158203 C112.4424838 212.24428177 116.44743877 217.64722977 120.4375 223.0625 C121.01685303 223.84810303 121.59620605 224.63370605 122.19311523 225.44311523 C123.28711128 226.92931356 124.37893468 228.41711437 125.46826172 229.90673828 C126.47999954 231.28937138 127.49716525 232.66805084 128.52001953 234.04248047 C132 238.77657403 132 238.77657403 132 241 C126.2021927 241.3235469 120.40971913 241.55817315 114.60498047 241.71411133 C112.63529908 241.77914341 110.66623712 241.86761327 108.69873047 241.98071289 C92.87484296 242.86694683 92.87484296 242.86694683 88.18457031 239.82104492 C84.59343771 236.41173465 82.35244609 232.31446911 80 228 C78.91646213 226.46836995 77.81038476 224.95215863 76.671875 223.4609375 C75.69606582 222.10028379 74.72211271 220.7382971 73.75 219.375 C69.21107743 213.04982681 64.62843915 206.75996395 60 200.5 C55.21555441 194.02463908 50.4640848 187.52678781 45.75 181 C45.20085937 180.24009766 44.65171875 179.48019531 44.0859375 178.69726562 C42.01312737 175.82216223 39.96645415 172.94968123 38 170 C37.67 193.43 37.34 216.86 37 241 C24.79 241 12.58 241 0 241 C0 161.47 0 81.94 0 0 Z " fill="#FFFFFF" transform="translate(1210,135)"/>
<path d="M0 0 C3.61088035 3.82402259 6.52622728 7.89207953 9.25 12.3828125 C9.94222656 13.51783203 9.94222656 13.51783203 10.6484375 14.67578125 C20.04305106 31.67149124 20.36684565 51.85700707 16.25 70.3828125 C-19.06 70.3828125 -54.37 70.3828125 -90.75 70.3828125 C-84.31557853 92.94045425 -84.31557853 92.94045425 -68.1875 108.7578125 C-51.72966256 117.65667391 -31.47724275 117.55893388 -13.8125 112.66796875 C-8.3427104 111.0114567 -3.07664131 108.89527014 2.17578125 106.65234375 C4.58033493 105.6593578 6.73777499 104.96735858 9.25 104.3828125 C9.59029508 107.86133418 9.9209387 111.34071159 10.25 114.8203125 C10.34539062 115.79419922 10.44078125 116.76808594 10.5390625 117.77148438 C11.09174098 123.67330099 11.34807559 129.45536928 11.25 135.3828125 C-12.59513962 148.79570354 -45.0117472 151.3042539 -71.1796875 144.23046875 C-88.99236156 139.00896025 -106.43459278 128.23477204 -115.7109375 111.66650391 C-128.1061389 88.7575156 -133.02984539 63.04782563 -125.6796875 37.44921875 C-120.58356709 20.98625637 -112.37772505 7.19886937 -98.75 -3.6171875 C-98.20085937 -4.07480469 -97.65171875 -4.53242188 -97.0859375 -5.00390625 C-87.68316966 -12.34547621 -76.36206808 -15.77291786 -64.75 -17.6171875 C-63.41582031 -17.83181641 -63.41582031 -17.83181641 -62.0546875 -18.05078125 C-39.28042145 -20.87144723 -16.92618833 -16.00392807 0 0 Z M-77.9765625 22.578125 C-83.27074679 28.74475914 -88.75 36.9968639 -88.75 45.3828125 C-65.65 45.3828125 -42.55 45.3828125 -18.75 45.3828125 C-19.88530561 34.02975639 -22.07649739 25.90859264 -30.75 18.3828125 C-45.65046496 9.13028957 -65.13787094 9.91962561 -77.9765625 22.578125 Z " fill="#FFFFFF" transform="translate(1559.75,231.6171875)"/>
<path d="M0 0 C1.83482893 0.00138269 1.83482893 0.00138269 3.70672512 0.00279331 C4.38544924 0.00193889 5.06417335 0.00108446 5.76346487 0.00020415 C8.05442791 -0.00145258 10.34531891 0.00407383 12.63627529 0.00952244 C14.27186996 0.00980429 15.90746475 0.00964661 17.54305935 0.00907993 C21.99741451 0.0087919 26.45174299 0.01468959 30.90609193 0.02165389 C35.55593339 0.02788644 40.20577539 0.02849115 44.85562038 0.0296793 C53.66708568 0.03279291 62.47853863 0.04100669 71.28999847 0.05102879 C81.31884973 0.06218901 91.34770156 0.06770014 101.37655747 0.07272422 C122.01253629 0.08318929 142.64849818 0.10153513 163.28446865 0.12304783 C163.28446865 12.00304783 163.28446865 23.88304783 163.28446865 36.12304783 C142.16446865 36.12304783 121.04446865 36.12304783 99.28446865 36.12304783 C99.28970547 41.81288914 99.29494228 47.50273045 99.30033779 53.36499119 C99.31686829 72.1125603 99.32798852 90.86012968 99.33628082 109.60770416 C99.34144439 120.98025413 99.34848825 132.35279721 99.3599081 143.72534275 C99.36985308 153.63381647 99.37632163 163.54228519 99.37855715 173.45076376 C99.37986457 178.70067688 99.38295241 183.95057572 99.39019871 189.20048428 C99.39695599 194.13581779 99.39908621 199.07113107 99.39757633 204.00646877 C99.39785279 205.82340193 99.39985964 207.64033572 99.40367413 209.4572649 C99.40860683 211.92673071 99.40746852 214.39611889 99.40472317 216.86558628 C99.40763601 217.59417172 99.41054885 218.32275716 99.41354996 219.07342094 C99.39858986 224.00892662 99.39858986 224.00892662 98.28446865 225.12304783 C95.55722587 225.22404271 92.85584342 225.26275312 90.12821865 225.25586033 C88.90201809 225.25729542 88.90201809 225.25729542 87.6510458 225.2587595 C85.91931488 225.25944128 84.18758141 225.25758712 82.45585537 225.25341892 C79.79580383 225.24807062 77.13592115 225.25336395 74.4758749 225.25976658 C72.79748911 225.2591058 71.11910342 225.25782463 69.44071865 225.25586033 C68.63968716 225.25788456 67.83865566 225.25990879 67.01335049 225.26199436 C61.39941944 225.23799862 61.39941944 225.23799862 60.28446865 224.12304783 C60.18678643 221.69455312 60.15450334 219.29453419 60.16421413 216.86558628 C60.16335971 216.09702401 60.16250528 215.32846174 60.16162497 214.53660971 C60.15996784 211.94161997 60.16549531 209.3466938 60.17094326 206.75170994 C60.17122511 204.89936926 60.17106745 203.04702846 60.17050076 201.19468784 C60.17021269 196.14944372 60.17611092 191.10422315 60.18307471 186.05898452 C60.1893067 180.79254413 60.18991193 175.52610327 60.19110012 170.25965977 C60.1942139 160.27946825 60.2024279 150.29928763 60.21244961 140.31910092 C60.22360932 128.96016593 60.22912084 117.60123043 60.23414505 106.24229133 C60.24461048 82.86920411 60.26221081 59.49612658 60.28446865 36.12304783 C59.49742046 36.12526844 58.71037228 36.12748905 57.89947414 36.12977695 C50.49756535 36.14977895 43.09566957 36.16502149 35.69374084 36.17486 C31.88795288 36.18008803 28.08218717 36.18718421 24.27641201 36.19848728 C20.60654321 36.20931903 16.93669587 36.21532527 13.26681232 36.21792507 C11.86371873 36.2197788 10.46062636 36.22339843 9.05754185 36.22877789 C7.09877185 36.23599202 5.13998045 36.23645591 3.18119717 36.23657322 C2.06422955 36.23879383 0.94726192 36.24101444 -0.2035532 36.24330235 C-2.71553135 36.12304783 -2.71553135 36.12304783 -3.71553135 35.12304783 C-3.81640347 32.61380629 -3.85525167 30.13268399 -3.84834385 27.62304783 C-3.84930058 26.87216892 -3.8502573 26.12129002 -3.85124302 25.3476572 C-3.85192473 23.75716156 -3.85007107 22.16666315 -3.84590244 20.57617283 C-3.84055402 18.13340128 -3.84584769 15.69081362 -3.8522501 13.24804783 C-3.85158932 11.70638075 -3.85030815 10.16471379 -3.84834385 8.62304783 C-3.85036808 7.88763767 -3.85239231 7.15222752 -3.85447788 6.3945322 C-3.82552879 0.17334472 -3.82552879 0.17334472 0 0 Z " fill="#FFD400" transform="translate(565.7155313491821,150.87695217132568)"/>
<path d="M0 0 C15.04830538 12.59305555 22.04451766 30.5456706 24.3125 49.75 C24.44682529 53.16725315 24.43913266 56.58024492 24.42602539 59.99975586 C24.42617142 61.00539581 24.42631744 62.01103577 24.4264679 63.04714966 C24.42577427 66.35307005 24.41800766 69.65893327 24.41015625 72.96484375 C24.40829012 75.26412424 24.40686714 77.56340513 24.40586853 79.86268616 C24.40205873 85.90098171 24.39224159 91.93925305 24.38116455 97.97753906 C24.37091735 104.14452792 24.36636383 110.3115207 24.36132812 116.47851562 C24.35061792 128.56902275 24.33303359 140.65950557 24.3125 152.75 C12.4325 152.75 0.5525 152.75 -11.6875 152.75 C-11.70731934 150.00606934 -11.72713867 147.26213867 -11.74755859 144.43505859 C-11.81476035 135.32272249 -11.89239381 126.21049614 -11.97502708 117.09828758 C-12.02476415 111.57889648 -12.07109443 106.05952245 -12.109375 100.54003906 C-12.14651534 95.20366798 -12.19294938 89.86744818 -12.24556351 84.53120804 C-12.26395595 82.50531316 -12.27911842 80.47938605 -12.29084396 78.45344162 C-11.71594807 52.0085069 -11.71594807 52.0085069 -23.06640625 29.1796875 C-30.17879812 22.90707202 -39.05830098 21.28849668 -48.34375 21.56640625 C-56.86834562 22.23416624 -64.47777565 23.98351053 -71.6875 28.75 C-72.33660843 29.17650125 -72.98571686 29.60300249 -73.65449524 30.04242802 C-76.85641643 32.4354854 -79.26926136 34.33967364 -80.43132019 38.25820732 C-80.71136421 41.29208907 -80.74282582 44.23846123 -80.6875 47.28491211 C-80.69842178 48.42710205 -80.70934357 49.56929199 -80.72059631 50.74609375 C-80.74722896 54.5074228 -80.71766974 58.26607746 -80.6875 62.02734375 C-80.69501972 64.64052029 -80.70605468 67.25368889 -80.72045898 69.86683655 C-80.74853643 76.03279074 -80.73615173 82.19796531 -80.70903492 88.36389691 C-80.68013295 95.38700995 -80.69663372 102.40979033 -80.71684647 109.43290699 C-80.75739123 123.87216959 -80.73525827 138.31075146 -80.6875 152.75 C-92.8975 152.75 -105.1075 152.75 -117.6875 152.75 C-117.6875 99.95 -117.6875 47.15 -117.6875 -7.25 C-106.7975 -7.25 -95.9075 -7.25 -84.6875 -7.25 C-84.0275 -3.29 -83.3675 0.67 -82.6875 4.75 C-81.470625 3.88375 -80.25375 3.0175 -79 2.125 C-56.68777802 -12.57604345 -22.64124793 -16.71501525 0 0 Z " fill="#FFFFFF" transform="translate(1150.6875,223.25)"/>
<path d="M0 0 C12.21 0 24.42 0 37 0 C37.029729 8.97175415 37.029729 8.97175415 37.06005859 18.12475586 C37.1269291 37.87415024 37.20446975 57.62349204 37.28752708 77.37282467 C37.33762951 89.34822757 37.38407276 101.3236237 37.421875 113.29907227 C37.4548362 123.73796708 37.49469031 134.17680903 37.54279006 144.61564547 C37.56801392 150.14190821 37.58980739 155.66813608 37.60334396 161.19444084 C37.61620157 166.39907045 37.63829591 171.60358019 37.66738319 176.80814362 C37.67643006 178.71523045 37.68214243 180.62233657 37.68421364 182.52944374 C37.68755666 185.14073064 37.70308883 187.75168189 37.7215271 190.36289978 C37.71959237 191.11098292 37.71765763 191.85906606 37.71566427 192.62981838 C37.78094716 198.84825005 37.95095461 205.68527022 42.19921875 210.484375 C45.46759065 212.25303371 48.13002273 212.80363912 51.8125 213.25 C52.97394531 213.39953125 54.13539062 213.5490625 55.33203125 213.703125 C56.21246094 213.80109375 57.09289063 213.8990625 58 214 C58.18956939 220.63492861 57.45561368 226.93984119 56.5 233.5 C56.35691406 234.51320313 56.21382812 235.52640625 56.06640625 236.5703125 C55.71584418 239.04761782 55.36027153 241.52409137 55 244 C23.3141462 245.10923953 23.3141462 245.10923953 11 234 C-0.94126356 221.34653384 -0.58032295 204.38280431 -0.45410156 188.11157227 C-0.4529709 186.05027285 -0.4536112 183.98897183 -0.45587158 181.92767334 C-0.45701112 176.37694159 -0.4336258 170.82656127 -0.40557575 165.27591062 C-0.38043439 159.4583679 -0.37821011 153.64081559 -0.37347412 147.82322693 C-0.36108159 136.82699161 -0.32831064 125.83091688 -0.28807616 114.83475202 C-0.24324218 102.30745846 -0.22134225 89.7801569 -0.20129442 77.25280297 C-0.1595745 51.50177686 -0.08848194 25.75090425 0 0 Z " fill="#FFFFFF" transform="translate(1361,135)"/>
<path d="M0 0 C12.54 0 25.08 0 38 0 C38 74.25 38 148.5 38 225 C25.46 225 12.92 225 0 225 C0 150.75 0 76.5 0 0 Z " fill="#FFFFFF" transform="translate(1882,151)"/>
<path d="M0 0 C11.88 0 23.76 0 36 0 C36 52.8 36 105.6 36 160 C24.12 160 12.24 160 0 160 C-1.81994042 158.18005958 -1.12619077 155.33378014 -1.12698364 152.88818359 C-1.12854363 152.24283346 -1.13010362 151.59748333 -1.13171089 150.93257713 C-1.1357225 148.75450785 -1.13253064 146.57650739 -1.12939453 144.3984375 C-1.1307485 142.84328165 -1.13252841 141.28812611 -1.13470459 139.73297119 C-1.13927943 135.4975532 -1.13748916 131.26215946 -1.1343255 127.02674103 C-1.13180216 122.60425244 -1.13413937 118.181766 -1.13571167 113.75927734 C-1.13753344 106.33105088 -1.13512686 98.90283434 -1.13037109 91.47460938 C-1.12492846 82.87394859 -1.12669111 74.2733115 -1.1321975 65.67265129 C-1.13672841 58.30197381 -1.13737929 50.93130349 -1.13475883 43.56062508 C-1.13319593 39.15245296 -1.13300263 34.74429201 -1.13629532 30.33612061 C-1.13917372 26.19281652 -1.13719892 22.04954313 -1.13140106 17.90624237 C-1.13007329 16.38118287 -1.13046786 14.85612081 -1.13266373 13.33106232 C-1.13537459 11.25794488 -1.13199493 9.18492738 -1.12698364 7.11181641 C-1.12660662 5.94889069 -1.12622959 4.78596497 -1.12584114 3.58779907 C-1 1 -1 1 0 0 Z " fill="#FFFFFF" transform="translate(960,216)"/>
<path d="M0 0 C12.21 0 24.42 0 37 0 C37 12.54 37 25.08 37 38 C28.1209375 38.0309375 28.1209375 38.0309375 19.0625 38.0625 C17.19215088 38.071604 15.32180176 38.08070801 13.39477539 38.09008789 C11.92073641 38.09300709 10.44669663 38.09555564 8.97265625 38.09765625 C8.20046753 38.10277222 7.42827881 38.10788818 6.63269043 38.11315918 C4.75474813 38.11346974 2.87690747 38.06233569 1 38 C0 37 0 37 -0.11352539 33.48999023 C-0.11327431 31.92951579 -0.1077134 30.3690358 -0.09765625 28.80859375 C-0.09614563 27.7190741 -0.09614563 27.7190741 -0.09460449 26.60754395 C-0.08935716 23.88417999 -0.075396 21.16083847 -0.0625 18.4375 C-0.041875 12.353125 -0.02125 6.26875 0 0 Z " fill="#FFFFFF" transform="translate(959,151)"/>
</svg>
